<?xml version="1.0" encoding="utf-8"?><svg xmlns="http://www.w3.org/2000/svg" xmlns:xlink="http://www.w3.org/1999/xlink"><symbol viewBox="0 0 129 129" id="arrownext" xmlns="http://www.w3.org/2000/svg"><path d="M40.4 121.3c-.8.8-1.8 1.2-2.9 1.2s-2.1-.4-2.9-1.2c-1.6-1.6-1.6-4.2 0-5.8l51-51-51-51c-1.6-1.6-1.6-4.2 0-5.8 1.6-1.6 4.2-1.6 5.8 0l53.9 53.9c1.6 1.6 1.6 4.2 0 5.8l-53.9 53.9z" data-original="#000000" class="aactive-path" data-old_color="#ffffff" fill="#fff"/></symbol><symbol fill="none" viewBox="0 0 23 34" id="arrowprev" xmlns="http://www.w3.org/2000/svg"><g opacity=".5" filter="url(#bfilter0_d)"><path fill-rule="evenodd" clip-rule="evenodd" d="M16.147 25.637L4.487 13.97a1.662 1.662 0 0 1 0-2.351L16.108 0s.523.519 1.172 1.168c.65.65 1.177 1.187 1.177 1.187L8.013 12.793 18.502 23.28s-.518.524-1.167 1.173c-.65.649-1.139 1.148-1.188 1.184z" fill="#fff"/></g><defs><filter id="bfilter0_d" x="0" y="0" width="22.502" height="33.637" filterUnits="userSpaceOnUse" color-interpolation-filters="sRGB"><feFlood flood-opacity="0" result="BackgroundImageFix"/><feColorMatrix in="SourceAlpha" values="0 0 0 0 0 0 0 0 0 0 0 0 0 0 0 0 0 0 127 0"/><feOffset dy="4"/><feGaussianBlur stdDeviation="2"/><feColorMatrix values="0 0 0 0 0 0 0 0 0 0 0 0 0 0 0 0 0 0 0.25 0"/><feBlend in2="BackgroundImageFix" result="effect1_dropShadow"/><feBlend in="SourceGraphic" in2="effect1_dropShadow" result="shape"/></filter></defs></symbol><symbol fill="none" viewBox="0 0 30 30" id="icon1" xmlns="http://www.w3.org/2000/svg"><g opacity=".2" fill="#fff"><path d="M10.781 15.031A4.225 4.225 0 0 0 15 19.25a4.225 4.225 0 0 0 4.219-4.219A4.225 4.225 0 0 0 15 10.812a4.225 4.225 0 0 0-4.219 4.22zm8.438-5.156a.94.94 0 0 0 .937.938.94.94 0 0 0 .938-.938.94.94 0 0 0-.938-.938.94.94 0 0 0-.937.938z"/><path fill-rule="evenodd" clip-rule="evenodd" d="M15 30c8.284 0 15-6.716 15-15 0-8.284-6.716-15-15-15C6.716 0 0 6.716 0 15c0 8.284 6.716 15 15 15zM7 9.344A2.345 2.345 0 0 1 9.344 7h11.312A2.345 2.345 0 0 1 23 9.344v11.312A2.345 2.345 0 0 1 20.656 23H9.344A2.345 2.345 0 0 1 7 20.656V9.344z"/></g></symbol><symbol fill="none" viewBox="0 0 30 30" id="icon2" xmlns="http://www.w3.org/2000/svg"><path opacity=".2" fill-rule="evenodd" clip-rule="evenodd" d="M15 30c8.284 0 15-6.716 15-15 0-8.284-6.716-15-15-15C6.716 0 0 6.716 0 15c0 8.284 6.716 15 15 15zm1.78-23l1.919.003c.166 0 .301.147.301.327v2.442c0 .18-.135.326-.302.326h-1.292c-.891 0-1.054.376-1.054 1.116v1.54h2.256a.29.29 0 0 1 .214.095.34.34 0 0 1 .088.23v2.631c0 .18-.136.326-.302.326h-2.256v6.638c0 .18-.135.326-.302.326h-2.517c-.167 0-.302-.146-.302-.326v-6.638h-1.93c-.166 0-.301-.146-.301-.326v-2.63c0-.18.135-.327.302-.327h1.929v-1.815C13.231 8.546 14.624 7 16.78 7z" fill="#fff"/></symbol><symbol fill="none" viewBox="0 0 30 30" id="icon3" xmlns="http://www.w3.org/2000/svg"><path opacity=".2" fill-rule="evenodd" clip-rule="evenodd" d="M15 30c8.284 0 15-6.716 15-15 0-8.284-6.716-15-15-15C6.716 0 0 6.716 0 15c0 8.284 6.716 15 15 15zm5.97-12.192c-.16-.15-.32-.298-.478-.45-.539-.515-.573-.814-.14-1.408.251-.346.513-.684.774-1.023.23-.297.46-.595.682-.897l.05-.069c.43-.582.86-1.166 1.084-1.861.149-.461.017-.664-.464-.745a1.528 1.528 0 0 0-.252-.014l-2.852-.003c-.351-.007-.546.144-.67.45-.167.413-.34.826-.54 1.224-.453.905-.96 1.779-1.67 2.518l-.03.032c-.149.156-.316.331-.561.253-.327-.118-.423-.648-.418-.826l-.003-3.232c-.063-.46-.167-.667-.634-.757h-2.963c-.395 0-.594.15-.804.393-.122.14-.16.232.091.279.492.091.769.404.842.887.119.774.11 1.55.042 2.327-.02.226-.06.453-.15.664-.144.332-.376.4-.68.196-.275-.185-.468-.447-.657-.71a15.53 15.53 0 0 1-1.74-3.165c-.134-.322-.364-.518-.712-.523a72.512 72.512 0 0 0-2.567.001c-.515.009-.669.255-.46.713.933 2.035 1.97 4.014 3.324 5.815.695.925 1.494 1.742 2.524 2.32 1.17.657 2.427.854 3.753.792.62-.027.807-.187.835-.793.02-.415.068-.828.276-1.201.204-.367.515-.436.873-.208.18.114.329.258.472.412.113.12.224.243.336.366.233.256.467.512.712.758.454.454.994.722 1.67.666l2.622.002c.422-.028.642-.536.4-.998a5.059 5.059 0 0 0-.633-.894c-.394-.463-.838-.877-1.284-1.291z" fill="#fff"/></symbol><symbol fill="none" viewBox="0 0 17 20" id="presentation" xmlns="http://www.w3.org/2000/svg"><path d="M15.615 4.948L11.595.885C11.166.451 10.6.17 9.896.04v6.628h6.558c-.13-.712-.408-1.285-.838-1.719z" fill="#6EB03B"/><path d="M9.482 8.333c-.343 0-.635-.121-.876-.364a1.211 1.211 0 0 1-.36-.886V0h-7.01a1.18 1.18 0 0 0-.874.365A1.205 1.205 0 0 0 0 1.25v17.5c0 .347.12.643.36.886.241.242.533.364.877.364h14.018c.343 0 .635-.122.876-.364.24-.244.36-.539.36-.886V8.333H9.482z" fill="#6EB03B"/></symbol><symbol fill="none" viewBox="0 0 25 35" id="scroll" xmlns="http://www.w3.org/2000/svg"><g opacity=".6" fill="#37464D"><path d="M12.5 0C5.607 0 0 5.615 0 12.517v9.967C0 29.385 5.607 35 12.5 35 19.392 35 25 29.402 25 22.522V12.517C25 5.615 19.392 0 12.5 0zm10.149 22.522c0 5.602-4.553 10.16-10.149 10.16-5.596 0-10.149-4.575-10.149-10.199v-9.966c0-5.624 4.553-10.2 10.149-10.2 5.596 0 10.149 4.576 10.149 10.2v10.005z"/><path d="M12.5 9.58c-.65 0-1.176.52-1.176 1.16v4.056c0 .64.527 1.159 1.176 1.159.65 0 1.176-.519 1.176-1.16V10.74c0-.64-.527-1.158-1.176-1.158z"/></g></symbol><symbol fill="none" viewBox="0 0 25 29" id="triangle" xmlns="http://www.w3.org/2000/svg"><path opacity=".9" d="M23.118 12.782c1.302.776 1.302 2.66 0 3.436L3.024 28.198C1.691 28.991 0 28.03 0 26.478V2.521C0 .969 1.691.008 3.024.803l20.094 11.98z" fill="#fff"/></symbol></svg>