<svg width="30" height="30" viewBox="0 0 30 30" fill="none" xmlns="http://www.w3.org/2000/svg">
<path opacity="0.2" fill-rule="evenodd" clip-rule="evenodd" d="M15 30C23.2843 30 30 23.2843 30 15C30 6.7157 23.2843 0 15 0C6.71573 0 0 6.7157 0 15C0 23.2843 6.71573 30 15 30ZM20.9701 17.8079C20.8098 17.6589 20.6495 17.5099 20.4916 17.3585C19.9532 16.843 19.9188 16.5438 20.3522 15.9503C20.6033 15.6042 20.8649 15.2656 21.1264 14.927C21.3562 14.6296 21.5858 14.3323 21.8083 14.0302L21.8588 13.9615C22.2874 13.3792 22.7172 12.7952 22.9422 12.0996C23.0907 11.6389 22.959 11.4359 22.4783 11.3555C22.3964 11.3417 22.3108 11.3405 22.2263 11.3405L19.374 11.338C19.0225 11.3314 18.828 11.4821 18.704 11.7884C18.5367 12.2012 18.3641 12.6143 18.1633 13.0121C17.7109 13.9169 17.2045 14.7906 16.4949 15.5299L16.4643 15.5619C16.3151 15.7183 16.1481 15.8933 15.903 15.8147C15.5757 15.6966 15.4798 15.1672 15.4849 14.9887L15.4824 11.757C15.4185 11.2961 15.3149 11.0904 14.8483 11H11.8847C11.4896 11 11.2913 11.1508 11.0805 11.393C10.9592 11.5334 10.9219 11.625 11.1725 11.6716C11.6637 11.7631 11.9409 12.0759 12.0139 12.5591C12.1328 13.3334 12.1238 14.109 12.0561 14.886C12.0356 15.1119 11.9959 15.339 11.9051 15.5499C11.762 15.8824 11.5305 15.9502 11.2264 15.7458C10.9515 15.5612 10.7585 15.2988 10.5692 15.0365C9.85828 14.0513 9.29195 12.9883 8.82912 11.8711C8.69487 11.5486 8.46469 11.3529 8.117 11.3479C7.26054 11.3339 6.40518 11.3328 5.54972 11.3491C5.03455 11.3577 4.88113 11.6038 5.0909 12.0622C6.02284 14.0967 7.05975 16.0757 8.41377 17.8768C9.10921 18.8017 9.9082 19.6187 10.9385 20.1974C12.1072 20.8539 13.3652 21.0507 14.6908 20.9894C15.3111 20.9616 15.4977 20.8022 15.5258 20.196C15.5463 19.7806 15.5936 19.3678 15.8019 18.995C16.0065 18.6285 16.3172 18.5587 16.6752 18.7867C16.8541 18.9008 17.0039 19.0452 17.147 19.1985C17.2598 19.3198 17.3713 19.4422 17.4827 19.5646C17.7162 19.821 17.9497 20.0775 18.1954 20.3232C18.6491 20.7772 19.1886 21.0446 19.865 20.9894L22.4873 20.9906C22.9091 20.963 23.129 20.4548 22.8862 19.9929C22.7149 19.668 22.4909 19.3792 22.2544 19.0992C21.8605 18.6359 21.4155 18.222 20.9701 17.8079Z" fill="white"/>
</svg>
