<svg width="30" height="30" viewBox="0 0 30 30" fill="none" xmlns="http://www.w3.org/2000/svg">
<g opacity="0.2">
<path d="M10.7812 15.0312C10.7812 17.3562 12.675 19.25 15 19.25C17.325 19.25 19.2188 17.3562 19.2188 15.0312C19.2188 12.7062 17.325 10.8125 15 10.8125C12.675 10.8125 10.7812 12.7062 10.7812 15.0312Z" fill="white"/>
<path d="M19.2188 9.875C19.2188 10.3906 19.6406 10.8125 20.1562 10.8125C20.6719 10.8125 21.0938 10.3906 21.0938 9.875C21.0938 9.35938 20.6719 8.9375 20.1562 8.9375C19.6406 8.9375 19.2188 9.35938 19.2188 9.875Z" fill="white"/>
<path fill-rule="evenodd" clip-rule="evenodd" d="M15 30C23.2843 30 30 23.2843 30 15C30 6.7157 23.2843 0 15 0C6.71573 0 0 6.7157 0 15C0 23.2843 6.71573 30 15 30ZM7 9.34375C7 8.04999 8.05 7 9.34375 7H20.6562C21.95 7 23 8.04999 23 9.34375V20.6562C23 21.95 21.95 23 20.6562 23H9.34375C8.05 23 7 21.95 7 20.6562V9.34375Z" fill="white"/>
</g>
</svg>
