<svg width="30" height="30" viewBox="0 0 30 30" fill="none" xmlns="http://www.w3.org/2000/svg">
<path opacity="0.2" fill-rule="evenodd" clip-rule="evenodd" d="M15 30C23.2843 30 30 23.2843 30 15C30 6.7157 23.2843 0 15 0C6.71573 0 0 6.7157 0 15C0 23.2843 6.71573 30 15 30ZM16.7799 7L18.6987 7.00336C18.8651 7.00366 19 7.14966 19 7.32959V9.77209C19 9.95221 18.865 10.0984 18.6984 10.0984L17.4058 10.0989C16.5147 10.0989 16.3517 10.4744 16.3517 11.2141V12.7531H18.6082C18.6883 12.7531 18.7652 12.7876 18.8217 12.8488C18.8782 12.9101 18.9101 12.993 18.9101 13.0795L18.9092 15.71C18.9092 15.8903 18.7742 16.0363 18.6075 16.0363H16.3517V22.6738C16.3517 22.8539 16.2166 23 16.0499 23H13.5327C13.366 23 13.231 22.854 13.231 22.6738V16.0363H11.3017C11.1352 16.0363 11 15.8903 11 15.71V13.0795C11 12.8993 11.135 12.7531 11.3017 12.7531H13.231V10.9376C13.231 8.54553 14.6242 7 16.7799 7Z" fill="white"/>
</svg>
