<svg width="75" height="76" viewBox="0 0 75 76" fill="none" xmlns="http://www.w3.org/2000/svg">
<path fill-rule="evenodd" clip-rule="evenodd" d="M17.2735 37.8C17.2735 32.8872 19.0375 28.3401 22.0035 24.7992C24.9695 21.2582 29.1507 18.7234 33.9852 17.8741C38.8197 17.0248 43.6019 17.9656 47.6132 20.2783C51.6115 22.591 54.8258 26.2626 56.5113 30.875C58.1838 35.4873 58.0923 40.3741 56.5113 44.7121C54.9564 48.9716 51.9774 52.7086 47.8615 55.165V57.4386C48.4756 57.7129 49.0113 58.1311 49.4164 58.6406C49.8998 59.2417 50.2134 59.9734 50.3049 60.7704C50.3963 61.5675 50.2526 62.3645 49.9129 63.057C49.6385 63.6189 49.2465 64.1154 48.7369 64.5204C48.9329 64.9516 49.0505 65.4089 49.0767 65.8793C49.1289 66.4934 49.0375 67.1075 48.8153 67.6955C48.5801 68.2835 48.2273 68.8061 47.77 69.2243C47.3911 69.5771 46.9469 69.8514 46.4634 70.0474C46.1368 71.5239 45.3397 72.8044 44.2552 73.719C43.0923 74.7121 41.5897 75.3 39.9695 75.3H35.0305C33.4103 75.3 31.9077 74.7121 30.7448 73.719C29.6603 72.8044 28.8632 71.5239 28.5366 70.0474C28.0531 69.8645 27.6089 69.5771 27.23 69.2243C26.7726 68.8061 26.4199 68.2835 26.1847 67.6955C25.9625 67.1075 25.8711 66.4934 25.9233 65.8793C25.9495 65.4089 26.0671 64.9516 26.2631 64.5204C25.7535 64.1154 25.3615 63.6189 25.0871 63.057C24.7474 62.3645 24.6167 61.5675 24.6951 60.7704C24.7866 59.9734 25.1002 59.2417 25.5836 58.6406C25.9887 58.1311 26.5244 57.7129 27.1385 57.4386V55.165C24.1202 53.375 21.6768 50.8532 19.9782 47.9133C18.2274 44.895 17.2735 41.4194 17.2735 37.8ZM1.51568 29.9211L7.3824 29.1894C7.70906 28.0396 8.10105 26.9028 8.5453 25.8053C9.00261 24.7077 9.52526 23.6232 10.1002 22.591L6.48084 17.9264C6.21951 17.5866 6.10192 17.1685 6.12805 16.7635C6.14112 16.3453 6.31098 15.9534 6.62456 15.6398L15.3528 6.92461C15.6533 6.61102 16.0453 6.44116 16.4634 6.41503C16.8685 6.40197 17.2735 6.51956 17.6263 6.78089L22.2779 10.4002C23.3232 9.82531 24.4077 9.30266 25.5052 8.84535C26.6028 8.38803 27.7395 7.99604 28.8894 7.66939L29.6211 1.80266C29.6733 1.37148 29.8824 0.992558 30.196 0.731233C30.4965 0.456843 30.9016 0.300049 31.3328 0.300049H43.6672C44.0984 0.300049 44.5035 0.456843 44.804 0.731233C45.1176 1.00562 45.3267 1.38454 45.3789 1.81573L46.1106 7.68245C47.2605 8.00911 48.3972 8.40109 49.4948 8.84535C50.5923 9.30266 51.6768 9.82531 52.7221 10.4133L57.3737 6.78089C57.7265 6.51956 58.1315 6.40197 58.5366 6.4281C58.9547 6.45423 59.3467 6.61102 59.6603 6.92461L68.3754 15.6398C68.689 15.9534 68.8589 16.3453 68.885 16.7635C68.9111 17.1685 68.7805 17.5866 68.5192 17.9264L64.8998 22.591C65.4747 23.6232 65.9974 24.7077 66.4547 25.8053C66.912 26.9028 67.304 28.0396 67.6307 29.1894L73.4843 29.9211C73.9155 29.9734 74.2944 30.1825 74.5688 30.496C74.8432 30.7966 75 31.2016 75 31.6328V43.9673C75 44.3985 74.8432 44.8035 74.5688 45.1041C74.2944 45.4176 73.9155 45.6267 73.4843 45.679L67.6176 46.4107C67.2909 47.5605 66.899 48.6973 66.4547 49.7948C65.9974 50.8924 65.4747 51.9769 64.8998 53.0091L68.5192 57.6737C68.7805 58.0135 68.8981 58.4316 68.885 58.8366C68.8589 59.2548 68.689 59.6467 68.3754 59.9603L59.6472 68.6755C59.3467 68.9891 58.9416 69.1589 58.5366 69.1851C58.1315 69.1981 57.7134 69.0805 57.3737 68.8192L51.4155 64.1807L53.5322 61.4629L58.2883 65.1607L64.8606 58.5884L61.4634 54.2112C61.2413 53.9368 61.1237 53.5971 61.0976 53.2574C61.0845 52.9176 61.1629 52.5649 61.3458 52.2643C62.0906 51.0492 62.7308 49.7818 63.2665 48.4751C63.8023 47.1685 64.2465 45.8227 64.5862 44.4377C64.6646 44.0849 64.8606 43.7844 65.1089 43.5622C65.3702 43.3271 65.6969 43.1833 66.0497 43.1311L71.5505 42.4516V33.1485L66.0497 32.469C65.6969 32.4298 65.3702 32.273 65.1089 32.0379C64.8606 31.8157 64.6646 31.5152 64.5862 31.1624C64.2465 29.7905 63.8023 28.4316 63.2665 27.125C62.7308 25.8183 62.0906 24.5509 61.3458 23.3358C61.1629 23.0352 61.0845 22.6825 61.0976 22.3427C61.1237 22.003 61.2413 21.6764 61.4634 21.3889L64.8606 17.0117L58.2883 10.4394L53.9111 13.8366C53.6368 14.0588 53.297 14.1764 52.9573 14.2025C52.6176 14.2156 52.2648 14.1372 51.9643 13.9542C50.7491 13.2095 49.4817 12.5692 48.1751 12.0335C46.8685 11.4978 45.5226 11.0535 44.1376 10.7138C43.7848 10.6354 43.4843 10.4394 43.2622 10.1912C43.027 9.92984 42.8833 9.60318 42.831 9.2504L42.1516 3.74953H32.8484L32.169 9.2504C32.1298 9.60318 31.973 9.92984 31.7378 10.1912C31.5157 10.4394 31.2152 10.6354 30.8624 10.7138C29.4904 11.0535 28.1315 11.4978 26.8249 12.0335C25.5183 12.5692 24.2509 13.2095 23.0357 13.9542C22.7352 14.1372 22.3824 14.2156 22.0427 14.2025C21.703 14.1764 21.3763 14.0588 21.0889 13.8366L16.7117 10.4394L10.1394 17.0117L13.5497 21.3889C13.7587 21.6633 13.8894 22.003 13.9024 22.3427C13.9286 22.6825 13.8371 23.0352 13.6542 23.3358C12.9225 24.5509 12.2822 25.8183 11.7334 27.125C11.1977 28.4316 10.7535 29.7774 10.4138 31.1624C10.3354 31.5152 10.1394 31.8157 9.89112 32.0379C9.62979 32.273 9.3162 32.4168 8.95035 32.469L3.44948 33.1485V42.4386L8.95035 43.1311C9.3162 43.1703 9.62979 43.3271 9.89112 43.5492C10.1394 43.7844 10.3354 44.0849 10.4138 44.4377C10.7535 45.8096 11.1977 47.1554 11.7334 48.4751C12.2822 49.7818 12.9225 51.0492 13.6542 52.2513C13.8371 52.5649 13.9286 52.9046 13.9024 53.2443C13.8894 53.5971 13.7587 53.9237 13.5497 54.2112L10.1394 58.5884L16.7117 65.1607L21.4678 61.4499L23.5845 64.1807L17.6263 68.8192C17.2866 69.0805 16.8685 69.1981 16.4634 69.172C16.0584 69.1459 15.6533 68.976 15.3528 68.6755L6.62456 59.9473C6.31098 59.6467 6.15418 59.2417 6.12805 58.8366C6.10192 58.4316 6.21951 58.0135 6.48084 57.6737L10.1132 53.0091C9.52526 51.9638 9.00261 50.8924 8.5453 49.7818C8.10105 48.6842 7.70906 47.5605 7.3824 46.4107L1.51568 45.679C1.08449 45.6267 0.705575 45.4176 0.431185 45.1041C0.169861 44.8035 0 44.3985 0 43.9673V31.6328C0 31.2016 0.156794 30.7966 0.431185 30.496C0.705575 30.1825 1.08449 29.9734 1.51568 29.9211ZM54.2901 37.8C54.2901 33.6842 52.8005 29.8819 50.2918 26.929C47.7831 23.976 44.2683 21.8985 40.2047 21.2321C36.1542 20.5657 32.1429 21.4281 28.8371 23.4272C25.5183 25.4133 22.892 28.5622 21.5854 32.456C20.2787 36.3497 20.4878 40.4394 21.9251 44.0326C23.3624 47.6258 26.0279 50.7225 29.6733 52.6433C29.9477 52.787 30.1829 53.0091 30.3397 53.2704C30.4965 53.5318 30.588 53.8453 30.588 54.1589V57.0466H44.412V54.1589C44.412 53.8453 44.5035 53.5318 44.6603 53.2704C44.8171 53.0091 45.0523 52.787 45.3267 52.6433C48.0836 51.1929 50.3179 49.037 51.8728 46.4629C53.4277 43.902 54.2901 40.9098 54.2901 37.8ZM46.1368 60.496H28.8632C28.6542 60.496 28.4713 60.5744 28.3406 60.7182C28.2099 60.8488 28.1185 61.0318 28.1185 61.2408C28.1185 61.4499 28.2099 61.6328 28.3406 61.7635C28.4713 61.8941 28.6542 61.9856 28.8632 61.9856H46.1368C46.3458 61.9856 46.5287 61.8941 46.6594 61.7635C46.8031 61.6328 46.8815 61.4499 46.8815 61.2408C46.8815 61.0318 46.7901 60.8488 46.6594 60.7182C46.5287 60.5744 46.3458 60.496 46.1368 60.496ZM35.0305 71.8506H39.9695C40.649 71.8506 41.2892 71.6415 41.8118 71.2626C42.1516 71.0274 42.439 70.7138 42.6611 70.361H32.3389C32.561 70.7138 32.8484 71.0274 33.1882 71.2626C33.7108 71.6415 34.351 71.8506 35.0305 71.8506ZM30.1045 66.9246H44.8955C45.1045 66.9246 45.2875 66.8332 45.4312 66.7025C45.5618 66.5718 45.6402 66.3758 45.6402 66.1798C45.6402 65.9708 45.5618 65.7878 45.4312 65.6441C45.2875 65.5135 45.1045 65.4351 44.8955 65.4351H30.1045C29.8955 65.4351 29.7125 65.5135 29.5688 65.6441C29.4382 65.7878 29.3598 65.9708 29.3598 66.1798C29.3598 66.3758 29.4382 66.5718 29.5688 66.7025C29.7125 66.8332 29.8955 66.9246 30.1045 66.9246Z" fill="#87E06E"/>
</svg>
