<svg width="77" height="76" viewBox="0 0 77 76" fill="none" xmlns="http://www.w3.org/2000/svg">
<path fill-rule="evenodd" clip-rule="evenodd" d="M4.58346 75.1574L4.58346 0.3L1.00018 0.300001L1.00019 75.1574L4.58346 75.1574Z" fill="#87E06E"/>
<path fill-rule="evenodd" clip-rule="evenodd" d="M16.5978 4.18546V0.44259L13.0145 0.442592L13.0145 4.18546L16.5978 4.18546ZM16.5978 19.1569V11.6712H13.0145L13.0145 19.1569H16.5978ZM16.5978 34.1284L16.5978 26.6427H13.0145L13.0145 34.1284H16.5978ZM16.5978 49.0999L16.5978 41.6142H13.0145L13.0145 49.0999H16.5978ZM16.5978 64.0714L16.5978 56.5856L13.0145 56.5857L13.0145 64.0714L16.5978 64.0714ZM16.5978 75.3V71.5571H13.0145L13.0145 75.3L16.5978 75.3Z" fill="#87E06E"/>
<path fill-rule="evenodd" clip-rule="evenodd" d="M28.9971 51.0341H24.6685L24.6685 47.4509H28.9971L28.9971 51.0341ZM46.3113 51.0341L37.6542 51.0341V47.4509H46.3112L46.3113 51.0341ZM63.6254 51.0341H54.9683V47.4509H63.6254V51.0341ZM76.611 51.0341H72.2825V47.4509H76.611L76.611 51.0341Z" fill="#87E06E"/>
<path fill-rule="evenodd" clip-rule="evenodd" d="M29.0559 39.1684V0.300124L25.4727 0.300124L25.4727 39.1684H29.0559Z" fill="#87E06E"/>
<path fill-rule="evenodd" clip-rule="evenodd" d="M29.0559 75.1575L29.0559 60.7619L25.4727 60.7619V75.1575H29.0559Z" fill="#87E06E"/>
<path fill-rule="evenodd" clip-rule="evenodd" d="M76.2093 63.9934L25.4787 63.9934V60.4101L76.2093 60.4101L76.2093 63.9934Z" fill="#87E06E"/>
<path fill-rule="evenodd" clip-rule="evenodd" d="M76.2096 39.5204H25.4776L25.4775 35.9372H76.2096V39.5204Z" fill="#87E06E"/>
<path fill-rule="evenodd" clip-rule="evenodd" d="M4.88347 0L4.88347 75.4574L0.700198 75.4574L0.700195 6.55651e-07L4.88347 0ZM16.8978 0.14259V4.48546L12.7145 4.48546L12.7145 0.142592L16.8978 0.14259ZM16.8978 11.3712V19.4569H12.7145L12.7145 11.3712H16.8978ZM16.8978 26.3427V34.4284H12.7145L12.7145 26.3427H16.8978ZM16.8978 41.3142L16.8978 49.3999H12.7145L12.7145 41.3142H16.8978ZM16.8978 56.2856L16.8978 64.3714L12.7145 64.3714L12.7145 56.2857L16.8978 56.2856ZM16.8978 71.2571V75.6L12.7145 75.6L12.7145 71.2571H16.8978ZM24.3686 51.3341L24.3685 47.1509H29.2971L29.2971 51.3341H24.3686ZM37.3542 51.3341V47.1509H46.6113L46.6113 51.3341L37.3542 51.3341ZM54.6683 51.3341V47.1509H63.9254V51.3341H54.6683ZM71.9825 51.3341V47.1509H76.9111L76.9111 51.3341H71.9825ZM29.3559 0.000123501V35.6372H76.5096V39.8204H25.1776V39.4684H25.1727L25.1727 0.000124335L29.3559 0.000123501ZM25.4727 39.1684H25.4776L25.4776 39.5204H76.2096V35.9372H29.0559L29.0559 0.300124L25.4727 0.300124L25.4727 39.1684ZM29.0559 63.9934L29.0559 75.1575H25.4727V60.7619H25.4787L25.4787 60.4101L76.2093 60.4101L76.2093 63.9934L29.0559 63.9934ZM25.1787 60.4619H25.1727V75.4575H29.3559L29.3559 64.2934L76.5094 64.2934L76.5094 60.1101L25.1787 60.1101V60.4619ZM1.00018 0.300001L4.58346 0.3L4.58346 75.1574L1.00019 75.1574L1.00018 0.300001ZM16.5978 0.44259V4.18546L13.0145 4.18546L13.0145 0.442592L16.5978 0.44259ZM13.0145 56.5857L16.5978 56.5856L16.5978 64.0714L13.0145 64.0714L13.0145 56.5857ZM16.5978 71.5571V75.3L13.0145 75.3L13.0145 71.5571H16.5978ZM28.9971 51.0341H24.6685L24.6685 47.4509H28.9971L28.9971 51.0341ZM46.3113 51.0341L37.6542 51.0341V47.4509H46.3112L46.3113 51.0341ZM63.6254 51.0341H54.9683V47.4509H63.6254V51.0341ZM76.611 51.0341H72.2825V47.4509H76.611L76.611 51.0341ZM16.5978 11.6712H13.0145L13.0145 19.1569H16.5978V11.6712ZM16.5978 26.6427H13.0145L13.0145 34.1284H16.5978L16.5978 26.6427ZM16.5978 41.6142H13.0145L13.0145 49.0999H16.5978L16.5978 41.6142Z" fill="#87E06E"/>
</svg>
