<svg width="93" height="76" viewBox="0 0 93 76" fill="none" xmlns="http://www.w3.org/2000/svg">
<path fill-rule="evenodd" clip-rule="evenodd" d="M0 75.3V44.943H4.10713V75.3H0Z" fill="#87E06E"/>
<path d="M65.5879 44.7939C65.5879 45.8623 64.7218 46.7285 63.6534 46.7285C62.5849 46.7285 61.7188 45.8623 61.7188 44.7939C61.7188 43.7255 62.5849 42.8593 63.6534 42.8593C64.7218 42.8593 65.5879 43.7255 65.5879 44.7939Z" fill="#87E06E"/>
<path fill-rule="evenodd" clip-rule="evenodd" d="M39.2318 1.46653L91.6957 31.4727C92.3154 31.8264 92.6894 32.4938 92.6707 33.2071C92.6498 33.9218 92.24 34.5666 91.6014 34.8861L84.6314 38.3739C84.8115 39.2385 84.9326 40.0841 84.9326 40.9048C84.9326 48.3776 78.8571 54.4586 71.3911 54.4586C71.246 54.4586 71.1059 54.44 70.9656 54.4214C70.8744 54.4092 70.783 54.3971 70.6905 54.3901L69.2583 57.2609C69.0201 57.7373 68.5952 58.0948 68.085 58.2498C67.9019 58.3046 67.7147 58.3311 67.5277 58.3311C67.1915 58.3311 66.8571 58.2442 66.5605 58.0721L50.0967 48.5642L47.9712 52.11C46.3879 54.7534 43.49 56.3947 40.4107 56.3947C39.7812 56.3947 39.1653 56.2744 38.5546 56.1419L35.3838 60.9026C33.2263 64.1415 29.6162 66.0737 25.7264 66.0737H1.60015V62.2104H25.7262C28.32 62.2104 30.7268 60.922 32.1644 58.7645L34.9463 54.5916L31.6242 52.5988L28.9453 56.6185C28.2293 57.6972 27.026 58.3414 25.7262 58.3414H1.60015V54.4664H25.7262L28.6711 50.0352C27.5768 48.5927 26.8974 46.8476 26.8974 44.9925C26.8974 43.1885 27.4924 41.3997 28.575 39.957L30.5737 37.2897L19.509 30.8998C16.9078 29.3985 15.2906 26.5963 15.2906 23.5879C15.2906 21.8465 15.8176 20.173 16.8151 18.7454L26.9787 4.21579C29.6463 0.398137 35.1852 -0.851624 39.2318 1.46653ZM37.866 51.8311C40.118 53.1857 43.3012 52.3846 44.6538 50.1346L46.7448 46.6494L33.9481 39.266L31.6695 42.304C31.0877 43.0824 30.7665 44.044 30.7665 45.015C30.7665 46.5925 31.6073 48.0773 32.9599 48.8878L37.866 51.8311ZM21.4416 27.5835L66.7152 53.7053L72.715 41.6905L24.8421 14.072L19.9851 21.0091C19.4448 21.7817 19.1595 22.6867 19.1595 23.6294C19.1595 25.256 20.0342 26.7711 21.4416 27.5835ZM76.7014 42.3662L72.652 50.4756C77.385 49.8499 81.0635 45.8318 81.0635 40.9306C81.0635 40.7774 81.0443 40.6171 81.0251 40.4569C81.0155 40.3769 81.0059 40.2969 80.9988 40.2178L76.7014 42.3662ZM27.0699 10.8901L75.3257 38.729L86.6385 33.0734L37.3125 4.88683C36.4908 4.41656 35.5557 4.169 34.6092 4.169C32.8333 4.169 31.1672 5.03808 30.1488 6.49278L27.0699 10.8901Z" fill="#87E06E"/>
</svg>
