<svg width="75" height="75" viewBox="0 0 75 75" fill="none" xmlns="http://www.w3.org/2000/svg">
<path fill-rule="evenodd" clip-rule="evenodd" d="M65 4H10C6.68629 4 4 6.68629 4 10V65C4 68.3137 6.68629 71 10 71H65C68.3137 71 71 68.3137 71 65V10C71 6.68629 68.3137 4 65 4ZM10 0C4.47715 0 0 4.47715 0 10V65C0 70.5229 4.47715 75 10 75H65C70.5229 75 75 70.5229 75 65V10C75 4.47715 70.5229 0 65 0H10Z" fill="#87E06E"/>
<path d="M53 27.6402C53 31.8937 51.5818 35.1541 48.7455 37.4213C45.9091 39.6885 41.8909 40.8221 36.6909 40.8221H31.0136C30.4614 40.8221 30.0136 41.2698 30.0136 41.8221V58C30.0136 58.5523 29.5659 59 29.0136 59H28C27.4477 59 27 58.5523 27 58V16C27 15.4477 27.4477 15 28 15H37.5773C47.8591 15 53 19.2134 53 27.6402ZM30.0136 37.1737C30.0136 37.726 30.4614 38.1737 31.0136 38.1737H35.9523C40.8174 38.1737 44.3333 37.3611 46.5 35.7359C48.6667 34.0907 49.75 31.4323 49.75 27.7606C49.75 24.3698 48.7258 21.8618 46.6773 20.2366C44.6288 18.5914 41.4576 17.7688 37.1636 17.7688H31.0136C30.4614 17.7688 30.0136 18.2165 30.0136 18.7688V37.1737Z" fill="#87E06E"/>
<path fill-rule="evenodd" clip-rule="evenodd" d="M30.5136 58.5C30.5136 59.0523 30.0659 59.5 29.5136 59.5H27.5C26.9477 59.5 26.5 59.0523 26.5 58.5V15.5C26.5 14.9477 26.9477 14.5 27.5 14.5H37.5773C42.7738 14.5 46.764 15.5627 49.4613 17.7733C52.1775 19.9995 53.5 23.3206 53.5 27.6402C53.5 32.0165 52.0338 35.4329 49.0576 37.8119C46.1014 40.1749 41.9566 41.3221 36.6909 41.3221H31.5136C30.9614 41.3221 30.5136 41.7698 30.5136 42.3221V58.5ZM30.0136 41.8221C30.0136 41.2698 30.4614 40.8221 31.0136 40.8221H36.6909C41.8909 40.8221 45.9091 39.6885 48.7455 37.4213C51.5818 35.1541 53 31.8937 53 27.6402C53 19.2134 47.8591 15 37.5773 15H28C27.4477 15 27 15.4477 27 16V58C27 58.5523 27.4477 59 28 59H29.0136C29.5659 59 30.0136 58.5523 30.0136 58V41.8221ZM46.3665 20.6283L46.3642 20.6265C44.4454 19.0854 41.4105 18.2688 37.1636 18.2688H31.5136C30.9614 18.2688 30.5136 18.7165 30.5136 19.2688V36.6737C30.5136 37.226 30.9614 37.6737 31.5136 37.6737H35.9523C40.784 37.6737 44.1639 36.8624 46.1986 35.337C48.1997 33.8169 49.25 31.3342 49.25 27.7606C49.25 24.4733 48.2616 22.1318 46.3665 20.6283ZM46.5 35.7359C44.3333 37.3611 40.8174 38.1737 35.9523 38.1737H31.0136C30.4614 38.1737 30.0136 37.726 30.0136 37.1737V18.7688C30.0136 18.2165 30.4614 17.7688 31.0136 17.7688H37.1636C41.4576 17.7688 44.6288 18.5914 46.6773 20.2366C48.7258 21.8618 49.75 24.3698 49.75 27.7606C49.75 31.4323 48.6667 34.0907 46.5 35.7359Z" fill="#87E06E"/>
</svg>
