<svg width="68" height="76" viewBox="0 0 68 76" fill="none" xmlns="http://www.w3.org/2000/svg">
<path fill-rule="evenodd" clip-rule="evenodd" d="M6.305 74.3985L6.33795 6.15113L2.96337 6.1495L2.93042 74.3969L6.305 74.3985Z" fill="#87E06E"/>
<path fill-rule="evenodd" clip-rule="evenodd" d="M25.242 74.8352L25.2751 6.16004L28.6497 6.16167L28.6166 74.8368L25.242 74.8352Z" fill="#87E06E"/>
<path fill-rule="evenodd" clip-rule="evenodd" d="M45.6803 1.6908C46.1553 1.23068 46.634 0.767059 47.1164 0.299805L49.4644 2.72355C49.053 3.12209 48.6445 3.51775 48.2389 3.91061C33.486 18.2 22.5628 28.78 15.5045 39.2208C8.33438 49.8271 5.18803 60.2504 6.29972 74.2643L2.9357 74.5312C1.76068 59.7189 5.13081 48.5404 12.7088 37.3309C19.9677 26.5933 31.1196 15.7927 45.6803 1.6908Z" fill="#87E06E"/>
<path fill-rule="evenodd" clip-rule="evenodd" d="M54.7391 24.0475C57.7102 21.1657 60.754 18.2133 63.7955 15.1748L66.1805 17.5621C63.0342 20.7053 59.9268 23.7195 56.9219 26.6341C49.1833 34.1404 42.1248 40.9871 36.8341 47.6803C29.5171 56.9372 25.99 65.4124 28.5516 74.3722L25.307 75.2998C22.2905 64.7488 26.6509 55.1213 34.1867 45.5877C39.6253 38.7073 46.9308 31.6212 54.7391 24.0475Z" fill="#87E06E"/>
<path fill-rule="evenodd" clip-rule="evenodd" d="M31.5785 16.1835L0.0250897 16.1683L0.0267193 12.7937L31.5802 12.8089L31.5785 16.1835Z" fill="#87E06E"/>
<path fill-rule="evenodd" clip-rule="evenodd" d="M31.5723 29.1761L0.0188176 29.1609L0.0204497 25.7863L31.5739 25.8015L31.5723 29.1761Z" fill="#87E06E"/>
<path fill-rule="evenodd" clip-rule="evenodd" d="M55.9182 31.961L33.6173 9.63853L36.0046 7.25349L58.3055 29.5759L55.9182 31.961Z" fill="#87E06E"/>
<path fill-rule="evenodd" clip-rule="evenodd" d="M47.0779 41.682L27.5984 22.1837L29.9858 19.7986L49.4652 39.2969L47.0779 41.682Z" fill="#87E06E"/>
<path fill-rule="evenodd" clip-rule="evenodd" d="M37.793 50.9579L25.7343 38.8876L28.1216 36.5025L40.1803 48.5729L37.793 50.9579Z" fill="#87E06E"/>
<path fill-rule="evenodd" clip-rule="evenodd" d="M64.7192 24.0577L48.9501 8.27335L51.3375 5.88831L67.1066 21.6726L64.7192 24.0577Z" fill="#87E06E"/>
<path fill-rule="evenodd" clip-rule="evenodd" d="M27.8538 42.1669L0.0125433 42.1535L0.0141755 38.7789L27.8554 38.7923L27.8538 42.1669Z" fill="#87E06E"/>
<path fill-rule="evenodd" clip-rule="evenodd" d="M31.5597 55.1613L0.00627425 55.1461L0.0079054 51.7715L31.5614 51.7867L31.5597 55.1613Z" fill="#87E06E"/>
<path fill-rule="evenodd" clip-rule="evenodd" d="M31.5534 68.1539L0 68.1387L0.00163115 64.7641L31.5551 64.7793L31.5534 68.1539Z" fill="#87E06E"/>
</svg>
