<svg width="67" height="76" viewBox="0 0 67 76" fill="none" xmlns="http://www.w3.org/2000/svg">
<path fill-rule="evenodd" clip-rule="evenodd" d="M60.5355 1.00347L60.679 1.14695V1.21217C64.7486 6.97746 66.7834 13.708 66.7834 20.4385C66.7834 27.2212 64.7225 34.0169 60.5747 39.8083C60.2877 40.2257 59.8573 40.4735 59.4007 40.5518C58.9442 40.63 58.4486 40.5257 58.0442 40.2387L57.992 40.1996L57.979 40.1866C57.6007 39.8996 57.379 39.4822 57.3007 39.0518C57.2224 38.5952 57.3268 38.0996 57.6138 37.6952C61.3051 32.5299 63.1573 26.4777 63.1573 20.4385C63.1573 14.3862 61.3051 8.334 57.6138 3.16872C57.3268 2.76436 57.2355 2.28175 57.3138 1.82522C57.379 1.39478 57.6138 0.99043 57.979 0.70347L58.0312 0.651295C58.4355 0.364335 58.9312 0.259986 59.3877 0.325204C59.8181 0.403466 60.2355 0.625208 60.5355 1.00347ZM8.73924 0.638252L8.79141 0.677383C9.16968 0.964343 9.40446 1.38174 9.48273 1.81218C9.54794 2.26871 9.45664 2.76436 9.16968 3.16872C5.47833 8.334 3.62613 14.3862 3.62613 20.4385C3.62613 26.4777 5.47833 32.5299 9.16968 37.6952C9.45664 38.0996 9.54794 38.5822 9.46968 39.0387C9.39142 39.4953 9.14359 39.9126 8.75228 40.2127C8.34793 40.4996 7.85227 40.604 7.39574 40.5387C6.93922 40.4605 6.50878 40.2127 6.20877 39.8083C2.07394 34.0169 0 27.2212 0 20.4385C0 13.6428 2.07394 6.86007 6.20877 1.05565C6.49573 0.651295 6.92617 0.403466 7.3827 0.325204H7.39574C7.85227 0.246943 8.33489 0.351292 8.73924 0.638252ZM16.9176 7.59051C16.9046 7.59051 16.8915 7.6166 16.8915 7.6166C13.9437 11.3862 12.4828 15.9124 12.4828 20.4385C12.4828 24.9646 13.9437 29.4777 16.8915 33.2473C17.1915 33.6387 17.322 34.1213 17.2567 34.5908C17.2046 35.0343 16.9828 35.4517 16.6176 35.7648L16.6046 35.7778L16.5654 35.7909C16.1741 36.1039 15.6915 36.2213 15.235 36.1691C14.7915 36.117 14.361 35.8952 14.061 35.53L14.0219 35.4778C10.5653 31.056 8.84359 25.7473 8.84359 20.4385C8.84359 15.1167 10.5653 9.80793 14.0219 5.38614C14.335 4.99483 14.7654 4.76004 15.235 4.70787C15.6785 4.64265 16.148 4.76004 16.5393 5.047L16.5654 5.07309C16.9567 5.37309 17.1915 5.81658 17.2567 6.2731C17.3089 6.72963 17.2046 7.1992 16.9176 7.59051ZM49.5267 6.2731C49.5919 5.84266 49.8006 5.41222 50.1658 5.11222L50.218 5.07309C50.6093 4.76004 51.0919 4.64265 51.5485 4.69482C52.018 4.76004 52.4485 4.98178 52.7615 5.38614C56.2181 9.80793 57.9398 15.1167 57.9398 20.4255C57.9398 25.7342 56.2181 31.056 52.7615 35.4778C52.4615 35.8691 52.018 36.1039 51.5615 36.1561C51.0919 36.2213 50.6093 36.1039 50.218 35.7909C49.8267 35.4778 49.5919 35.0474 49.5267 34.5778C49.4745 34.1213 49.5919 33.6387 49.905 33.2473C52.8398 29.4777 54.3137 24.9516 54.3137 20.4255C54.3137 15.8993 52.8398 11.3732 49.905 7.6166C49.5919 7.21225 49.4745 6.74267 49.5267 6.2731ZM45.4701 20.4385C45.4701 17.4645 44.3745 14.4906 42.1831 12.1688L42.1701 12.1558C41.831 11.7775 41.6744 11.3079 41.6875 10.8514C41.7005 10.3949 41.8962 9.93837 42.2483 9.59923L42.2744 9.58619C42.6397 9.24705 43.1092 9.09053 43.5658 9.10357C44.0223 9.11662 44.4788 9.31227 44.8179 9.67749V9.66445L44.831 9.67749C47.6745 12.7036 49.1093 16.5645 49.1093 20.4385C49.1093 24.2994 47.6745 28.1603 44.831 31.1865L44.8179 31.1995C44.4788 31.5517 44.0223 31.7343 43.5658 31.7604C43.0962 31.7734 42.6266 31.6039 42.2614 31.2647L42.2483 31.2517C41.8962 30.9125 41.7005 30.456 41.6875 29.9864C41.6744 29.5299 41.844 29.0603 42.1831 28.6951C44.3745 26.3734 45.4701 23.3994 45.4701 20.4385ZM24.5612 31.2256C24.2351 31.5517 23.7786 31.7604 23.2699 31.7604C23.0351 31.7604 22.7872 31.7082 22.5525 31.6039C22.3307 31.5125 22.122 31.3691 21.9524 31.1865C19.1089 28.1603 17.6741 24.2994 17.6741 20.4385C17.6741 16.5645 19.1089 12.7036 21.9524 9.69054L21.9655 9.66445C22.3177 9.29923 22.7742 9.11662 23.2438 9.10357C23.7133 9.09053 24.1699 9.2601 24.5351 9.59923C24.9003 9.95141 25.0829 10.4079 25.096 10.8775C25.109 11.3471 24.9394 11.8036 24.6003 12.1688C22.409 14.4906 21.3133 17.4645 21.3133 20.4385C21.3133 23.3994 22.409 26.3734 24.6003 28.6951C24.7568 28.8647 24.8873 29.0603 24.9655 29.269C25.0438 29.4777 25.096 29.7125 25.096 29.9343C25.096 30.443 24.8873 30.8995 24.5612 31.2256ZM38.0874 25.3951L50.3093 73.0174V73.0304C50.4398 73.5131 50.3484 74.0087 50.1137 74.4131C49.8789 74.8044 49.4876 75.1174 49.005 75.2479H48.9919C48.9267 75.2609 48.8484 75.274 48.7702 75.287C48.6919 75.3 48.6136 75.3 48.5484 75.3C48.131 75.3 47.7397 75.1566 47.4397 74.9218C47.1267 74.674 46.8919 74.3348 46.7875 73.9305L43.331 60.4694L20.3481 72.5609L19.9959 73.9305C19.8916 74.3348 19.6568 74.674 19.3437 74.9218C19.0437 75.1566 18.6524 75.3 18.235 75.3C18.1437 75.3 18.0785 75.3 18.0133 75.287C17.948 75.274 17.8828 75.2609 17.8176 75.2479C17.8046 75.2479 17.7915 75.2479 17.7785 75.2348C17.2959 75.1174 16.9046 74.8044 16.6698 74.4131C16.435 74.0087 16.3567 73.5131 16.4741 73.0304L28.696 25.3951L28.5395 25.2516C28.409 25.1212 28.2786 24.9907 28.1482 24.8342C26.9221 23.3864 26.4003 21.5733 26.5438 19.8254C26.6873 18.0776 27.509 16.3819 28.9438 15.1558H28.9569C30.4047 13.9297 32.2047 13.408 33.9526 13.5515C35.7135 13.6949 37.4092 14.5036 38.6353 15.9515C39.8614 17.3993 40.3831 19.1994 40.2396 20.9602C40.0961 22.6037 39.3787 24.1951 38.0874 25.3951ZM31.3439 29.6473L36.6135 34.2648L34.7874 27.1299C34.657 27.169 34.5265 27.1951 34.383 27.2081C34.07 27.2603 33.7309 27.2994 33.4048 27.2994H33.3917C33.0526 27.2994 32.7134 27.2603 32.4004 27.2081C32.2569 27.1951 32.1265 27.169 31.996 27.1299L31.3439 29.6473ZM35.6744 18.1428C35.0874 17.5559 34.2787 17.2037 33.3917 17.2037C32.5047 17.2037 31.683 17.5559 31.1091 18.1428C30.5221 18.7298 30.1569 19.5385 30.1569 20.4385C30.1569 21.3255 30.5221 22.1342 31.1091 22.7211C31.696 23.3081 32.5047 23.6733 33.3917 23.6733C34.2787 23.6733 35.0874 23.3081 35.6744 22.7211C36.2613 22.1342 36.6265 21.3255 36.6265 20.4385C36.6265 19.5385 36.2613 18.7298 35.6744 18.1428ZM36.7309 39.1822L30.3395 33.5865L27.2873 45.4692L36.7309 39.1822ZM25.6177 51.9911L21.5611 67.813L39.4179 58.4216L25.6177 51.9911ZM38.6613 42.2475L28.2395 49.1997L42.1049 55.6694L38.6613 42.2475Z" fill="#87E06E"/>
</svg>
