<svg width="54" height="54" viewBox="0 0 54 54" fill="none" xmlns="http://www.w3.org/2000/svg">
<path d="M36.31 9.68562C35.9195 9.2951 35.2864 9.2951 34.8958 9.68562L28.807 15.7744C28.4165 16.165 28.4165 16.7981 28.807 17.1887L38.486 26.8676C38.8765 27.2581 38.8765 27.8913 38.486 28.2818L28.2819 38.4859C27.8913 38.8765 27.2582 38.8765 26.8676 38.4859L17.1887 28.807C16.7982 28.4165 16.165 28.4164 15.7745 28.807L9.68611 34.8953C9.29559 35.2859 9.29559 35.919 9.68611 36.3096L25.9172 52.5406C26.3077 52.9311 26.9409 52.9311 27.3314 52.5406L52.5411 27.3309C52.9316 26.9404 52.9316 26.3072 52.5411 25.9167L36.31 9.68562Z" fill="#2C2C2C"/>
<path d="M27.331 0.707107C26.9405 0.316582 26.3073 0.316582 25.9168 0.707106L0.707107 25.9168C0.316583 26.3073 0.316583 26.9405 0.707107 27.331L6.47862 33.1025C6.86914 33.4931 7.50231 33.4931 7.89283 33.1025L15.7741 25.2213C16.1646 24.8307 16.7978 24.8307 17.1883 25.2213L26.8673 34.9002C27.2578 35.2907 27.891 35.2907 28.2815 34.9002L34.8997 28.282C35.2903 27.8915 35.2903 27.2583 34.8997 26.8678L25.2208 17.1888C24.8303 16.7983 24.8303 16.1651 25.2208 15.7746L33.1025 7.89283C33.4931 7.50231 33.4931 6.86914 33.1025 6.47862L27.331 0.707107Z" fill="#6EB03B"/>
</svg>
