<svg width="565" height="565" viewBox="0 0 565 565" fill="none" xmlns="http://www.w3.org/2000/svg">
<path d="M380.241 96.5343C379.103 95.3965 377.258 95.3965 376.12 96.5343L300.289 172.366C299.151 173.504 299.151 175.349 300.289 176.487L414.376 290.575C415.514 291.713 415.514 293.558 414.376 294.696L294.693 414.38C293.555 415.518 291.711 415.518 290.573 414.38L176.485 300.291C175.347 299.154 173.503 299.154 172.365 300.291L96.5385 376.119C95.4007 377.256 95.4007 379.101 96.5385 380.239L280.445 564.147C281.582 565.284 283.427 565.284 284.565 564.147L564.147 284.562C565.284 283.425 565.284 281.58 564.147 280.442L380.241 96.5343Z" fill="#E6E6E6"/>
<path d="M284.555 0.853356C283.418 -0.284445 281.573 -0.284455 280.435 0.853345L0.853342 280.438C-0.284449 281.575 -0.284446 283.42 0.853344 284.558L73.3034 357.009C74.4412 358.146 76.286 358.146 77.4238 357.009L172.355 262.076C173.493 260.938 175.338 260.938 176.476 262.076L290.563 376.165C291.701 377.302 293.546 377.302 294.684 376.165L376.156 294.691C377.294 293.553 377.294 291.709 376.156 290.571L262.069 176.482C260.931 175.344 260.931 173.5 262.069 172.362L357.006 77.4244C358.143 76.2866 358.143 74.4419 357.006 73.3041L284.555 0.853356Z" fill="#E6E6E6"/>
</svg>
