<svg width="321" height="186" viewBox="0 0 321 186" fill="none" xmlns="http://www.w3.org/2000/svg">
<path fill-rule="evenodd" clip-rule="evenodd" d="M74.0231 107.098C74.0333 107.559 74.0559 108.016 74.0923 108.47C74.4654 113.134 76.2307 117.407 79.4647 120.657C88.207 129.445 104.379 127.44 115.58 116.182C126.781 104.922 128.775 88.6658 120.033 79.8781C116.484 76.3109 111.711 74.5216 106.543 74.4082L106.53 74.4078C107.142 74.3947 107.748 74.3574 108.347 74.2972C112.816 73.8481 116.901 72.0861 120.033 68.9384C128.775 60.1507 126.781 43.8941 115.58 32.635C104.379 21.3758 88.207 19.3715 79.4647 28.1592C76.3831 31.2567 74.635 35.2817 74.1546 39.6892C74.0816 40.3572 74.038 41.0342 74.0231 41.7178L74.0228 41.7308C73.9127 36.5313 72.1334 31.729 68.5819 28.1592C59.8395 19.3715 43.6671 21.3758 32.4663 32.635C21.2655 43.8941 19.2715 60.1507 28.0137 68.9384C31.0663 72.0068 35.0237 73.7587 39.3601 74.2607C40.069 74.3428 40.7885 74.3921 41.5152 74.4077L41.5023 74.4082C36.3345 74.5216 31.5621 76.3109 28.0137 79.8781C19.2715 88.6658 21.2655 104.922 32.4663 116.182C43.6671 127.44 59.8395 129.445 68.5819 120.657C72.1334 117.087 73.9125 112.284 74.0226 107.084L74.0231 107.098ZM77.7053 122.426C76.1986 120.911 74.9733 119.201 74.0223 117.346C73.7945 117.789 73.5505 118.225 73.291 118.651C72.8735 119.337 72.4262 119.987 71.95 120.597L71.9455 120.594C71.452 121.226 70.9275 121.824 70.3736 122.384L70.3412 122.416V122.426C63.278 129.526 52.0438 130.419 41.748 125.709C39.7984 124.817 37.8753 123.719 36.016 122.419C34.1828 121.137 32.4061 119.648 30.7226 117.956H30.7124L30.7067 117.951C22.0232 109.222 18.5003 97.609 20.7398 88.1727C21.1845 86.2983 21.866 84.4906 22.7885 82.7878C23.7091 81.0885 24.8617 79.521 26.2498 78.1244V78.1142L26.2543 78.1097C27.7618 76.5941 29.4617 75.3622 31.304 74.4061C30.6565 74.0696 30.0258 73.6987 29.4151 73.2933L29.4173 73.2888C28.8396 72.9057 28.2957 72.5053 27.7882 72.0897C27.2579 71.6557 26.7509 71.1965 26.2694 70.7131H26.2593L26.2536 70.7074C19.1906 63.6073 18.3029 52.3148 22.9885 41.9652C23.8755 40.0056 24.9683 38.0725 26.2615 36.2035C27.5362 34.3606 29.0175 32.5748 30.7005 30.8824V30.8734L30.7062 30.8676C39.3896 22.1387 50.9425 18.5977 60.3301 20.8489C62.1948 21.296 63.9931 21.9809 65.6871 22.9082C67.3774 23.8338 68.937 24.9921 70.3261 26.3875H70.3363L70.3408 26.392C71.8501 27.9091 73.0771 29.6192 74.0285 31.4728C74.3572 30.8338 74.7184 30.2114 75.1132 29.6076C75.4968 29.0211 75.8989 28.4668 76.3184 27.9479C76.7529 27.4107 77.2135 26.8966 77.6987 26.4081V26.3979L77.7056 26.3911C84.769 19.2913 96.0032 18.399 106.299 23.1089C108.248 24.0006 110.171 25.0992 112.031 26.3991C113.864 27.6806 115.641 29.1693 117.324 30.8612H117.335L117.34 30.8669C126.024 39.5957 129.546 51.2088 127.307 60.6451C126.862 62.5195 126.181 64.3271 125.258 66.03C124.338 67.729 123.185 69.2968 121.797 70.6932V70.7034L121.793 70.7079C120.286 72.2227 118.586 73.4552 116.74 74.411C117.183 74.6406 117.616 74.8861 118.042 75.1476C118.724 75.5674 119.37 76.0167 119.976 76.4951C120.576 76.9685 121.169 77.4965 121.751 78.079L121.783 78.1105H121.793C128.856 85.2107 129.744 96.5032 125.058 106.853C124.171 108.813 123.078 110.745 121.785 112.615C120.51 114.457 119.029 116.243 117.346 117.936V117.946L117.341 117.951C108.657 126.68 97.104 130.221 87.7165 127.97C85.852 127.523 84.0535 126.838 82.3595 125.911C80.6694 124.985 79.1096 123.827 77.7205 122.432H77.7103L77.7053 122.426Z" fill="#019645"/>
<path fill-rule="evenodd" clip-rule="evenodd" d="M0 74.1565H319.316V74.6602H0V74.1565Z" fill="#019645"/>
<path fill-rule="evenodd" clip-rule="evenodd" d="M74.2754 0V185.248H73.7741V0H74.2754Z" fill="#019645"/>
<path fill-rule="evenodd" clip-rule="evenodd" d="M155.457 96.9478L173.778 161.439H196.76L172.445 77.7324H137.822L114.266 161.439H136.805L154.81 96.9478H155.457ZM286.097 161.439V97.1524H320.85V77.7324H263.89V161.439H286.097ZM180.732 77.7324H206.403L222.425 108.928L237.026 77.7324H262.698L223.519 161.439H197.849L210.185 135.08L180.732 77.7324Z" fill="#019645"/>
</svg>
