<svg width="20" height="16" viewBox="0 0 20 16" fill="none" xmlns="http://www.w3.org/2000/svg">
<g opacity="0.3">
<path d="M18.2141 15.7143C18.6637 15.7143 19.0533 15.5659 19.3844 15.2728L13.7181 9.60626C13.5821 9.70361 13.4504 9.79827 13.3259 9.88829C12.9019 10.2007 12.5577 10.4445 12.2934 10.6192C12.0292 10.7943 11.6776 10.9728 11.2388 11.155C10.7996 11.3374 10.3905 11.4283 10.011 11.4283H9.98876C9.6092 11.4283 9.20008 11.3374 8.76097 11.155C8.32186 10.9728 7.9703 10.7943 7.70632 10.6192C7.44208 10.4445 7.0981 10.2007 6.67384 9.88829C6.55562 9.80162 6.4245 9.70652 6.28274 9.60474L0.615329 15.2728C0.94645 15.5659 1.33625 15.7143 1.78578 15.7143H18.2141Z" fill="white"/>
<path d="M1.12735 6.03804C0.703347 5.75535 0.327345 5.4316 0 5.06693V13.6881L4.99427 8.69383C3.99513 7.9963 2.7078 7.11205 1.12735 6.03804Z" fill="white"/>
<path d="M18.8839 6.03804C17.3638 7.06695 16.0718 7.95272 15.0077 8.69583L20 13.6883V5.06693C19.6799 5.42427 19.3079 5.7478 18.8839 6.03804Z" fill="white"/>
<path d="M18.2141 0H1.78582C1.21268 0 0.772048 0.193538 0.463367 0.580216C0.154431 0.967075 0.000217867 1.45088 0.000217867 2.0311C0.000217867 2.49977 0.204868 3.00758 0.613985 3.55468C1.0231 4.10156 1.45844 4.53112 1.91977 4.84358C2.17268 5.02227 2.93536 5.55248 4.20781 6.43405C4.89471 6.91005 5.49206 7.32494 6.00539 7.68297C6.44294 7.98784 6.82029 8.25185 7.13184 8.47096C7.1676 8.49605 7.22385 8.53628 7.2985 8.58966C7.37893 8.64743 7.48071 8.72074 7.60628 8.81141C7.84807 8.98628 8.04895 9.12764 8.20893 9.23563C8.3687 9.34366 8.56228 9.46432 8.78937 9.59831C9.01628 9.73211 9.23029 9.83273 9.43117 9.89966C9.63208 9.96654 9.81806 10.0001 9.98916 10.0001H10.0114C10.1824 10.0001 10.3685 9.96654 10.5694 9.89966C10.7703 9.83273 10.9841 9.73233 11.2112 9.59831C11.438 9.46432 11.6314 9.3434 11.7916 9.23563C11.9516 9.12764 12.1525 8.98632 12.3943 8.81141C12.5196 8.72074 12.6214 8.64739 12.7019 8.58984C12.7765 8.53624 12.8328 8.49626 12.8687 8.47096C13.1114 8.30207 13.4897 8.03914 13.9982 7.68605C14.9234 7.04317 16.2861 6.09693 18.092 4.84358C18.6351 4.46424 19.0888 4.00646 19.4535 3.47091C19.8175 2.93536 20 2.37359 20 1.78578C20 1.29467 19.8231 0.874445 19.4699 0.524442C19.1164 0.174875 18.6978 0 18.2141 0Z" fill="white"/>
</g>
</svg>
