<svg width="103" height="99" viewBox="0 0 103 99" fill="none" xmlns="http://www.w3.org/2000/svg">
<g opacity="0.9">
<path d="M102.077 0.272645C101.505 -0.0738539 100.791 -0.0890845 100.202 0.221241L68.6667 16.8855L37.1334 0.221241C37.1086 0.207914 37.08 0.204106 37.0552 0.192683C36.9636 0.148895 36.8702 0.11653 36.7748 0.0879724C36.7214 0.0727417 36.6699 0.0556071 36.6165 0.0441841C36.5116 0.0232419 36.4048 0.0156266 36.2961 0.0118189C36.2484 0.00991507 36.2007 0.00420351 36.1511 0.00610735C36.0481 0.0118189 35.947 0.0308572 35.8459 0.0537033C35.7887 0.0651263 35.7315 0.0727418 35.6761 0.0898763C35.6628 0.093684 35.6494 0.0936839 35.638 0.0974916L1.30467 11.5205C0.524537 11.7794 0 12.5067 0 13.3273V95.1923C0 95.8035 0.293741 96.3784 0.793481 96.7382C1.12156 96.9724 1.51257 97.0962 1.90741 97.0962C2.10959 97.0962 2.31369 97.0638 2.51015 96.9972L36.1683 85.7988L67.9399 98.8572C67.9666 98.8686 67.9972 98.8648 68.0239 98.8743C68.2337 98.9486 68.4473 99 68.6667 99C68.8383 99 69.0081 98.9714 69.174 98.9258C69.2274 98.9105 69.277 98.8858 69.3304 98.8667C69.4067 98.8382 69.4868 98.8172 69.5593 98.7792L101.985 81.6446C102.609 81.3152 103 80.666 103 79.9616V1.90423C103 1.23599 102.649 0.61724 102.077 0.272645ZM3.81481 14.6999L34.3333 4.54676V55.9352C33.5131 56.0837 32.7044 56.2512 31.9224 56.4568C30.9038 56.7272 30.2973 57.7686 30.5681 58.7852C30.7951 59.6381 31.5657 60.2017 32.4107 60.2017C32.5709 60.2017 32.7368 60.1807 32.9009 60.1389C33.3587 60.017 33.8584 59.9561 34.3333 59.8571V82.3985L3.81481 92.5498V14.6999ZM38.1481 59.324C38.7604 59.2764 39.3536 59.1984 39.9812 59.185C41.0341 59.1622 41.8695 58.2921 41.8485 57.2412C41.8256 56.2036 40.9768 55.3773 39.9411 55.3773C39.9278 55.3773 39.9125 55.3773 39.8991 55.3773C39.3078 55.3907 38.7261 55.423 38.1481 55.463V5.06651L66.7593 20.1849V60.5349C65.3974 60.4758 64.0126 60.3159 62.5611 60.036C61.5234 59.8323 60.5259 60.5101 60.3256 61.542C60.1253 62.5739 60.8024 63.5734 61.8362 63.7733C63.5262 64.1007 65.1666 64.2607 66.7612 64.3235V94.2537L38.1481 82.4937V59.324ZM99.1852 78.8136L70.5741 93.932V64.1179C71.2836 63.7961 71.7567 63.0727 71.6937 62.2521C71.6384 61.5401 71.1806 60.9689 70.5741 60.6891V20.1849L99.1852 5.06651V78.8136Z" fill="#87E06E"/>
<path d="M20.9815 15.2311C15.7228 15.2311 11.4444 19.5014 11.4444 24.7503C11.4444 29.3481 14.7271 33.1919 19.0741 34.0772V38.0772C19.0741 39.13 19.9286 39.981 20.9815 39.981C22.0344 39.981 22.8889 39.13 22.8889 38.0772V34.0772C27.2359 33.1919 30.5185 29.3481 30.5185 24.7503C30.5185 19.5014 26.2402 15.2311 20.9815 15.2311ZM20.9815 30.4618C17.8266 30.4618 15.2593 27.8992 15.2593 24.7503C15.2593 21.6013 17.8266 19.0388 20.9815 19.0388C24.1363 19.0388 26.7037 21.6013 26.7037 24.7503C26.7037 27.8992 24.1363 30.4618 20.9815 30.4618Z" fill="#87E06E"/>
<path d="M85.9669 50.7815C86.1957 50.871 86.4304 50.9109 86.6611 50.9109C87.4241 50.9109 88.1432 50.4521 88.4389 49.7001C89.3353 47.4174 90.0544 44.8396 90.5809 42.0391C90.7754 41.0072 90.0926 40.0134 89.0568 39.8173C88.0154 39.6459 87.0255 40.3066 86.8309 41.3404C86.3502 43.9067 85.696 46.2523 84.8873 48.3141C84.5039 49.2908 84.9864 50.3969 85.9669 50.7815Z" fill="#87E06E"/>
<path d="M24.4244 59.6705C22.1221 61.1117 20.0469 62.9166 18.2539 65.0393C17.5749 65.8428 17.6779 67.0441 18.4828 67.7218C18.8414 68.0227 19.2782 68.1692 19.7111 68.1692C20.2548 68.1692 20.7926 67.9389 21.1703 67.4934C22.7077 65.6733 24.4835 64.1255 26.45 62.8975C27.3427 62.3378 27.6116 61.1631 27.0528 60.2721C26.4939 59.3811 25.3151 59.1108 24.4244 59.6705Z" fill="#87E06E"/>
<path d="M16.4552 70.9679C15.4977 70.53 14.3647 70.9431 13.9241 71.8989C11.9671 76.1368 11.4826 79.558 11.4616 79.7027C11.3186 80.7441 12.0472 81.7017 13.0905 81.8445C13.1783 81.8578 13.2679 81.8636 13.3538 81.8636C14.2903 81.8636 15.1067 81.1744 15.2421 80.2243C15.2459 80.1939 15.6827 77.1839 17.3879 73.4962C17.8285 72.5386 17.4108 71.4096 16.4552 70.9679Z" fill="#87E06E"/>
<path d="M77.1031 62.3111C77.395 62.3111 77.6925 62.2445 77.9691 62.1036C80.4335 60.8452 82.606 59.0594 84.4238 56.7995C85.0837 55.979 84.9521 54.7795 84.13 54.1227C83.3098 53.4697 82.1082 53.5973 81.4482 54.4159C79.9681 56.2569 78.2132 57.7019 76.2314 58.7129C75.293 59.1926 74.9211 60.3388 75.4017 61.2754C75.7412 61.9323 76.4107 62.3111 77.1031 62.3111Z" fill="#87E06E"/>
<path d="M55.6391 57.938C54.7979 57.5858 54.3058 57.3421 54.2734 57.325C54.1494 57.2621 54.0178 57.2107 53.8824 57.1765C51.8166 56.6472 49.7814 56.2284 47.8301 55.9314C46.7906 55.7676 45.8159 56.4854 45.6557 57.5249C45.4974 58.5644 46.2127 59.5372 47.2541 59.6953C49.0204 59.9656 50.8648 60.3426 52.7417 60.8185C52.9973 60.9404 53.4856 61.1707 54.1685 61.4544C54.4088 61.5553 54.6587 61.601 54.9028 61.601C55.6486 61.601 56.3582 61.1631 56.6634 60.432C57.0696 59.4573 56.6118 58.3416 55.6391 57.938Z" fill="#87E06E"/>
<path d="M89.5013 36.042C89.5432 36.0439 89.5833 36.0458 89.6253 36.0458C90.6228 36.0458 91.4621 35.2728 91.5269 34.2619C91.6452 32.4323 91.7043 30.4961 91.7043 28.5123C91.7043 27.8517 91.6986 27.1815 91.6853 26.498C91.6662 25.4452 90.7506 24.6456 89.7435 24.6285C88.6906 24.6475 87.8514 25.5156 87.8704 26.5666C87.8819 27.2272 87.8895 27.8764 87.8895 28.5123C87.8895 30.4161 87.8323 32.2686 87.7198 34.0201C87.653 35.0691 88.4503 35.9734 89.5013 36.042Z" fill="#87E06E"/>
<path d="M15.8181 52.7501C16.1901 53.1213 16.6784 53.3079 17.1667 53.3079C17.655 53.3079 18.1433 53.1213 18.5152 52.7501L20.9815 50.2884L23.4478 52.7501C23.8197 53.1213 24.308 53.3079 24.7963 53.3079C25.2846 53.3079 25.7729 53.1213 26.1448 52.7501C26.8906 52.0057 26.8906 50.8024 26.1448 50.058L23.6786 47.5964L26.1448 45.1347C26.8906 44.3903 26.8906 43.1871 26.1448 42.4427C25.399 41.6983 24.1936 41.6983 23.4478 42.4427L20.9815 44.9043L18.5152 42.4427C17.7694 41.6983 16.5639 41.6983 15.8181 42.4427C15.0723 43.1871 15.0723 44.3903 15.8181 45.1347L18.2844 47.5964L15.8181 50.058C15.0723 50.8005 15.0723 52.0057 15.8181 52.7501Z" fill="#87E06E"/>
</g>
</svg>
