<svg width="21" height="20" viewBox="0 0 21 20" fill="none" xmlns="http://www.w3.org/2000/svg">
<g opacity="0.3">
<path d="M14.1635 10.4983C14.1237 10.5581 14.1237 10.6178 14.1038 10.6975C14.0838 10.9565 14.283 11.1955 14.542 11.2155C14.801 11.2354 15.04 11.0362 15.06 10.7772C15.06 10.7174 15.06 10.6577 15.0799 10.5581C15.0799 10.4585 15.0799 10.3987 15.0799 10.3389C15.0799 9.76124 14.9803 9.20345 14.801 8.66559C14.5619 7.96836 14.1436 7.35081 13.6456 6.83287C13.028 6.21532 12.271 5.77706 11.4144 5.53801C11.016 5.4384 10.5778 5.37864 10.1594 5.37864C10.02 5.37864 9.88053 5.37864 9.72116 5.39856C9.58171 5.41848 9.44227 5.4384 9.30282 5.45832C9.04385 5.49817 8.86456 5.75714 8.92432 5.99619C8.96417 6.25516 9.22314 6.43445 9.46219 6.37469C9.58171 6.35476 9.68132 6.33484 9.80084 6.33484C9.82076 6.33484 9.84068 6.33484 9.86061 6.33484C9.96021 6.33484 10.0598 6.31492 10.1594 6.31492C11.2551 6.31492 12.271 6.75318 12.9882 7.49026C13.7053 8.20741 14.1436 9.18353 14.1635 10.2792V10.319C14.1635 10.3987 14.1635 10.4585 14.1635 10.4983Z" fill="white"/>
<path d="M16.7931 10.9366C16.7732 11.1955 16.9724 11.4346 17.2313 11.4545C17.4903 11.4744 17.7294 11.2752 17.7493 11.0163C17.7692 10.7971 17.7692 10.578 17.7692 10.3589C17.7692 9.92061 17.7294 9.50227 17.6696 9.08393C17.4106 7.49026 16.6337 6.05595 15.5381 4.9603C14.283 3.70529 12.6097 2.88853 10.757 2.74908C10.5578 2.72916 10.3387 2.72916 10.1395 2.72916C9.92037 2.72916 9.70124 2.72916 9.48211 2.74908C9.26298 2.769 9.04385 2.78893 8.82472 2.82877C8.56575 2.86861 8.38646 3.12758 8.44622 3.36663C8.48606 3.6256 8.74504 3.80489 8.98409 3.74513C9.12353 3.72521 9.24306 3.70529 9.3825 3.68537C9.44227 3.68537 9.50203 3.66544 9.56179 3.66544C9.761 3.64552 9.96021 3.64552 10.1395 3.64552C10.8168 3.64552 11.4543 3.74513 12.0718 3.92442C13.1476 4.24315 14.1038 4.82086 14.8807 5.59777C15.5181 6.23524 16.0361 7.01215 16.3747 7.84883C16.6736 8.60583 16.8528 9.4425 16.8528 10.319C16.8528 10.3788 16.8528 10.4585 16.8528 10.5182C16.813 10.6776 16.7931 10.7971 16.7931 10.9366Z" fill="white"/>
<path d="M17.4704 3.0479C15.5779 1.15541 12.9882 0 10.1196 0C9.82076 0 9.52195 0.0199209 9.22314 0.0398418C8.92432 0.0597627 8.62551 0.0996045 8.3267 0.159367C8.06773 0.199209 7.88844 0.458181 7.9482 0.697231C7.98804 0.956203 8.24701 1.13549 8.48606 1.07573C8.62551 1.05581 8.74504 1.03589 8.88448 1.01597C9.02393 0.996045 9.16337 0.976124 9.30282 0.976124C9.58171 0.956203 9.84068 0.936282 10.1196 0.936282C12.7093 0.936282 15.06 1.99209 16.7732 3.68537C18.4664 5.37864 19.5222 7.72931 19.5222 10.3389C19.5222 10.4784 19.5222 10.6378 19.5222 10.7772C19.5222 10.8967 19.5023 11.0163 19.5023 11.1557C19.4824 11.4147 19.6816 11.6537 19.9406 11.6736C20.1995 11.6936 20.4386 11.4944 20.4585 11.2354C20.4784 10.9366 20.4984 10.6378 20.4984 10.3589C20.4984 7.51018 19.343 4.92046 17.4704 3.0479Z" fill="white"/>
<path d="M19.7613 15.12L16.2353 13.2275C15.06 12.59 15.0201 13.0083 13.785 14.3231C13.4862 14.6419 12.9284 15.4785 12.271 15.3192C10.8965 14.9805 8.3267 12.9685 7.49002 12.0521C7.0916 11.6139 5.3784 9.52219 5.35848 8.84488C5.31864 7.80899 7.58962 7.29105 6.85255 5.31888L5.2788 1.79288C3.80465 -1.59367 -0.318972 3.82481 0.0196835 6.35476C0.896203 12.59 11.8328 22.67 17.9286 19.3432C19.2832 18.5862 21.1159 15.9367 19.7613 15.12Z" fill="white"/>
</g>
</svg>
