<svg width="70" height="70" viewBox="0 0 70 70" fill="none" xmlns="http://www.w3.org/2000/svg">
<path d="M8.13692 0H46.7276C48.9621 0 50.9998 0.91 52.4754 2.38C53.951 3.85 54.8645 5.88 54.8645 8.106V61.88C54.8645 64.12 53.951 66.15 52.4754 67.62C50.9998 69.09 48.9621 70 46.7276 70H8.13692C5.90243 70 3.86469 69.09 2.38908 67.62C0.913471 66.15 0 64.12 0 61.88V8.106C0 5.88 0.913471 3.85 2.38908 2.38C3.86469 0.91 5.90243 0 8.13692 0ZM66.4726 3.57H68.7071C69.0584 3.57 69.3816 3.71 69.6206 3.948C69.8595 4.172 70 4.508 70 4.858V14.014H67.4001V6.146H66.5007V35.42H66.4866C66.5007 36.708 66.2477 37.968 65.7559 39.144C65.264 40.306 64.5473 41.384 63.6338 42.294L63.4792 42.448C63.2263 42.7 62.903 42.826 62.5658 42.826C62.2425 42.826 61.9052 42.7 61.6523 42.448L61.4977 42.294C60.5842 41.384 59.8675 40.306 59.3756 39.144C58.8978 37.968 58.6449 36.708 58.6449 35.42V3.99C58.6449 2.912 59.0805 1.932 59.7972 1.218C60.4999 0.518 61.4836 0.07 62.5658 0.07C63.6479 0.07 64.6316 0.518 65.3483 1.218C65.9667 1.834 66.3742 2.66 66.4726 3.57ZM61.8069 38.234C62.0177 38.696 62.2706 39.144 62.5658 39.564C62.8749 39.144 63.1279 38.696 63.3246 38.234C63.5354 37.744 63.69 37.24 63.7884 36.708H61.3572C61.4415 37.24 61.5961 37.744 61.8069 38.234ZM61.2307 34.118H63.9008V6.146H61.2307V34.118ZM61.6242 3.052C61.4836 3.192 61.3712 3.374 61.3009 3.57H63.8306C63.7603 3.374 63.6479 3.192 63.5073 3.052C63.2684 2.814 62.9311 2.66 62.5658 2.66C62.2004 2.66 61.8631 2.814 61.6242 3.052ZM22.4714 15.876H32.3931C32.7585 15.876 33.0958 16.016 33.3347 16.268C33.5876 16.506 33.7422 16.842 33.7422 17.206C33.7422 17.584 33.5876 17.906 33.3487 18.158C33.0958 18.396 32.7585 18.55 32.3931 18.55H22.4714C22.106 18.55 21.7687 18.396 21.5158 18.158C21.2769 17.906 21.1223 17.584 21.1223 17.206C21.1223 16.842 21.2769 16.506 21.5158 16.268C21.7687 16.016 22.106 15.876 22.4714 15.876ZM9.57037 47.502H31.3953C31.7747 47.502 32.112 47.642 32.3509 47.894C32.5898 48.132 32.7444 48.468 32.7444 48.832C32.7444 49.21 32.5898 49.546 32.3509 49.784C32.112 50.022 31.7747 50.176 31.3953 50.176H9.57037C9.20498 50.176 8.8677 50.022 8.61474 49.784C8.37583 49.546 8.22124 49.21 8.22124 48.832C8.22124 48.468 8.37583 48.132 8.61474 47.894C8.8677 47.642 9.20498 47.502 9.57037 47.502ZM33.3909 21.798H45.2941C45.6595 21.798 45.9968 21.952 46.2357 22.19C46.4887 22.442 46.6292 22.764 46.6292 23.142C46.6292 23.506 46.4887 23.842 46.2357 24.08C45.9968 24.332 45.6595 24.472 45.2941 24.472H33.3909C33.0114 24.472 32.6742 24.332 32.4353 24.08C32.1963 23.842 32.0418 23.506 32.0418 23.142C32.0418 22.764 32.1963 22.442 32.4353 22.19C32.6742 21.952 33.0114 21.798 33.3909 21.798ZM18.5083 11.914H36.3562C36.7356 11.914 37.0729 12.068 37.3118 12.306C37.5507 12.558 37.7053 12.88 37.7053 13.258C37.7053 13.622 37.5507 13.958 37.3118 14.196C37.0729 14.448 36.7356 14.588 36.3562 14.588H18.5083C18.1289 14.588 17.7916 14.448 17.5527 14.196C17.3138 13.958 17.1592 13.622 17.1592 13.258C17.1592 12.88 17.3138 12.558 17.5527 12.306C17.7916 12.068 18.1289 11.914 18.5083 11.914ZM30.4116 55.412H44.2963C44.6617 55.412 44.999 55.552 45.252 55.804C45.4909 56.042 45.6455 56.378 45.6455 56.742C45.6455 57.106 45.4909 57.442 45.252 57.694C44.999 57.932 44.6617 58.086 44.2963 58.086H30.4116C30.0321 58.086 29.7089 57.932 29.4559 57.694C29.217 57.442 29.0624 57.106 29.0624 56.742C29.0624 56.378 29.217 56.042 29.4559 55.804C29.7089 55.552 30.0321 55.412 30.4116 55.412ZM18.5083 43.54H37.3539C37.7193 43.54 38.0566 43.694 38.3096 43.932C38.5485 44.184 38.7031 44.52 38.7031 44.884C38.7031 45.248 38.5485 45.584 38.3096 45.836C38.0566 46.074 37.7193 46.228 37.3539 46.228H18.5083C18.1289 46.228 17.7916 46.074 17.5527 45.836C17.3138 45.584 17.1592 45.248 17.1592 44.884C17.1592 44.52 17.3138 44.184 17.5527 43.932C17.7916 43.694 18.1289 43.54 18.5083 43.54ZM9.57037 43.54H14.5312C14.9107 43.54 15.2339 43.694 15.4868 43.932C15.7258 44.184 15.8803 44.52 15.8803 44.884C15.8803 45.248 15.7258 45.584 15.4868 45.836C15.2339 46.074 14.9107 46.228 14.5312 46.228H9.57037C9.20498 46.228 8.8677 46.074 8.61474 45.836C8.37583 45.584 8.22124 45.248 8.22124 44.884C8.22124 44.52 8.37583 44.184 8.62879 43.932C8.8677 43.694 9.20498 43.54 9.57037 43.54ZM41.317 43.54H45.2941C45.6595 43.54 45.9968 43.694 46.2357 43.932C46.4887 44.184 46.6292 44.52 46.6292 44.884C46.6292 45.248 46.4887 45.584 46.2357 45.836C45.9968 46.074 45.6595 46.228 45.2941 46.228H41.317C40.9516 46.228 40.6143 46.074 40.3754 45.836C40.1225 45.584 39.9819 45.248 39.9819 44.884C39.9819 44.52 40.1225 44.184 40.3754 43.932C40.6143 43.694 40.9516 43.54 41.317 43.54ZM9.57037 39.592H23.4692C23.8346 39.592 24.1719 39.746 24.4108 39.984C24.6497 40.222 24.8043 40.558 24.8043 40.936C24.8043 41.3 24.6497 41.636 24.4108 41.874C24.1719 42.112 23.8346 42.266 23.4692 42.266H9.57037C9.20498 42.266 8.8677 42.112 8.61474 41.874C8.37583 41.636 8.22124 41.3 8.22124 40.936C8.22124 40.558 8.37583 40.222 8.62879 39.984C8.8677 39.746 9.20498 39.592 9.57037 39.592ZM27.4322 39.592H45.2941C45.6595 39.592 45.9968 39.746 46.2357 39.984C46.4887 40.222 46.6292 40.558 46.6292 40.936C46.6292 41.3 46.4887 41.636 46.2357 41.874C45.9968 42.112 45.6595 42.266 45.2941 42.266H27.4322C27.0669 42.266 26.7296 42.112 26.4766 41.874C26.2377 41.636 26.0831 41.3 26.0831 40.936C26.0831 40.558 26.2377 40.222 26.4766 39.984C26.7296 39.746 27.0669 39.592 27.4322 39.592ZM39.3355 35.644H45.2941C45.6595 35.644 45.9968 35.784 46.2357 36.036C46.4887 36.274 46.6292 36.61 46.6292 36.974C46.6292 37.352 46.4887 37.674 46.2357 37.926C45.9968 38.164 45.6595 38.318 45.2941 38.318H39.3355C38.9701 38.318 38.6328 38.164 38.3939 37.926C38.1409 37.674 38.0004 37.338 38.0004 36.974C38.0004 36.61 38.1409 36.274 38.3939 36.036C38.6328 35.784 38.9701 35.644 39.3355 35.644ZM9.57037 35.644H35.3724C35.7378 35.644 36.0751 35.784 36.314 36.036C36.567 36.274 36.7075 36.61 36.7075 36.974C36.7075 37.338 36.567 37.674 36.314 37.926C36.0751 38.164 35.7378 38.318 35.3724 38.318H9.57037C9.20498 38.318 8.8677 38.164 8.62879 37.926C8.37583 37.674 8.22124 37.352 8.22124 36.974C8.22124 36.61 8.37583 36.274 8.61474 36.036C8.8677 35.784 9.20498 35.644 9.57037 35.644ZM9.57037 31.682H45.2941C45.6595 31.682 45.9968 31.836 46.2357 32.074C46.4887 32.312 46.6292 32.648 46.6292 33.026C46.6292 33.39 46.4887 33.726 46.2357 33.964C45.9968 34.216 45.6595 34.356 45.2941 34.356H9.57037C9.20498 34.356 8.8677 34.216 8.61474 33.964C8.37583 33.726 8.22124 33.39 8.22124 33.026C8.22124 32.648 8.37583 32.312 8.61474 32.074C8.8677 31.836 9.20498 31.682 9.57037 31.682ZM23.4692 27.734H45.2941C45.6595 27.734 45.9968 27.874 46.2357 28.126C46.4887 28.364 46.6292 28.7 46.6292 29.064C46.6292 29.442 46.4887 29.778 46.2357 30.016C45.9968 30.254 45.6595 30.408 45.2941 30.408H23.4692C23.0897 30.408 22.7525 30.254 22.5136 30.016C22.2746 29.778 22.1201 29.442 22.1201 29.064C22.1201 28.7 22.2746 28.364 22.5136 28.126C22.7525 27.874 23.0897 27.734 23.4692 27.734ZM13.5475 27.734H19.4921C19.8715 27.734 20.1947 27.874 20.4477 28.126C20.6866 28.364 20.8412 28.7 20.8412 29.064C20.8412 29.442 20.6866 29.778 20.4477 30.016C20.1947 30.254 19.8715 30.408 19.4921 30.408H13.5475C13.168 30.408 12.8308 30.254 12.5918 30.016C12.3529 29.778 12.1984 29.442 12.1984 29.064C12.1984 28.7 12.3529 28.364 12.5918 28.126C12.8308 27.874 13.168 27.734 13.5475 27.734ZM46.7276 2.702H8.13692C6.64726 2.702 5.28408 3.318 4.30034 4.298C3.3166 5.278 2.71231 6.622 2.71231 8.106V61.88C2.71231 63.378 3.3166 64.722 4.30034 65.702C5.28408 66.682 6.64726 67.298 8.13692 67.298H46.7276C48.2172 67.298 49.5664 66.682 50.5641 65.702C51.5479 64.722 52.1522 63.378 52.1522 61.88V8.106C52.1522 6.622 51.5479 5.278 50.5641 4.298C49.5664 3.318 48.2172 2.702 46.7276 2.702Z" fill="#7BC46A"/>
</svg>
