<svg width="17" height="20" viewBox="0 0 17 20" fill="none" xmlns="http://www.w3.org/2000/svg">
<path d="M15.6154 4.94799L11.5956 0.885313C11.1659 0.451276 10.5989 0.169018 9.89468 0.0389479V6.66667H16.4528C16.3239 5.95466 16.0446 5.38184 15.6154 4.94799Z" fill="#6EB03B"/>
<path d="M9.48249 8.33322C9.13876 8.33322 8.8467 8.21177 8.60627 7.96869C8.36574 7.72574 8.24561 7.43058 8.24561 7.08328V0H1.23679C0.893285 0 0.601224 0.12145 0.360744 0.364533C0.120218 0.607479 0 0.902644 0 1.24994V18.75C0 19.0974 0.120218 19.3926 0.360744 19.6356C0.601269 19.8784 0.893285 20 1.23684 20H15.2547C15.5982 20 15.89 19.8784 16.1305 19.6356C16.3709 19.3924 16.4912 19.0974 16.4912 18.75V8.33322H9.48249Z" fill="#6EB03B"/>
</svg>
