<svg width="75" height="75" viewBox="0 0 75 75" fill="none" xmlns="http://www.w3.org/2000/svg">
<path fill-rule="evenodd" clip-rule="evenodd" d="M34.2033 50.8895C34.7619 50.3303 34.7619 49.425 34.2033 48.8657C33.6446 48.3077 32.7393 48.3077 32.18 48.8657C31.6227 49.425 31.6227 50.3303 32.18 50.8895C32.7393 51.4469 33.6446 51.4469 34.2033 50.8895ZM18.0231 75C17.517 74.997 17.0126 74.8018 16.63 74.4162L0.573635 58.2378C0.190504 57.8512 -0.000584372 57.3464 1.34236e-06 56.8423C0.000587057 56.3372 0.192774 55.8328 0.576125 55.4481L7.3792 48.6256C7.95379 48.0506 8.63995 47.6462 9.37224 47.4192C9.99398 47.2265 10.6485 47.1621 11.2962 47.2298C12.9263 44.3604 15.1959 42.1385 17.8945 40.6083C20.7725 38.9763 24.1323 38.1335 27.7173 38.1335C28.9954 38.1335 30.2546 38.2572 31.4865 38.5032C32.6793 38.7413 33.8484 39.0953 34.9857 39.5634H50.8252C51.7727 39.5634 52.6884 39.7829 53.5151 40.1787C54.1741 40.4943 54.7744 40.9221 55.2866 41.4401L63.3082 33.1954C64.4266 31.9067 65.9637 31.1835 67.5481 31.0575C69.1357 30.9312 70.773 31.4056 72.0856 32.5119H72.0877C73.409 33.629 74.1532 35.1781 74.2879 36.7775C74.4225 38.3749 73.9482 40.0242 72.8333 41.3442C67.2133 48.0619 64.0378 51.8598 62.2408 54.0091L60.4999 56.0906C60.0083 56.678 59.8822 56.8235 59.8257 56.878C59.8291 56.8747 59.8288 56.8756 59.8257 56.878C58.565 58.1045 57.1046 59.0559 55.5198 59.6996C53.9335 60.3441 52.2237 60.6819 50.4672 60.6819H31.4566C30.9667 60.6819 30.4922 60.7748 30.0542 60.9517C29.6154 61.1289 29.2098 61.3915 28.8588 61.7303L27.6089 62.9364C27.8088 63.7009 27.8184 64.5041 27.6428 65.2695C27.4451 66.1308 27.0141 66.9441 26.3579 67.6003L26.3536 67.6024L19.421 74.4325C19.0332 74.8142 18.5274 75.0029 18.0231 75ZM30.8292 42.4078C29.8188 42.1975 28.779 42.0915 27.7173 42.0915C24.7585 42.0915 22.0968 42.7628 19.8637 44.0241C17.7447 45.221 16.0034 46.953 14.7532 49.1502L25.2854 59.6824L26.1134 58.8831C26.8325 58.1883 27.6678 57.6485 28.5745 57.2823C29.4814 56.916 30.4569 56.7238 31.4566 56.7238H50.4672C51.6985 56.7238 52.8941 56.4905 54.0011 56.0453C55.1 55.6034 56.1152 54.9523 56.995 54.1135L69.8063 38.798C70.2189 38.3098 70.3944 37.6995 70.3455 37.1082C70.2965 36.5168 70.0224 35.9451 69.536 35.5339L69.5369 35.5328C69.0518 35.1245 68.4419 34.9515 67.8493 35.0015C67.2596 35.0513 66.6888 35.3242 66.2777 35.8082C66.2358 35.8585 65.6699 36.44 62.5968 39.5983L57.0677 45.2812L57.079 45.4208C57.0889 45.5658 57.094 45.7035 57.094 45.8328C57.094 47.5611 56.3909 49.1286 55.2559 50.2636C54.1209 51.3986 52.5535 52.1017 50.8252 52.1017H39.1574C38.611 52.1017 38.116 51.8802 37.7579 51.522V51.5198C37.3999 51.1617 37.1783 50.6677 37.1783 50.1226C37.1783 49.5763 37.4 49.0814 37.7581 48.7233C38.1162 48.3652 38.6111 48.1436 39.1574 48.1436H50.8252C51.4621 48.1436 52.0399 47.8844 52.4583 47.466C52.8767 47.0475 53.136 46.4698 53.136 45.8328C53.136 45.1936 52.8752 44.6198 52.4594 44.2041C52.0369 43.7817 51.4553 43.5221 50.8252 43.5221H34.5857C34.454 43.5221 34.3184 43.5075 34.1818 43.4788C34.0491 43.4511 33.919 43.4094 33.7938 43.3547C32.8351 42.9353 31.8444 42.6191 30.8292 42.4078ZM10.6989 51.1665C10.5093 51.188 10.3259 51.2741 10.1795 51.4206L10.1784 51.4195L4.7664 56.8473L18.0492 70.2319L23.5689 64.794C23.7337 64.6281 23.8196 64.4015 23.8188 64.1718C23.818 63.9512 23.734 63.7272 23.5598 63.5526C18.389 58.3891 15.4138 55.408 13.6887 53.6794C12.8321 52.821 12.2838 52.2717 11.9285 51.9178C11.3454 51.3372 11.3387 51.3333 11.3207 51.3231H11.3186L11.2763 51.2986L11.2741 51.2965C11.0956 51.1864 10.8933 51.1445 10.6989 51.1665Z" fill="#87E06E"/>
<path fill-rule="evenodd" clip-rule="evenodd" d="M52.9441 9.22999L60.5851 16.9035C60.9195 17.2421 61.0785 17.6849 61.0785 18.1195C61.0785 18.568 60.9068 19.0177 60.5822 19.3429L60.556 19.3693L60.5251 19.3944C60.362 19.527 60.1795 19.6325 59.9774 19.7055C59.7793 19.7769 59.5728 19.8152 59.359 19.8152C59.1271 19.8152 58.9107 19.7768 58.7118 19.7051C58.4858 19.6234 58.2933 19.5006 58.1357 19.3429L43.0895 4.15586L28.0103 19.1991C27.9819 19.2276 27.951 19.2563 27.918 19.2848C27.5977 19.5628 27.1968 19.7102 26.798 19.7133C26.3809 19.7168 25.9688 19.5651 25.6481 19.2448L25.6466 19.2462L25.6001 19.1953L25.5536 19.1507C25.2363 18.833 25.0857 18.4233 25.0887 18.0083C25.0917 17.6096 25.2379 17.2082 25.5147 16.8875C25.5559 16.8397 25.5851 16.8073 25.6028 16.7897L41.8692 0.52334H41.8721C42.0371 0.359852 42.2222 0.230264 42.4276 0.14043C42.6372 0.0486924 42.8591 0 43.0925 0C43.3148 0 43.5363 0.0505176 43.7476 0.147966C43.9373 0.23553 44.1173 0.362705 44.2795 0.526192L49.5073 5.78488V4.1522C49.5073 3.67763 49.6932 3.25313 49.9919 2.9441C50.3024 2.62312 50.7306 2.42794 51.1986 2.42794C51.6766 2.42794 52.1124 2.61727 52.4301 2.92828C52.748 3.23951 52.9441 3.66958 52.9441 4.1522V9.22999ZM53.4285 19.274C53.7425 18.9597 54.1739 18.7694 54.6546 18.7694C55.1231 18.7694 55.5515 18.9647 55.8614 19.2865C56.1598 19.5965 56.3456 20.0216 56.3456 20.4975V32.2342C56.3456 32.6965 56.1545 33.1196 55.8482 33.4267C55.5406 33.735 55.1173 33.9275 54.6546 33.9275H45.6437C45.1685 33.9275 44.7433 33.7411 44.4337 33.442C44.1121 33.1315 43.9163 32.7024 43.9163 32.2342V27.4117H42.2324V32.2342C42.2324 32.6965 42.0413 33.1197 41.7349 33.4267C41.4273 33.735 41.0041 33.9275 40.5413 33.9275H31.4941C31.0313 33.9275 30.6081 33.735 30.3006 33.4267C29.9942 33.1196 29.8031 32.6965 29.8031 32.2342V20.949C29.8031 20.4868 29.9942 20.0637 30.3006 19.7566C30.6081 19.4483 31.0313 19.2557 31.4941 19.2557C31.9693 19.2557 32.3946 19.4422 32.704 19.7412C33.0257 20.0517 33.2214 20.4808 33.2214 20.949V30.5062H38.7959V25.6837C38.7959 25.217 38.9974 24.7826 39.3231 24.4687C39.6366 24.1666 40.0666 23.9749 40.5413 23.9749H45.6437C46.1084 23.9749 46.5312 24.173 46.8373 24.4846C47.1437 24.7966 47.3351 25.2252 47.3351 25.6837V30.509L52.9273 30.5091V20.4975C52.9273 20.0156 53.1169 19.5859 53.4285 19.274Z" fill="#87E06E"/>
</svg>
