<svg width="74" height="75" viewBox="0 0 74 75" fill="none" xmlns="http://www.w3.org/2000/svg">
<path fill-rule="evenodd" clip-rule="evenodd" d="M34.0375 51.0064C34.5934 50.4498 34.5934 49.5489 34.0375 48.9924C33.4815 48.4371 32.5806 48.4371 32.0241 48.9924C31.4694 49.5489 31.4694 50.4498 32.0241 51.0064C32.5806 51.5611 33.4815 51.5611 34.0375 51.0064ZM17.9357 75C17.4321 74.997 16.9301 74.8028 16.5494 74.419L0.570854 58.319C0.189581 57.9343 -0.00058154 57.432 1.33586e-06 56.9303C0.000584211 56.4277 0.19184 55.9257 0.573332 55.5429L7.34343 48.7534C7.91523 48.1813 8.59807 47.7788 9.32681 47.5529C9.94553 47.3612 10.5969 47.2971 11.2414 47.3645C12.8636 44.5089 15.1223 42.2977 17.8078 40.775C20.6718 39.1509 24.0153 38.3122 27.5829 38.3122C28.8548 38.3122 30.1079 38.4353 31.3339 38.6801C32.5209 38.9171 33.6843 39.2693 34.8161 39.7352H50.5788C51.5217 39.7352 52.433 39.9536 53.2557 40.3475C53.9115 40.6616 54.5089 41.0873 55.0186 41.6027L63.0013 33.398C64.1143 32.1156 65.644 31.3959 67.2207 31.2705C68.8006 31.1449 70.4299 31.6169 71.7362 32.7178H71.7383C73.0532 33.8296 73.7937 35.3711 73.9278 36.9628C74.0617 38.5524 73.5898 40.1937 72.4803 41.5074C66.8874 48.1925 63.7274 51.9719 61.939 54.1108L60.2067 56.1823C59.7174 56.7668 59.592 56.9116 59.5357 56.9658C59.5391 56.9625 59.5388 56.9635 59.5357 56.9658C58.2811 58.1864 56.8277 59.1332 55.2507 59.7738C53.6721 60.4151 51.9706 60.7513 50.2226 60.7513H31.3041C30.8166 60.7513 30.3444 60.8437 29.9085 61.0198C29.4719 61.1962 29.0682 61.4574 28.7189 61.7946L27.4751 62.9949C27.674 63.7556 27.6835 64.555 27.5088 65.3167C27.312 66.1738 26.8832 66.9831 26.2301 67.6361L26.2258 67.6383L19.3268 74.4352C18.9409 74.8151 18.4376 75.0029 17.9357 75ZM30.6797 42.5658C29.6743 42.3565 28.6395 42.251 27.5829 42.251C24.6385 42.251 21.9896 42.9191 19.7674 44.1742C17.6587 45.3653 15.9258 47.089 14.6817 49.2755L25.1628 59.7566L25.9868 58.9613C26.7025 58.2698 27.5337 57.7327 28.436 57.3682C29.3385 57.0037 30.3092 56.8124 31.3041 56.8124H50.2226C51.4479 56.8124 52.6377 56.5802 53.7394 56.1372C54.8329 55.6974 55.8432 55.0495 56.7187 54.2147L69.4679 38.9734C69.8785 38.4876 70.0532 37.8803 70.0045 37.2919C69.9558 36.7034 69.683 36.1344 69.1989 35.7252L69.1998 35.7241C68.717 35.3178 68.1102 35.1456 67.5204 35.1954C66.9336 35.2449 66.3655 35.5166 65.9564 35.9982C65.9147 36.0482 65.3516 36.6269 62.2934 39.7699L56.791 45.4252L56.8023 45.5642C56.8121 45.7085 56.8173 45.8455 56.8173 45.9742C56.8173 47.6941 56.1176 49.254 54.988 50.3835C53.8586 51.513 52.2987 52.2127 50.5788 52.2127H38.9676C38.4238 52.2127 37.9313 51.9923 37.5749 51.6358V51.6337C37.2186 51.2773 36.9981 50.7856 36.9981 50.2432C36.9981 49.6995 37.2187 49.2071 37.5751 48.8507C37.9314 48.4944 38.4239 48.2738 38.9676 48.2738H50.5788C51.2127 48.2738 51.7876 48.0158 52.204 47.5994C52.6204 47.183 52.8784 46.6081 52.8784 45.9742C52.8784 45.3381 52.6189 44.7671 52.2051 44.3534C51.7847 43.933 51.2058 43.6747 50.5788 43.6747H34.4181C34.287 43.6747 34.1521 43.6601 34.0161 43.6316C33.8841 43.604 33.7546 43.5626 33.63 43.5081C32.6759 43.0907 31.69 42.7761 30.6797 42.5658ZM10.647 51.282C10.4584 51.3035 10.2759 51.3891 10.1302 51.5349L10.1291 51.5338L4.7433 56.9353L17.9617 70.255L23.4547 64.8434C23.6186 64.6784 23.7042 64.4528 23.7034 64.2243C23.7026 64.0048 23.619 63.7818 23.4456 63.6081C18.2998 58.4696 15.3391 55.503 13.6224 53.7828C12.7699 52.9285 12.2243 52.3819 11.8707 52.0297C11.2904 51.4519 11.2837 51.448 11.2658 51.4379H11.2637L11.2216 51.4135L11.2194 51.4114C11.0419 51.3018 10.8405 51.2601 10.647 51.282Z" fill="#87E06E"/>
<path d="M28.2936 14.9526C28.0405 14.9526 27.7852 14.94 27.5284 14.9148C27.3963 14.9019 27.2727 14.8867 27.1574 14.8693C27.0419 14.8519 26.9217 14.8302 26.797 14.8045C26.6731 14.779 26.5544 14.751 26.4411 14.721C26.3214 14.6893 26.2075 14.6554 26.0996 14.6198C25.9941 14.5849 25.8832 14.5443 25.7678 14.4983C25.6549 14.4533 25.5471 14.4065 25.4446 14.3582C25.3457 14.3115 25.2443 14.2603 25.1412 14.2051C25.0385 14.1503 24.9399 14.0942 24.8453 14.037C24.756 13.9832 24.6624 13.9231 24.5649 13.8568C24.4722 13.7942 24.3812 13.7285 24.2917 13.6601C24.2039 13.5931 24.1176 13.5233 24.0335 13.4514C23.9492 13.3792 23.8671 13.3049 23.7877 13.2291L23.7869 13.2284C23.706 13.1506 23.6277 13.0713 23.5523 12.9908C23.4752 12.9084 23.4019 12.8259 23.333 12.7436C23.2663 12.6639 23.1979 12.5775 23.1281 12.4845C23.0611 12.3951 22.9965 12.3045 22.9348 12.2128C22.8752 12.1249 22.8154 12.0307 22.7555 11.9311C22.6992 11.8373 22.6436 11.7393 22.5892 11.6374C22.5338 11.5338 22.4825 11.4323 22.4358 11.3336C22.3869 11.2303 22.341 11.1269 22.2983 11.0238C22.2571 10.9245 22.2156 10.8173 22.1744 10.7026C22.1342 10.5911 22.097 10.4802 22.063 10.3702C22.0283 10.2579 21.9958 10.1452 21.966 10.0324C21.9371 9.92316 21.9091 9.80798 21.8821 9.68696C21.8562 9.57075 21.8323 9.453 21.8106 9.33402C21.7881 9.21155 21.7687 9.09344 21.7527 8.98036C21.7362 8.86393 21.721 8.74218 21.7077 8.61526C21.6946 8.49053 21.6838 8.36761 21.6755 8.24696C21.6673 8.12805 21.6607 8.00237 21.6563 7.87027C21.6516 7.73308 21.6492 7.60769 21.6492 7.4941C21.6492 7.38044 21.6516 7.25498 21.6563 7.11793C21.6607 6.98576 21.6672 6.86015 21.6755 6.74117C21.6838 6.62052 21.6946 6.49761 21.7077 6.37287C21.721 6.24595 21.7362 6.1242 21.7527 6.00777C21.7687 5.89476 21.7881 5.77666 21.8105 5.65426C21.8323 5.53521 21.8563 5.41739 21.8821 5.30118C21.9091 5.18016 21.9371 5.06497 21.966 4.95575C21.9958 4.84304 22.0283 4.73033 22.063 4.61805C22.097 4.50804 22.1342 4.39714 22.1744 4.28559C22.2156 4.17091 22.2571 4.06373 22.2983 3.96435C22.341 3.86133 22.3869 3.75787 22.4358 3.65463C22.4825 3.5559 22.5338 3.45441 22.5892 3.3508C22.6436 3.24895 22.6992 3.15088 22.7555 3.05711C22.8154 2.95751 22.8752 2.8633 22.9345 2.77521C22.9965 2.6837 23.0611 2.59307 23.1281 2.50374C23.1979 2.4107 23.2663 2.32429 23.333 2.24458C23.4027 2.16123 23.476 2.07854 23.5522 1.99693C23.6272 1.91657 23.7047 1.83788 23.7845 1.76116C23.8628 1.68575 23.9441 1.6118 24.028 1.53945C24.1114 1.46747 24.1971 1.39745 24.2849 1.32969C24.3718 1.26251 24.4611 1.19722 24.5522 1.13442C24.644 1.0711 24.7366 1.01056 24.8299 0.953366C24.9171 0.899377 25.0137 0.843788 25.1188 0.786593C25.2157 0.733989 25.3165 0.682403 25.4209 0.632421C25.5273 0.581347 25.634 0.534275 25.7403 0.491434C25.8453 0.449176 25.9561 0.408599 26.0723 0.370056C26.1891 0.331368 26.3042 0.296833 26.4169 0.266815C26.5305 0.236578 26.6486 0.208816 26.7711 0.183752C26.8959 0.158179 27.0178 0.136467 27.1366 0.118762C27.254 0.101349 27.3796 0.0860468 27.5129 0.0732964C27.643 0.0608374 27.7726 0.051438 27.9013 0.0453906C28.0385 0.0389061 28.1695 0.0355574 28.2936 0.0355574C28.4145 0.0355574 28.5422 0.0389061 28.6764 0.0453906C28.8023 0.051438 28.9294 0.0608374 29.057 0.0732964C29.1897 0.0862653 29.3135 0.101495 29.4283 0.118762C29.5436 0.136249 29.6641 0.157887 29.7892 0.183752C29.913 0.209326 30.0319 0.237302 30.1452 0.26732C30.2649 0.299087 30.3791 0.332971 30.4871 0.368526C30.5928 0.403426 30.7036 0.443935 30.8191 0.489983C30.932 0.534937 31.0399 0.581711 31.1425 0.630016C31.2463 0.679197 31.3483 0.730414 31.448 0.783747C31.554 0.840432 31.652 0.896024 31.7414 0.950086C31.8352 1.00684 31.9292 1.06732 32.023 1.13129C32.1147 1.19373 32.2054 1.25916 32.2947 1.32735C32.3816 1.39373 32.4674 1.46324 32.5516 1.53537C32.6358 1.6075 32.7183 1.68225 32.7988 1.75912C32.8789 1.8354 32.957 1.91416 33.0326 1.99489C33.1101 2.07752 33.184 2.16086 33.2541 2.24458C33.3207 2.32414 33.389 2.41049 33.4587 2.50331C33.5287 2.59664 33.5933 2.6872 33.6522 2.77463C33.714 2.86709 33.7738 2.96093 33.8312 3.0566C33.8874 3.15015 33.9429 3.24808 33.9972 3.34972C34.0525 3.45325 34.1037 3.55452 34.1504 3.65303C34.1993 3.75649 34.2453 3.86002 34.2881 3.96304C34.3306 4.06658 34.3723 4.17397 34.4125 4.28552C34.4526 4.39692 34.49 4.50789 34.5241 4.61805C34.5588 4.72997 34.5912 4.84246 34.6211 4.95517C34.6501 5.0641 34.6781 5.17907 34.7051 5.29994C34.7314 5.41834 34.7555 5.53601 34.7768 5.65251C34.7991 5.77498 34.8185 5.89302 34.8345 6.0061C34.8511 6.12223 34.8661 6.24398 34.8794 6.37069C34.8926 6.49564 34.9034 6.61877 34.9118 6.73986C34.9199 6.85877 34.9264 6.9846 34.9309 7.11669C34.9356 7.25425 34.938 7.38008 34.938 7.4941C34.938 7.74299 34.9292 7.99435 34.9117 8.24696C34.9034 8.36761 34.8926 8.4906 34.8795 8.61534C34.8661 8.74233 34.851 8.86422 34.8345 8.98043C34.8186 9.09125 34.7993 9.20922 34.7766 9.33366C34.7553 9.45089 34.7314 9.56856 34.705 9.68703C34.6781 9.80776 34.6501 9.92294 34.6213 10.0317C34.5913 10.1447 34.5588 10.2577 34.5241 10.3702C34.4901 10.4801 34.4529 10.5909 34.4128 10.7024C34.3715 10.8172 34.3301 10.9243 34.2889 11.0238C34.2462 11.1268 34.2002 11.2301 34.1514 11.3334C34.1046 11.4322 34.0534 11.5336 33.998 11.6373C33.9435 11.7391 33.888 11.8372 33.8316 11.931C33.7741 12.0268 33.7143 12.1207 33.6525 12.2125C33.5908 12.3043 33.5261 12.3952 33.4588 12.4848C33.3891 12.5777 33.3207 12.6641 33.2541 12.7436C33.1843 12.8269 33.1108 12.91 33.0335 12.9924C32.9534 13.0773 32.8753 13.1566 32.7995 13.229C32.7186 13.3061 32.6357 13.3809 32.5513 13.4531C32.4673 13.5249 32.3819 13.594 32.2955 13.6601C32.2062 13.7282 32.1156 13.7937 32.024 13.8561C31.9301 13.9201 31.8359 13.9807 31.7421 14.0375C31.6461 14.0947 31.5471 14.151 31.4447 14.2058C31.3419 14.2608 31.2411 14.3118 31.1425 14.3582C31.0401 14.4065 30.9323 14.4533 30.8194 14.4983C30.7039 14.5443 30.5931 14.5849 30.4876 14.6198C30.3798 14.6553 30.2658 14.6891 30.1461 14.721C30.0328 14.751 29.914 14.779 29.7902 14.8045C29.6654 14.8302 29.545 14.852 29.4296 14.8694C29.3151 14.8866 29.1914 14.9018 29.0588 14.9148C28.9312 14.9272 28.8042 14.9367 28.6782 14.9427C28.5435 14.9492 28.415 14.9526 28.2936 14.9526ZM45.6564 32.3494C45.5323 32.3494 45.4013 32.3461 45.2641 32.3396C45.1354 32.3336 45.0059 32.3242 44.8757 32.3117C44.7425 32.299 44.6169 32.2836 44.4994 32.2662C44.3807 32.2485 44.2588 32.2268 44.134 32.2012C44.0113 32.1762 43.8929 32.1483 43.7791 32.1181C43.6666 32.0882 43.5517 32.0537 43.4352 32.015C43.3256 31.9795 43.2149 31.9387 43.1031 31.8936C42.9966 31.8508 42.89 31.8037 42.7836 31.7526C42.6791 31.7025 42.5781 31.6509 42.4811 31.5982C42.3803 31.5434 42.2841 31.4879 42.193 31.4319C42.0996 31.3745 42.0065 31.3138 41.9145 31.2504C41.8235 31.1876 41.7344 31.1225 41.6475 31.0554C41.5599 30.9876 41.4742 30.9177 41.3909 30.8458C41.3069 30.7733 41.2255 30.6992 41.1471 30.6238C41.0672 30.547 40.9896 30.4682 40.9146 30.3878C40.8385 30.3062 40.7654 30.2237 40.6958 30.1405C40.6292 30.061 40.5608 29.9744 40.491 29.8815C40.421 29.7882 40.3564 29.6977 40.2976 29.6104C40.2358 29.5179 40.176 29.4238 40.1185 29.3281C40.0623 29.2346 40.0069 29.1369 39.9526 29.0353C39.8972 28.9316 39.8461 28.8303 39.7993 28.7316C39.7504 28.6283 39.7044 28.5249 39.6617 28.4218C39.6205 28.3224 39.5789 28.2148 39.5375 28.0998C39.4972 27.9883 39.4599 27.8772 39.4258 27.767C39.391 27.6549 39.3585 27.5422 39.3286 27.4294C39.2997 27.3205 39.2716 27.2056 39.2448 27.0851C39.2184 26.9668 39.1944 26.8494 39.1732 26.733C39.1509 26.6104 39.1315 26.4923 39.1154 26.3791C39.0989 26.263 39.0838 26.1412 39.0705 26.0145C39.0574 25.8895 39.0465 25.7662 39.0382 25.6452C39.03 25.5263 39.0235 25.4005 39.0191 25.2684C39.0143 25.1308 39.0119 25.005 39.0119 24.891C39.0119 24.7774 39.0143 24.652 39.0191 24.5148C39.0235 24.3827 39.0301 24.257 39.0382 24.138C39.0465 24.0174 39.0573 23.8945 39.0704 23.7697C39.0838 23.6427 39.0989 23.5208 39.1155 23.4046C39.1315 23.2916 39.1509 23.1736 39.1732 23.0511C39.195 22.9321 39.2191 22.8143 39.2449 22.6981C39.2717 22.577 39.2999 22.4618 39.3288 22.3526C39.3586 22.2399 39.3912 22.1271 39.4258 22.015C39.4596 21.9055 39.4967 21.795 39.5367 21.6841C39.5767 21.5728 39.6183 21.4654 39.6609 21.3625C39.7036 21.2587 39.7496 21.1554 39.7985 21.0521C39.8453 20.9533 39.8964 20.8519 39.952 20.748C40.0063 20.6462 40.0618 20.5483 40.1182 20.4545C40.1782 20.3545 40.2382 20.2601 40.2976 20.1718C40.3596 20.0804 40.4243 19.9895 40.4914 19.9C40.561 19.8072 40.6293 19.7209 40.6958 19.6414C40.7654 19.5582 40.8383 19.4758 40.9144 19.3942C40.9895 19.3138 41.0671 19.2351 41.1469 19.1583C41.2253 19.0829 41.3066 19.0088 41.3906 18.9365C41.4739 18.8646 41.5596 18.7946 41.6475 18.7268C41.7345 18.6595 41.8239 18.5942 41.915 18.5313C42.0068 18.468 42.0996 18.4074 42.1928 18.3502C42.2856 18.2933 42.381 18.2381 42.4787 18.185C42.576 18.132 42.6778 18.08 42.7836 18.0292C42.8899 17.9783 42.9964 17.9312 43.1027 17.8884C43.2078 17.8461 43.3187 17.8055 43.435 17.7669C43.5517 17.7283 43.6666 17.6938 43.7791 17.6638C43.8929 17.6336 44.0113 17.6058 44.134 17.5806C44.2589 17.555 44.3812 17.5333 44.5001 17.5156C44.6174 17.4982 44.7427 17.4829 44.8757 17.4702C45.0057 17.4578 45.1353 17.4483 45.2639 17.4423C45.4011 17.4358 45.5322 17.4324 45.6564 17.4324C45.7774 17.4324 45.9052 17.4358 46.0393 17.4423C46.1652 17.4483 46.2922 17.4578 46.4197 17.4702C46.5524 17.4831 46.6761 17.4984 46.791 17.5157C46.9065 17.5331 47.027 17.5548 47.152 17.5806C47.2758 17.6062 47.3946 17.6342 47.5079 17.6642C47.6278 17.696 47.742 17.7298 47.85 17.7654C47.9556 17.8002 48.0665 17.8408 48.182 17.8868C48.2949 17.9318 48.4029 17.9786 48.5053 18.0268C48.6057 18.0741 48.7078 18.1255 48.8109 18.1807C48.917 18.2374 49.0149 18.293 49.1043 18.347C49.2046 18.4084 49.2988 18.4688 49.3864 18.5285C49.478 18.5909 49.5685 18.6565 49.6576 18.7244C49.7457 18.7916 49.832 18.8616 49.9163 18.9336C50.0007 19.0057 50.0828 19.08 50.1622 19.1559L50.1629 19.1566C50.2393 19.23 50.3177 19.3095 50.3974 19.3947C50.475 19.4767 50.5482 19.5593 50.6169 19.6414C50.6832 19.7207 50.7513 19.8069 50.8208 19.8995C50.8882 19.9893 50.953 20.0803 51.0149 20.1722C51.0767 20.2642 51.1367 20.3582 51.1942 20.4541C51.2504 20.5476 51.3058 20.6454 51.36 20.7469C51.4155 20.8508 51.4667 20.9523 51.5136 21.0512C51.5625 21.1544 51.6085 21.2578 51.6511 21.3609C51.6924 21.4604 51.7339 21.5678 51.7754 21.6829C51.8155 21.7941 51.8528 21.905 51.8869 22.015C51.9216 22.127 51.9541 22.2398 51.984 22.3526C52.013 22.4615 52.041 22.5762 52.0678 22.6968C52.0942 22.8151 52.1182 22.9326 52.1394 23.0489C52.162 23.174 52.1814 23.292 52.1972 23.4028C52.2138 23.519 52.2289 23.6406 52.2422 23.7673C52.2553 23.8923 52.2662 24.0156 52.2745 24.1364C52.2827 24.2554 52.2892 24.381 52.2936 24.5132C52.2984 24.6509 52.3008 24.7769 52.3008 24.891C52.3008 25.1399 52.292 25.3912 52.2745 25.6438C52.2662 25.7645 52.2554 25.8875 52.2423 26.0122C52.2289 26.1392 52.2138 26.2611 52.1972 26.3773C52.1811 26.4904 52.1618 26.6085 52.1394 26.7312C52.1181 26.8477 52.0941 26.9654 52.0678 27.084C52.0409 27.2047 52.0129 27.3198 51.984 27.4287C51.9541 27.5417 51.9216 27.6546 51.8869 27.767C51.8528 27.8772 51.8156 27.9881 51.7754 28.0997C51.7341 28.2145 51.6927 28.3216 51.6515 28.4211C51.6088 28.5241 51.5628 28.6276 51.5139 28.731C51.4672 28.8295 51.416 28.9307 51.3607 29.0343C51.3064 29.1361 51.2509 29.234 51.1945 29.3277C51.1371 29.4235 51.0772 29.5174 51.0154 29.6092C50.9537 29.7011 50.889 29.7919 50.8218 29.8813C50.752 29.9744 50.6837 30.0608 50.6169 30.1405C50.548 30.2228 50.4748 30.3054 50.3975 30.3879C50.3218 30.4685 50.2431 30.5479 50.162 30.6255C50.0826 30.7017 50.0009 30.7758 49.9173 30.8475C49.8326 30.9199 49.746 30.99 49.6576 31.0576C49.5684 31.1257 49.4779 31.1911 49.3863 31.2534C49.2924 31.3174 49.1983 31.378 49.1046 31.4347C49.0152 31.4888 48.9173 31.5444 48.8113 31.601C48.7081 31.6563 48.6059 31.7076 48.5053 31.7551C48.4026 31.8034 48.2947 31.8502 48.1816 31.8952C48.0663 31.9411 47.9556 31.9817 47.85 32.0165C47.7419 32.052 47.6276 32.0859 47.5075 32.1178C47.3943 32.1478 47.2757 32.1757 47.152 32.2012C47.0269 32.227 46.9063 32.2488 46.7908 32.2662C46.6754 32.2836 46.5521 32.2989 46.4211 32.3117C46.2926 32.3242 46.1655 32.3336 46.0397 32.3396C45.9054 32.3461 45.7774 32.3494 45.6564 32.3494ZM31.6556 30.8748C31.6255 30.9308 31.5918 30.988 31.555 31.0458C31.5197 31.1013 31.4823 31.1551 31.4435 31.2068C31.4025 31.2615 31.3621 31.3111 31.3226 31.3555C31.284 31.3988 31.2399 31.444 31.1905 31.4908C31.143 31.5368 31.0944 31.579 31.0455 31.6175C30.9978 31.655 30.9456 31.6919 30.8895 31.7278C30.8351 31.763 30.78 31.7945 30.7243 31.8229C30.6697 31.8507 30.6122 31.8765 30.5521 31.9C30.5 31.9204 30.444 31.9398 30.3843 31.9578C30.3277 31.975 30.2701 31.99 30.2123 32.0028C30.1519 32.016 30.0931 32.0269 30.0367 32.0348C29.9784 32.0429 29.9191 32.0488 29.8597 32.0525C29.8037 32.0559 29.7448 32.0571 29.6836 32.0563C29.6185 32.0555 29.5596 32.0527 29.507 32.0481C29.4535 32.0434 29.3943 32.0358 29.3303 32.0255C29.2681 32.0155 29.2075 32.0036 29.1492 31.9902L29.0824 31.9714C29.0174 31.9484 28.9514 31.9212 28.8848 31.8901C28.8186 31.8592 28.756 31.8264 28.6974 31.7918C28.6352 31.7549 28.5769 31.7167 28.5226 31.677C28.4687 31.6376 28.415 31.5937 28.3616 31.5456C28.3125 31.5019 28.2636 31.4527 28.215 31.3989C28.1667 31.3455 28.1221 31.2912 28.0817 31.2363C28.0413 31.1812 28.0024 31.1224 27.9653 31.0606C27.9299 31.0015 27.8961 30.9387 27.8642 30.8724C27.8322 30.8069 27.8042 30.7425 27.7801 30.6797C27.7559 30.616 27.734 30.5502 27.715 30.4828C27.6969 30.419 27.6815 30.3527 27.6688 30.2841C27.6566 30.2183 27.6473 30.1507 27.6411 30.0818C27.6351 30.0131 27.632 29.9454 27.6322 29.8783C27.6325 29.8094 27.6358 29.7411 27.6423 29.6743C27.6491 29.6039 27.6589 29.5356 27.6714 29.4698C27.6846 29.4 27.7005 29.3325 27.7189 29.2682L27.7316 29.2237L27.7487 29.1897C29.672 25.3533 31.7795 21.4736 33.893 17.5832L33.896 17.5777C35.3922 14.8234 36.8916 12.0634 38.3232 9.32397C39.757 6.58045 41.1291 3.84632 42.3742 1.13734L42.3894 1.10579C42.4202 1.05289 42.4545 0.999197 42.4914 0.945354C42.5268 0.89377 42.5645 0.843205 42.604 0.794171C42.6408 0.748342 42.6817 0.70164 42.7264 0.6545C42.7697 0.608015 42.8136 0.565314 42.8576 0.526042C42.9014 0.48699 42.9493 0.448085 43.0008 0.409688C43.0508 0.372602 43.1018 0.337998 43.1536 0.306304C43.2082 0.272862 43.2615 0.243061 43.313 0.217414C43.3691 0.189873 43.4258 0.164733 43.4834 0.142292C43.5407 0.119924 43.599 0.0999649 43.658 0.0826244C43.7181 0.0649195 43.7774 0.0501999 43.8353 0.0386881C43.8923 0.0274678 43.9523 0.0183589 44.015 0.0117287C44.0741 0.00560852 44.1354 0.00167382 44.1993 0.000508074C44.2628 -0.000803396 44.3239 0.000436922 44.382 0.00407989C44.4442 0.00794144 44.5047 0.0142808 44.5635 0.0228782C44.6222 0.0314027 44.6829 0.0429126 44.7452 0.0572659C44.8045 0.0708177 44.8658 0.0873588 44.9287 0.106667C44.9419 0.110528 44.953 0.11519 44.9663 0.120363C45.0279 0.143678 45.0895 0.170415 45.1506 0.199996C45.2096 0.228484 45.2675 0.25982 45.324 0.293554C45.3786 0.326122 45.4331 0.362261 45.4872 0.401605C45.5385 0.43818 45.5895 0.479127 45.6404 0.523645C45.6904 0.56736 45.7377 0.612455 45.782 0.658648C45.8271 0.705788 45.8705 0.755187 45.9114 0.806188C45.9516 0.856316 45.9908 0.909653 46.0286 0.965974C46.0654 1.02084 46.1006 1.07789 46.1336 1.1369C46.1694 1.19985 46.2011 1.26389 46.229 1.32852C46.2562 1.39154 46.2807 1.45806 46.3022 1.5275C46.3232 1.59577 46.3403 1.66368 46.3532 1.731C46.3663 1.80102 46.3757 1.86994 46.3808 1.93784C46.3854 1.99963 46.3866 2.06483 46.3846 2.13288C46.3826 2.19904 46.3772 2.26498 46.3686 2.33048C46.3602 2.39343 46.3491 2.45522 46.3354 2.51518C46.3233 2.56808 46.3085 2.6225 46.2912 2.67795C46.2864 2.72334 46.2783 2.76902 46.267 2.81463C46.2541 2.8668 46.2373 2.91671 46.2171 2.96385C46.1974 3.00917 46.1731 3.055 46.1444 3.10076C46.12 3.13973 46.0939 3.17616 46.0664 3.20982L31.6556 30.8748ZM28.2936 11.0907C28.5255 11.0907 28.7385 11.0718 28.9318 11.034C29.0268 11.0155 29.1179 10.9923 29.205 10.9647C29.2902 10.9383 29.3712 10.9067 29.448 10.8708C29.5202 10.837 29.591 10.7977 29.6598 10.7533C29.7272 10.7098 29.7906 10.6623 29.8498 10.6114C29.9089 10.5604 29.9661 10.5036 30.0208 10.4416C30.0762 10.3786 30.127 10.313 30.1728 10.2449C30.2233 10.1697 30.2717 10.0886 30.3175 10.0023C30.3629 9.9166 30.4057 9.82531 30.4457 9.72892C30.4871 9.62903 30.5242 9.52761 30.5567 9.42517C30.589 9.32338 30.6195 9.21242 30.6478 9.09235C30.677 8.96907 30.7021 8.84382 30.7229 8.71726C30.7444 8.58677 30.7624 8.45191 30.7766 8.31312C30.7908 8.17381 30.8016 8.02867 30.8087 7.87843C30.8155 7.73483 30.819 7.57804 30.819 7.40842C30.819 7.25053 30.8155 7.10424 30.8088 6.96988C30.8018 6.83065 30.7911 6.69483 30.7768 6.56296C30.763 6.4348 30.7452 6.30832 30.7237 6.18431C30.7025 6.06161 30.678 5.94431 30.6503 5.83276C30.6228 5.72129 30.5924 5.61644 30.5599 5.51866C30.5272 5.42103 30.49 5.32384 30.4485 5.22745C30.4077 5.1328 30.3651 5.04486 30.321 4.96421C30.2765 4.88275 30.2277 4.80333 30.175 4.72639C30.1283 4.65841 30.0778 4.59415 30.0239 4.53419C29.97 4.47408 29.9131 4.4187 29.8536 4.36843C29.7931 4.31721 29.7296 4.27044 29.6638 4.22876C29.5943 4.18519 29.524 4.14687 29.4528 4.11416C29.3772 4.07947 29.2955 4.04829 29.208 4.02104C29.1205 3.99379 29.0293 3.97091 28.9352 3.95299C28.8394 3.93485 28.7377 3.92093 28.6297 3.91153C28.5228 3.9022 28.4107 3.89747 28.2936 3.89747C28.1766 3.89747 28.0644 3.9022 27.9575 3.91153C27.8494 3.92093 27.7477 3.93485 27.6527 3.95299C27.5578 3.97091 27.4667 3.99379 27.3791 4.02104C27.2917 4.04829 27.2099 4.07947 27.1344 4.11416C27.0632 4.14687 26.9929 4.18519 26.9241 4.22876C26.8575 4.27044 26.7941 4.31721 26.7334 4.36843C26.6722 4.42023 26.6153 4.47539 26.5632 4.53353C26.5093 4.59422 26.4588 4.65841 26.4122 4.72639C26.3595 4.80333 26.3106 4.88275 26.2661 4.96421C26.222 5.04486 26.1795 5.1328 26.1387 5.22745C26.0972 5.32384 26.06 5.42103 26.0274 5.51874C25.9947 5.61644 25.9644 5.72129 25.9369 5.83276C25.9092 5.94431 25.8846 6.06161 25.8634 6.18431C25.8419 6.30832 25.8242 6.4348 25.8103 6.56296C25.7961 6.69483 25.7853 6.83065 25.7784 6.96988C25.7716 7.10424 25.7682 7.25053 25.7682 7.40842C25.7682 7.57804 25.7716 7.73483 25.7785 7.87843C25.7855 8.02867 25.7963 8.17381 25.8106 8.31312C25.8247 8.45177 25.8427 8.58648 25.8642 8.71683C25.885 8.84353 25.9101 8.96892 25.9393 9.09235C25.9676 9.21242 25.9981 9.32338 26.0304 9.42517C26.0629 9.52761 26.1001 9.62903 26.1415 9.72892C26.1815 9.82531 26.2242 9.9166 26.2697 10.0023C26.3154 10.0886 26.3638 10.1697 26.4144 10.2449C26.4601 10.313 26.5109 10.3786 26.5664 10.4416C26.6211 10.5036 26.6783 10.5604 26.7374 10.6114C26.7965 10.6623 26.86 10.7098 26.9274 10.7533C26.9962 10.7977 27.0669 10.837 27.1391 10.8708C27.216 10.9068 27.297 10.9383 27.382 10.9653C27.4692 10.9923 27.5604 11.0155 27.6553 11.034C27.7557 11.0536 27.857 11.068 27.9587 11.0771C28.06 11.0861 28.1718 11.0907 28.2936 11.0907ZM45.6564 28.4876C45.7782 28.4876 45.8899 28.483 45.9912 28.474C46.093 28.4649 46.1943 28.4505 46.2946 28.4309C46.3935 28.4116 46.4848 28.3886 46.568 28.3622C46.6529 28.3353 46.734 28.3036 46.8108 28.2677C46.8829 28.2339 46.9536 28.1947 47.0225 28.1503C47.0899 28.1067 47.1534 28.0593 47.2126 28.0083C47.2716 27.9573 47.3288 27.9005 47.3836 27.8384C47.439 27.7755 47.4898 27.7098 47.5355 27.6418C47.5861 27.5666 47.6345 27.4855 47.6802 27.3992C47.7256 27.3135 47.7684 27.2223 47.8083 27.1259C47.8497 27.026 47.8869 26.9247 47.9194 26.8224C47.9518 26.7205 47.9822 26.6094 48.0106 26.4892C48.0398 26.3657 48.0649 26.2404 48.0858 26.1136C48.1073 25.9833 48.1252 25.8486 48.1393 25.7099C48.1536 25.5706 48.1644 25.4255 48.1715 25.2752C48.1783 25.1316 48.1817 24.9748 48.1817 24.8052C48.1817 24.6475 48.1783 24.5014 48.1715 24.3672C48.1646 24.2282 48.1538 24.0924 48.1396 23.9606C48.1258 23.8325 48.1079 23.7061 48.0864 23.5819C48.0652 23.4591 48.0406 23.3417 48.0129 23.2301C47.9853 23.1184 47.9549 23.0133 47.9224 22.9152C47.8905 22.8195 47.8533 22.7224 47.811 22.6242C47.7702 22.5294 47.7276 22.4416 47.6836 22.3609C47.6391 22.2795 47.5903 22.2001 47.5377 22.1233C47.4899 22.0534 47.4397 21.9893 47.3874 21.9311C47.3331 21.8712 47.2762 21.8159 47.2167 21.7656C47.1562 21.7144 47.0927 21.6677 47.0268 21.6259C46.9573 21.5824 46.8869 21.544 46.8156 21.5113C46.74 21.4766 46.6581 21.4454 46.5706 21.4181C46.4837 21.3909 46.3924 21.3681 46.2971 21.3499C46.2021 21.3318 46.1003 21.3179 45.9922 21.3084C45.8853 21.2991 45.7734 21.2943 45.6564 21.2943C45.5393 21.2943 45.4273 21.2991 45.3205 21.3084C45.2125 21.3179 45.1107 21.3318 45.0156 21.3499C44.9203 21.3681 44.829 21.3909 44.7421 21.4181C44.6546 21.4454 44.5727 21.4766 44.4971 21.5113C44.4258 21.544 44.3554 21.5824 44.2867 21.6259C44.22 21.6677 44.1565 21.7144 44.096 21.7656C44.0365 21.8159 43.9796 21.8712 43.9258 21.9312C43.872 21.9911 43.8216 22.0554 43.775 22.1233C43.7224 22.2001 43.6736 22.2795 43.6291 22.3609C43.5851 22.4416 43.5425 22.5294 43.5017 22.6242C43.4594 22.7224 43.4222 22.8195 43.3903 22.9152C43.3578 23.0133 43.3274 23.1184 43.2998 23.2301C43.2721 23.3417 43.2475 23.4591 43.2263 23.5819C43.2048 23.7061 43.1869 23.8325 43.1731 23.9606C43.1589 24.0924 43.1481 24.2282 43.1412 24.3672C43.1344 24.5014 43.131 24.6475 43.131 24.8052C43.131 24.9748 43.1344 25.1316 43.1412 25.2752C43.1483 25.4255 43.1591 25.5706 43.1734 25.7099C43.1876 25.8487 43.2055 25.9835 43.227 26.1141C43.2478 26.2406 43.273 26.3659 43.3021 26.4892C43.3305 26.6094 43.361 26.7206 43.3933 26.8224C43.4258 26.9247 43.463 27.026 43.5044 27.1259C43.5443 27.2223 43.5871 27.3135 43.6325 27.3992C43.6782 27.4855 43.7266 27.5666 43.7772 27.6418C43.8229 27.7099 43.8737 27.7755 43.9291 27.8384C43.9839 27.9005 44.041 27.9573 44.1001 28.0083C44.1593 28.0593 44.2228 28.1067 44.2902 28.1503C44.3591 28.1947 44.4298 28.2339 44.5019 28.2677C44.5787 28.3036 44.6598 28.3353 44.7447 28.3622C44.8279 28.3887 44.9192 28.4116 45.0181 28.4309C45.1184 28.4505 45.2198 28.4649 45.3216 28.474C45.4228 28.483 45.5345 28.4876 45.6564 28.4876Z" fill="#87E06E"/>
</svg>
