<svg width="75" height="75" viewBox="0 0 75 75" fill="none" xmlns="http://www.w3.org/2000/svg">
<path fill-rule="evenodd" clip-rule="evenodd" d="M34.5102 50.6731C35.0739 50.1088 35.0739 49.1954 34.5102 48.6312C33.9466 48.0681 33.0332 48.0681 32.4689 48.6312C31.9065 49.1954 31.9065 50.1088 32.4689 50.6731C33.0332 51.2355 33.9466 51.2355 34.5102 50.6731ZM31.94 28.0344C28.9659 25.0602 27.1238 20.9536 27.1238 16.4251C27.1238 11.8966 28.9659 7.79019 31.9399 4.81612C34.914 1.84206 39.0204 0 43.5489 0C48.0777 0 52.184 1.84206 55.1579 4.81598C58.132 7.79004 59.974 11.8965 59.974 16.4251C59.974 20.9537 58.1319 25.0604 55.1579 28.0346C52.1839 31.0086 48.0776 32.8508 43.5489 32.8508C39.0205 32.8508 34.9141 31.0086 31.94 28.0344ZM52.3355 25.2112C54.5866 22.9602 55.981 19.8523 55.981 16.4251C55.981 12.9981 54.5866 9.89013 52.3354 7.63905C50.0842 5.38796 46.9762 3.99357 43.5489 3.99357C40.1216 3.99357 37.0136 5.38796 34.7624 7.63905C32.5113 9.89013 31.1168 12.9981 31.1168 16.4251C31.1168 19.8523 32.5112 22.9602 34.7623 25.2112C37.0135 27.4623 40.1216 28.8565 43.5489 28.8565C46.9762 28.8565 50.0843 27.4623 52.3355 25.2112ZM18.1849 75C17.6743 74.9969 17.1653 74.8001 16.7792 74.4109L0.578783 58.0873C0.192214 57.6973 -0.000589617 57.188 1.35441e-06 56.6793C0.000592326 56.1697 0.194504 55.6608 0.581295 55.2727L7.44543 48.3889C8.02517 47.8088 8.71749 47.4007 9.45636 47.1717C10.0837 46.9773 10.7441 46.9123 11.3975 46.9806C13.0423 44.0854 15.3323 41.8435 18.0551 40.2996C20.959 38.653 24.3489 37.8026 27.966 37.8026C29.2556 37.8026 30.5261 37.9274 31.7691 38.1756C32.9726 38.4159 34.1522 38.7731 35.2997 39.2454H51.2813C52.2374 39.2454 53.1613 39.4668 53.9954 39.8662C54.6603 40.1847 55.266 40.6162 55.7828 41.1389L63.8764 32.8202C65.0048 31.5199 66.5557 30.7903 68.1544 30.6631C69.7562 30.5357 71.4082 31.0143 72.7326 32.1305H72.7347C74.0679 33.2577 74.8187 34.8207 74.9546 36.4345C75.0904 38.0462 74.6119 39.7103 73.487 41.0422C67.8165 47.8202 64.6125 51.6521 62.7994 53.8207L61.0429 55.9209C60.5469 56.5136 60.4197 56.6604 60.3626 56.7153C60.366 56.712 60.3657 56.713 60.3626 56.7153C59.0906 57.9529 57.6171 58.9128 56.0181 59.5623C54.4175 60.2125 52.6924 60.5534 50.9202 60.5534H31.7389C31.2447 60.5534 30.7658 60.6471 30.3239 60.8256C29.8812 61.0044 29.472 61.2693 29.1178 61.6112L27.8567 62.8282C28.0584 63.5995 28.068 64.4099 27.8909 65.1822C27.6914 66.0512 27.2566 66.8717 26.5945 67.5339L26.5901 67.536L19.5953 74.4274C19.204 74.8126 18.6937 75.0029 18.1849 75ZM31.1059 42.1153C30.0864 41.9031 29.0373 41.7962 27.966 41.7962C24.9807 41.7962 22.2951 42.4735 20.042 43.7461C17.9039 44.9537 16.147 46.7013 14.8856 48.9182L25.5123 59.5449L26.3477 58.7385C27.0734 58.0374 27.9162 57.4928 28.831 57.1233C29.746 56.7537 30.7302 56.5598 31.7389 56.5598H50.9202C52.1625 56.5598 53.3688 56.3244 54.4858 55.8752C55.5945 55.4293 56.6188 54.7724 57.5065 53.926L70.4328 38.4731C70.8491 37.9805 71.0262 37.3648 70.9769 36.7681C70.9274 36.1714 70.6509 35.5946 70.1601 35.1796C69.6706 34.7677 69.0562 34.5921 68.4582 34.6425C67.8633 34.6928 67.2873 34.9682 66.8725 35.4564C66.8302 35.5072 66.2593 36.094 63.1586 39.2805L57.5798 45.0145L57.5913 45.1553C57.6012 45.3017 57.6064 45.4405 57.6064 45.5711C57.6064 47.3149 56.897 48.8964 55.7518 50.0415C54.6067 51.1868 53.0251 51.8962 51.2813 51.8962H39.5088C38.9575 51.8962 38.4581 51.6727 38.0968 51.3113V51.3091C37.7356 50.9478 37.512 50.4493 37.512 49.8993C37.512 49.3481 37.7357 48.8488 38.097 48.4875C38.4583 48.1262 38.9576 47.9026 39.5088 47.9026H51.2813C51.924 47.9026 52.5069 47.641 52.9291 47.2188C53.3513 46.7967 53.6129 46.2138 53.6129 45.5711C53.6129 44.9261 53.3497 44.3472 52.9302 43.9277C52.504 43.5015 51.9171 43.2396 51.2813 43.2396H34.8961C34.7632 43.2396 34.6264 43.2248 34.4886 43.1959C34.3547 43.1679 34.2235 43.1259 34.0971 43.0707C33.1298 42.6475 32.1302 42.3285 31.1059 42.1153ZM10.7949 50.9526C10.6037 50.9743 10.4186 51.0612 10.2709 51.2089L4.80918 56.6844L18.2112 70.1891L23.7805 64.7024C23.9467 64.535 24.0334 64.3064 24.0326 64.0746C24.0318 63.852 23.9471 63.626 23.7712 63.4499C18.554 58.24 15.5522 55.2322 13.8116 53.4881C12.9472 52.6219 12.3941 52.0678 12.0356 51.7107C11.4472 51.1248 11.4405 51.1209 11.4223 51.1106H11.4202L11.3775 51.0859L11.3752 51.0837C11.1952 50.9726 10.9911 50.9304 10.7949 50.9526Z" fill="#87E06E"/>
<path fill-rule="evenodd" clip-rule="evenodd" d="M41.6318 7.82875C42.5087 7.82875 43.2196 8.53961 43.2196 9.4165V23.7063C43.2196 24.5832 42.5087 25.294 41.6318 25.294C40.7549 25.294 40.0441 24.5832 40.0441 23.7063V9.4165C40.0441 8.53961 40.7549 7.82875 41.6318 7.82875Z" fill="#87E06E"/>
<path fill-rule="evenodd" clip-rule="evenodd" d="M46.1842 20.9727C46.1842 21.8496 45.4734 22.5604 44.5965 22.5604H38.6666C37.7897 22.5604 37.0789 21.8496 37.0789 20.9727C37.0789 20.0958 37.7897 19.3849 38.6666 19.3849H44.5965C45.4734 19.3849 46.1842 20.0958 46.1842 20.9727Z" fill="#87E06E"/>
<path fill-rule="evenodd" clip-rule="evenodd" d="M41.8235 10.9924L41.8306 10.9916L41.8751 10.9868C41.917 10.9825 41.9824 10.9761 42.068 10.9692C42.2397 10.9551 42.49 10.9387 42.7922 10.9303C43.4053 10.9133 44.1911 10.931 44.9516 11.0535C45.7374 11.1802 46.3473 11.396 46.726 11.6717C47.0289 11.8921 47.189 12.1394 47.189 12.592C47.189 13.4905 46.9208 13.9551 46.6492 14.2329C46.341 14.548 45.8683 14.7816 45.2492 14.9223C44.637 15.0615 43.9927 15.084 43.478 15.0646C43.2262 15.0551 43.0183 15.0361 42.8777 15.0201C42.8076 15.0122 42.7551 15.0051 42.723 15.0005L42.6909 14.9957C41.8269 14.8492 41.0076 15.4305 40.8605 16.2946C40.7133 17.159 41.2947 17.9791 42.1591 18.1264L42.424 16.5711C42.1591 18.1264 42.1591 18.1264 42.1591 18.1264L42.1618 18.1268L42.1651 18.1274L42.1734 18.1287L42.1969 18.1325C42.2157 18.1355 42.2405 18.1393 42.271 18.1436C42.332 18.1524 42.4159 18.1636 42.5195 18.1754C42.7262 18.1988 43.0145 18.2249 43.3581 18.2378C44.0342 18.2634 44.9776 18.2406 45.9532 18.0189C46.9219 17.7986 48.0369 17.3557 48.9196 16.4531C49.8387 15.5131 50.3645 14.2189 50.3645 12.592C50.3645 11.0204 49.6314 9.85867 48.5946 9.10415C47.6337 8.40482 46.4574 8.07973 45.4569 7.91848C44.4312 7.75316 43.4308 7.7359 42.7043 7.75602C42.3366 7.7662 42.0287 7.78629 41.8096 7.80418C41.6999 7.81314 41.6118 7.8216 41.549 7.82808L41.4741 7.83616L41.4515 7.83875L41.4441 7.83963L41.4414 7.83996C41.4414 7.83996 41.4394 7.84021 41.6318 9.41625L41.4394 7.84021C40.5689 7.94651 39.9495 8.7383 40.0558 9.60873C40.162 10.4789 40.9534 11.0982 41.8235 10.9924Z" fill="#87E06E"/>
</svg>
