<svg width="151" height="150" viewBox="0 0 151 150" fill="none" xmlns="http://www.w3.org/2000/svg">
<path d="M100.95 25.6286C100.648 25.3265 100.158 25.3265 99.8558 25.6286L79.7234 45.761C79.4214 46.063 79.4214 46.5528 79.7234 46.8549L110.012 77.1439C110.314 77.4459 110.314 77.9357 110.012 78.2378L78.2378 110.012C77.9357 110.314 77.446 110.314 77.1439 110.012L46.8549 79.7234C46.5528 79.4213 46.0631 79.4213 45.761 79.7234L25.6299 99.8545C25.3279 100.157 25.3279 100.646 25.6299 100.948L74.455 149.773C74.757 150.076 75.2468 150.076 75.5489 149.773L149.775 75.5475C150.077 75.2455 150.077 74.7557 149.775 74.4536L100.95 25.6286Z" fill="#E6E6E6"/>
<path d="M75.5464 0.226555C75.2443 -0.0755163 74.7545 -0.0755192 74.4525 0.226552L0.226553 74.4525C-0.075518 74.7545 -0.0755174 75.2443 0.226554 75.5464L19.4613 94.7811C19.7633 95.0831 20.2531 95.0831 20.5552 94.7811L45.7585 69.5777C46.0606 69.2757 46.5503 69.2757 46.8524 69.5777L77.1414 99.8667C77.4435 100.169 77.9332 100.169 78.2353 99.8667L99.8654 78.2366C100.167 77.9345 100.167 77.4448 99.8654 77.1427L69.5764 46.8537C69.2744 46.5516 69.2744 46.0619 69.5764 45.7598L94.7811 20.5552C95.0832 20.2531 95.0831 19.7633 94.7811 19.4613L75.5464 0.226555Z" fill="#E6E6E6"/>
</svg>
