<svg width="25" height="35" viewBox="0 0 25 35" fill="none" xmlns="http://www.w3.org/2000/svg">
<g opacity="0.6">
<path d="M12.5 0C5.60737 0 0 5.61504 0 12.5165V22.4838C0 29.3853 5.60737 35 12.5 35C19.3922 35 25 29.4023 25 22.5221V12.5165C25 5.61504 19.3922 0 12.5 0ZM22.6489 22.5221C22.6489 28.1244 18.0963 32.6821 12.5 32.6821C6.90401 32.6821 2.35114 28.107 2.35114 22.4835V12.5165C2.35114 6.89295 6.90401 2.31786 12.5 2.31786C18.0964 2.31786 22.6489 6.89295 22.6489 12.5165V22.5221Z" fill="#37464D"/>
<path d="M12.5 9.58057C11.8507 9.58057 11.3244 10.0994 11.3244 10.7395V14.7958C11.3244 15.436 11.8507 15.9548 12.5 15.9548C13.1493 15.9548 13.6756 15.436 13.6756 14.7958V10.7395C13.6756 10.0994 13.1493 9.58057 12.5 9.58057Z" fill="#37464D"/>
</g>
</svg>
