<svg width="63" height="70" viewBox="0 0 63 70" fill="none" xmlns="http://www.w3.org/2000/svg">
<path d="M32.5291 11.9784V11.2115H33.2962C34.0532 11.2115 34.6668 10.5994 34.6668 9.84428C34.6668 9.08913 34.0532 8.4771 33.2962 8.4771H32.5291V7.71019C32.5291 6.95503 31.9155 6.343 31.1585 6.343C30.4015 6.343 29.788 6.95503 29.788 7.71019V8.4771H29.0208C28.2638 8.4771 27.6503 9.08913 27.6503 9.84428C27.6503 10.5994 28.2638 11.2115 29.0208 11.2115H29.788V11.9784C29.788 12.7335 30.4015 13.3456 31.1585 13.3456C31.9155 13.3456 32.5291 12.7335 32.5291 11.9784Z" fill="white"/>
<path d="M60.9465 50.6089C61.7035 50.6089 62.3171 49.9969 62.3171 49.2417V42.7962C62.3171 42.0415 61.7035 41.429 60.9465 41.429H48.7178L34.4183 32.8413C35.9452 31.7994 36.9495 30.0477 36.9495 28.0663C36.9495 27.3117 36.3355 26.6991 35.579 26.6991C34.822 26.6991 34.2085 27.3117 34.2085 28.0663C34.2085 29.7459 32.8401 31.1121 31.1585 31.1121C29.477 31.1121 28.1091 29.7459 28.1091 28.0663C28.1091 26.3873 29.477 25.0211 31.1585 25.0211C31.9155 25.0211 32.5291 24.4091 32.5291 23.6539V19.593C37.3205 18.9249 41.021 14.8083 41.021 9.84428C41.021 4.41612 36.5967 0 31.1585 0C25.7203 0 21.2967 4.41612 21.2967 9.84428C21.2967 14.8083 24.9965 18.9254 29.788 19.593V22.4507C27.2541 23.0665 25.3681 25.3506 25.3681 28.0669C25.3681 30.0482 26.3719 31.7994 27.8987 32.8413L13.5992 41.429H1.37052C0.613523 41.429 0 42.0415 0 42.7962V49.2422C0 49.9969 0.613523 50.6094 1.37052 50.6094H3.9092V60.8206H1.37052C0.613523 60.8206 0 61.4326 0 62.1878V68.6328C0 69.388 0.613523 70 1.37052 70H60.9465C61.7035 70 62.3171 69.388 62.3171 68.6328V62.1873C62.3171 61.4326 61.7035 60.8201 60.9465 60.8201H58.4079V50.6089H60.9465ZM24.0377 9.84428C24.0377 5.92377 27.2322 2.73438 31.1585 2.73438C35.0849 2.73438 38.2799 5.92377 38.2799 9.84428C38.2799 13.7648 35.0849 16.9542 31.1585 16.9542C27.2322 16.9542 24.0377 13.7648 24.0377 9.84428ZM31.1585 34.075L43.4033 41.429H18.9138L31.1585 34.075ZM2.74105 44.1634H59.576V47.8745H2.74105V44.1634ZM59.576 67.2656H2.74105V63.5545H59.576V67.2656ZM55.6668 60.8201H6.65025V57.0817H44.3584C45.1154 57.0817 45.7289 56.4697 45.7289 55.7145C45.7289 54.9593 45.1154 54.3473 44.3584 54.3473H6.65025V50.6089H55.6668V60.8201Z" fill="white"/>
</svg>
