<svg width="70" height="70" viewBox="0 0 70 70" fill="none" xmlns="http://www.w3.org/2000/svg">
<path d="M68.4783 24.3478H57.8261V1.52174C57.8261 0.679879 57.144 0 56.3043 0H1.52174C0.682108 0 0 0.679879 0 1.52174V62.3898C0 66.5865 3.41351 70 7.6087 70H62.3913C66.5865 70 70 66.5865 70 62.3913V25.8696C70 25.0277 69.3179 24.3478 68.4783 24.3478ZM45.6522 3.04348V28.2829L42.1629 24.7936C41.8664 24.4972 41.4763 24.3478 41.087 24.3478C40.6976 24.3478 40.3075 24.4972 40.011 24.7936L36.5217 28.2829V3.04348H45.6522ZM7.6087 66.9565C5.09203 66.9565 3.04348 64.9065 3.04348 62.3898V3.04348H33.4783V31.9565C33.4783 32.571 33.8498 33.1283 34.4175 33.3623C34.9866 33.5986 35.639 33.4679 36.0759 33.0324L41.087 28.0214L46.098 33.0324C46.3885 33.323 46.7786 33.4783 47.1739 33.4783C47.3701 33.4783 47.5677 33.4419 47.7565 33.3623C48.3241 33.1283 48.6957 32.571 48.6957 31.9565V3.04348H54.7826V62.3913C54.7826 64.1033 55.3518 65.6844 56.3073 66.9565H7.6087ZM66.9565 62.3913C66.9565 64.908 64.908 66.9565 62.3913 66.9565C59.8746 66.9565 57.8261 64.908 57.8261 62.3913V27.3913H66.9565V62.3913Z" fill="white"/>
<path d="M10.6522 15.2174H25.8696C26.7092 15.2174 27.3913 14.5375 27.3913 13.6957C27.3913 12.8538 26.7092 12.1739 25.8696 12.1739H10.6522C9.81254 12.1739 9.13043 12.8538 9.13043 13.6957C9.13043 14.5375 9.81254 15.2174 10.6522 15.2174Z" fill="white"/>
<path d="M10.6522 24.3478H25.8696C26.7092 24.3478 27.3913 23.6679 27.3913 22.8261C27.3913 21.9842 26.7092 21.3043 25.8696 21.3043H10.6522C9.81254 21.3043 9.13043 21.9842 9.13043 22.8261C9.13043 23.6679 9.81254 24.3478 10.6522 24.3478Z" fill="white"/>
<path d="M10.6522 33.4783H25.8696C26.7092 33.4783 27.3913 32.7984 27.3913 31.9565C27.3913 31.1147 26.7092 30.4348 25.8696 30.4348H10.6522C9.81254 30.4348 9.13043 31.1147 9.13043 31.9565C9.13043 32.7984 9.81254 33.4783 10.6522 33.4783Z" fill="white"/>
<path d="M47.1739 42.6087H10.6522C9.81254 42.6087 9.13043 43.2886 9.13043 44.1304V56.3043C9.13043 57.1462 9.81254 57.8261 10.6522 57.8261H47.1739C48.0135 57.8261 48.6957 57.1462 48.6957 56.3043V44.1304C48.6957 43.2886 48.0135 42.6087 47.1739 42.6087ZM45.6522 54.7826H12.1739V45.6522H45.6522V54.7826Z" fill="white"/>
</svg>
