<svg width="100" height="100" viewBox="0 0 100 100" fill="none" xmlns="http://www.w3.org/2000/svg">
<path fill-rule="evenodd" clip-rule="evenodd" d="M60.56 43.36C51.08 43.36 43.36 51.06 43.36 60.54C43.36 70.02 51.08 77.72 60.56 77.72C70.04 77.72 77.74 70.02 77.74 60.54C77.74 51.06 70.04 43.36 60.56 43.36ZM12.54 18.12H50C51.08 18.12 51.96 17.24 51.96 16.16C51.96 15.08 51.08 14.2 50 14.2H12.54C11.46 14.2 10.58 15.08 10.58 16.16C10.58 17.24 11.46 18.12 12.54 18.12ZM50 27.76H20.82C19.74 27.76 18.86 28.62 18.86 29.7C18.86 30.78 19.74 31.66 20.82 31.66H50C51.08 31.66 51.96 30.78 51.96 29.7C51.96 28.62 51.08 27.76 50 27.76ZM12.54 31.66C13.06 31.66 13.56 31.44 13.92 31.08C14.28 30.72 14.48 30.22 14.48 29.7C14.48 29.2 14.28 28.68 13.92 28.32C13.56 27.96 13.04 27.76 12.54 27.76C12.02 27.76 11.52 27.96 11.16 28.32C10.8 28.68 10.58 29.18 10.58 29.7C10.58 30.22 10.8 30.72 11.16 31.08C11.52 31.44 12.02 31.66 12.54 31.66ZM29.1 81.92H12.54C11.46 81.92 10.58 82.8 10.58 83.88C10.58 84.94 11.46 85.82 12.54 85.82H29.1C30.18 85.82 31.04 84.94 31.04 83.88C31.04 82.8 30.18 81.92 29.1 81.92ZM37.12 81.92C36.6 81.92 36.1 82.12 35.74 82.48C35.38 82.86 35.16 83.36 35.16 83.88C35.16 84.38 35.38 84.88 35.74 85.26C36.1 85.62 36.6 85.82 37.12 85.82C37.62 85.82 38.14 85.62 38.5 85.26C38.86 84.88 39.06 84.38 39.06 83.88C39.06 83.36 38.86 82.86 38.5 82.48C38.14 82.12 37.62 81.92 37.12 81.92ZM31.28 41.3H12.54C11.46 41.3 10.58 42.16 10.58 43.24C10.58 44.32 11.46 45.2 12.54 45.2H31.28C32.36 45.2 33.22 44.32 33.22 43.24C33.22 42.16 32.36 41.3 31.28 41.3ZM30.12 54.84H12.54C11.46 54.84 10.58 55.7 10.58 56.78C10.58 57.86 11.46 58.74 12.54 58.74H30.12C31.2 58.74 32.06 57.86 32.06 56.78C32.06 55.7 31.2 54.84 30.12 54.84ZM60.56 51.74C59.48 51.74 58.6 52.62 58.6 53.7C58.6 54.78 59.48 55.66 60.56 55.66C63.24 55.66 65.44 57.84 65.44 60.54C65.44 61.62 66.32 62.5 67.38 62.5C68.46 62.5 69.34 61.62 69.34 60.54C69.34 55.7 65.4 51.74 60.56 51.74ZM98.06 88.68L82.56 73.18C84.72 69.46 85.94 65.14 85.94 60.54C85.94 53.74 83.26 47.58 78.9 43.02V21.08C78.9 20.58 78.7 20.08 78.34 19.7L59.2 0.56C58.82 0.18 58.32 0 57.82 0H5.86C2.64 0 0 2.62 0 5.86V94.14C0 97.36 2.64 100 5.86 100H73.04C76.28 100 78.9 97.36 78.9 94.14V88.26L88.7 98.06C90 99.34 91.68 99.98 93.38 99.98C95.08 99.98 96.78 99.34 98.06 98.06C100.64 95.46 100.64 91.26 98.06 88.68ZM60.56 82.02C48.7 82.02 39.08 72.38 39.08 60.54C39.08 48.7 48.7 39.06 60.56 39.06C72.4 39.06 82.04 48.7 82.04 60.54C82.04 72.38 72.4 82.02 60.56 82.02ZM59.78 6.66L72.24 19.14H61.72C60.64 19.14 59.78 18.26 59.78 17.18V6.66ZM75 94.14C75 95.2 74.12 96.08 73.04 96.08H5.86C4.78 96.08 3.92 95.2 3.92 94.14V5.86C3.92 4.78 4.78 3.9 5.86 3.9H55.86V17.18C55.86 20.4 58.5 23.04 61.72 23.04H75V39.68C70.9 36.82 65.92 35.14 60.56 35.14C46.56 35.14 35.16 46.54 35.16 60.54C35.16 63.28 35.6 65.9 36.4 68.38H12.54C11.46 68.38 10.58 69.24 10.58 70.32C10.58 71.4 11.46 72.28 12.54 72.28H37.48C37.66 72.28 37.84 72.26 38 72.2C42.24 80.36 50.76 85.92 60.56 85.92C65.16 85.92 69.48 84.7 73.2 82.54L75 84.36V94.14ZM95.3 95.28C94.24 96.34 92.52 96.34 91.46 95.28L76.48 80.3C77.88 79.16 79.18 77.88 80.32 76.46L95.3 91.44C96.36 92.5 96.36 94.24 95.3 95.28ZM60.56 73.82C53.24 73.82 47.28 67.86 47.28 60.54C47.28 53.22 53.24 47.26 60.56 47.26C67.88 47.26 73.84 53.22 73.84 60.54C73.84 67.86 67.88 73.82 60.56 73.82Z" fill="#7BC46A"/>
</svg>
