<svg width="79" height="100" viewBox="0 0 79 100" fill="none" xmlns="http://www.w3.org/2000/svg">
<path fill-rule="evenodd" clip-rule="evenodd" d="M0 22.4851V91.3606C0 96.5002 4.71969 100 9.59937 100H68.7355C73.6152 100 78.3349 96.5002 78.3349 91.3606V22.4851C78.0949 17.3454 73.8951 13.2857 68.7355 13.2457H59.1161V8.64599C59.1161 7.56606 57.7162 7.22609 56.8363 7.22609H49.3968L49.2768 6.88611C47.6969 2.3664 43.7371 0.00655949 39.0374 0.00655949C34.4977 -0.15343 30.358 2.62639 28.8181 6.90611L28.6981 7.22609H21.3786C20.4987 7.22609 19.2387 7.56606 19.2387 8.64599V13.2457H9.59937C4.45971 13.2857 0.239984 17.3454 0 22.4851ZM30.118 11.0458C31.038 10.9058 31.7779 10.2059 31.9579 9.28595V9.26595C32.7179 5.94617 35.6377 3.56633 39.0374 3.46633H39.0574C42.4372 3.56633 45.317 5.96617 46.037 9.28595C46.197 10.2459 46.9969 10.9658 47.9569 11.0458H55.2964V21.6451H23.0385V11.0458H30.118ZM19.2387 23.645C19.3387 24.7249 20.2787 25.5249 21.3586 25.4649H56.8763C57.9762 25.5249 58.9361 24.7249 59.1161 23.645V17.0454H68.7555C71.7753 17.1054 74.2551 19.4253 74.5351 22.4251V91.3606C74.5351 94.4004 71.5153 96.1803 68.7355 96.1803H9.59937C6.81955 96.1803 3.81975 94.4004 3.81975 91.3606V22.4251C4.07973 19.4253 6.57957 17.1054 9.59937 17.0454H19.2387V23.645ZM12.5992 57.3428C11.8592 58.1227 11.8592 59.3427 12.5992 60.1226L17.5388 65.1823C17.8788 65.5423 18.3388 65.7622 18.8388 65.7422C19.3587 65.7222 19.8387 65.5223 20.1987 65.1623L29.5781 56.2429C30.298 55.5829 30.358 54.463 29.6781 53.723C29.6581 53.683 29.6181 53.663 29.5781 53.623L29.5581 53.603C28.8381 52.8431 27.6582 52.8031 26.8982 53.483L18.8388 61.1625L15.259 57.4428C14.539 56.7028 13.3591 56.6428 12.5992 57.3428ZM64.4158 58.9227H36.7576C35.7177 58.9227 34.8577 59.7626 34.8577 60.8226C34.8577 61.8825 35.7177 62.7424 36.7576 62.7424H64.4158C65.4757 62.7424 66.3157 61.8825 66.3157 60.8226C66.3157 59.7626 65.4757 58.9227 64.4158 58.9227ZM12.5992 38.1041C11.8592 38.884 11.8592 40.1039 12.5992 40.8839L17.5388 45.9435C17.8588 46.3235 18.3388 46.5235 18.8388 46.5035C19.3587 46.5035 19.8387 46.2835 20.1987 45.9235L29.5781 37.0241C30.298 36.3442 30.358 35.2243 29.6781 34.4843C29.6581 34.4643 29.6181 34.4243 29.5781 34.3843L29.5581 34.3643C28.8381 33.6044 27.6582 33.5644 26.8982 34.2643L18.8388 41.9238L15.259 38.2041C14.539 37.4641 13.3591 37.4041 12.5992 38.1041ZM64.4158 39.684H36.7576C35.7177 39.684 34.8577 40.5439 34.8577 41.5838C34.8577 42.6438 35.7177 43.5037 36.7576 43.5037H64.4158C65.4757 43.5037 66.3157 42.6438 66.3157 41.5838C66.3157 40.5439 65.4757 39.684 64.4158 39.684ZM12.5992 76.5615C11.8592 77.3615 11.8592 78.5814 12.5992 79.3613L17.5388 84.401V84.421C17.8788 84.781 18.3388 84.981 18.8388 84.981C19.3587 84.961 19.8387 84.761 20.1987 84.381L29.5781 75.4816C30.298 74.8216 30.358 73.6817 29.6781 72.9618C29.6581 72.9218 29.6181 72.8818 29.5781 72.8618L29.5581 72.8418V72.8218C28.8381 72.0818 27.6582 72.0418 26.8982 72.7218L18.8388 80.4013L15.259 76.6815C14.539 75.9416 13.3591 75.8816 12.5992 76.5615ZM64.4158 78.1614H36.7576C35.7177 78.1614 34.8577 79.0014 34.8577 80.0613C34.8577 81.1212 35.7177 81.9612 36.7576 81.9612H64.4158C65.4757 81.9612 66.3157 81.1212 66.3157 80.0613C66.3157 79.0014 65.4757 78.1614 64.4158 78.1614Z" fill="#7BC46A"/>
</svg>
