<svg width="96" height="100" viewBox="0 0 96 100" fill="none" xmlns="http://www.w3.org/2000/svg">
<path fill-rule="evenodd" clip-rule="evenodd" d="M8.65628 35.5242L19.8773 30.1846C21.0218 29.6484 21.5156 28.2856 20.9545 27.1462C20.4159 26.0068 19.0469 25.5377 17.9024 26.0738L11.5513 29.0899L12.449 27.3026C22.9967 6.07851 49.613 -1.80792 70.125 10.1893C71.2022 10.8372 72.6161 10.4797 73.2445 9.385C73.8953 8.31263 73.5362 6.90513 72.4365 6.25724C49.3212 -7.2815 19.3387 1.96774 7.93814 26.1185L7.30976 27.4367L4.36985 21.2705C3.8088 20.1311 2.43984 19.6619 1.31774 20.1981C0.173192 20.7343 -0.320533 22.0971 0.218076 23.2365L5.60416 34.4518C6.16522 35.5912 7.53418 36.0827 8.65628 35.5242ZM95.3274 16.8023C95.4172 15.5512 94.4746 14.4564 93.2179 14.3671L80.785 13.3841C79.5282 13.2947 78.4061 14.233 78.3164 15.4841L77.3513 27.8388C77.2616 29.0899 78.2041 30.207 79.4609 30.2963C80.7177 30.3857 81.8173 29.4474 81.9071 28.1963L82.4681 21.2258L83.5678 22.9014C89.9862 32.5304 92.006 44.2372 89.1783 55.4525C86.4404 66.3326 79.4609 75.5595 69.6762 81.1224C67.6339 82.2842 68.4643 85.3896 70.7983 85.3896C71.2022 85.3896 71.5837 85.3002 71.9428 85.0992C83.4331 78.5532 91.4449 67.539 94.0707 54.6258C96.5617 42.4722 93.9585 29.7601 86.8443 19.5726L86.014 18.3885L92.8588 18.9023C94.1155 19.014 95.2377 18.0534 95.3274 16.8023ZM60.9238 85.5907L50.6678 78.5756C49.613 77.8606 48.1992 78.1287 47.481 79.1788C46.7629 80.2065 47.0322 81.6363 48.0645 82.3512L53.9219 86.3503L51.9245 86.4843C42.5662 87.0875 33.2976 84.4066 25.6449 79.0224C14.5585 71.2477 8.0279 58.7813 8.16256 45.2426C8.185 43.9691 7.15267 42.9414 5.87347 42.9414C4.61672 42.9414 3.58438 43.9468 3.58438 45.1979C3.42729 60.1888 10.6312 74.018 22.907 82.664C31.6594 88.8525 42.3193 91.8685 53.0466 90.9749L54.5054 90.8408L50.6678 96.4261C49.9496 97.4762 50.2189 98.8837 51.2513 99.5986C52.306 100.313 53.7199 100.045 54.438 99.0177L61.5073 88.7631C61.8439 88.2716 61.9786 87.6461 61.8663 87.0429C61.7541 86.462 61.4175 85.9258 60.9238 85.5907Z" fill="#7BC46A"/>
<path fill-rule="evenodd" clip-rule="evenodd" d="M49.9721 44.3489H69.7884C70.9329 44.3489 71.8531 45.2649 71.8531 46.382C71.8531 59.5186 61.1033 70.1976 47.9298 70.1976C34.7339 70.1976 24.0066 59.5186 24.0066 46.382C24.0066 33.2454 34.7339 22.5663 47.9298 22.5663C49.0519 22.5663 49.9721 23.4823 49.9721 24.5993V44.3489ZM77.4636 40.7073C77.4636 40.752 77.4636 40.7743 77.4636 40.7967C77.4636 41.9361 76.5434 42.8297 75.3989 42.8297H53.5179C52.3958 42.8297 51.4757 41.9361 51.4757 40.7967V19.014C51.4757 17.8746 52.3958 16.981 53.5179 16.981C60.3852 16.981 66.9158 19.9077 71.4715 25.0238C75.3091 29.358 77.4411 34.9433 77.4636 40.7073ZM67.6339 48.4373H47.9298C46.7853 48.4373 45.8652 47.5214 45.8652 46.382V26.7664C35.8336 27.7941 28.0911 36.2614 28.0911 46.382C28.0911 57.2621 37.0006 66.1092 47.9298 66.1092C58.0961 66.1092 66.6016 58.4238 67.6339 48.4373ZM55.5826 38.7636H73.2445C72.8181 34.6752 71.1125 30.8325 68.3745 27.7494C65.098 24.0408 60.5198 21.695 55.5826 21.1811V38.7636Z" fill="#7BC46A"/>
</svg>
