<svg width="70" height="67" viewBox="0 0 70 67" fill="none" xmlns="http://www.w3.org/2000/svg">
<path d="M62.2037 4.02907C61.7128 3.53852 60.9171 3.53811 60.426 4.02907L47.3927 17.0619C46.9016 17.5529 46.9016 18.3486 47.3926 18.8397C47.6381 19.0851 47.9597 19.2077 48.2815 19.2077C48.6031 19.2077 48.9249 19.0851 49.1705 18.8397L62.2037 5.80682C62.6945 5.31573 62.6945 4.51989 62.2037 4.02907Z" fill="white"/>
<path d="M65.748 7.51744C65.2569 7.02676 64.4612 7.02676 63.9703 7.51744L50.9371 20.5506C50.4463 21.0417 50.4463 21.8374 50.937 22.3283C51.1826 22.5737 51.5044 22.6964 51.826 22.6964C52.1475 22.6964 52.4693 22.5737 52.7149 22.3283L65.748 9.29506C66.239 8.8041 66.239 8.00826 65.748 7.51744Z" fill="white"/>
<path d="M53.4528 29.526L69.6318 13.347C70.1227 12.8559 70.1227 12.0602 69.6318 11.5692C69.1407 11.0787 68.345 11.0783 67.854 11.5692L51.6753 27.7483C49.6821 29.7413 46.6343 30.2643 44.0915 29.05C43.5856 28.8085 42.9816 28.9306 42.6096 29.3498L37.1123 35.5436C37.1101 35.5459 37.1076 35.5479 37.1054 35.5504C37.1033 35.5528 37.1016 35.5554 37.0994 35.5579L13.3392 62.327C13.3332 62.3339 13.3272 62.3408 13.3213 62.3478C13.243 62.4398 13.169 62.5206 13.0941 62.5957C11.5252 64.1644 8.9727 64.1642 7.40454 62.5957C6.64465 61.8359 6.22616 60.8254 6.22616 59.7508C6.22616 58.6762 6.64465 57.6659 7.4059 56.9046C7.47891 56.8312 7.55957 56.7575 7.65241 56.6785C7.65952 56.6726 7.66635 56.6666 7.67319 56.6606L22.5274 43.4762C23.0467 43.0154 23.0938 42.2209 22.6331 41.7018C22.1722 41.1824 21.3776 41.1349 20.8586 41.5961L6.01424 54.7717C5.87233 54.8927 5.74532 55.0098 5.62692 55.1284C4.39221 56.3631 3.71217 58.0047 3.71217 59.7508C3.71217 61.4969 4.39207 63.1386 5.62678 64.3733C6.90141 65.6476 8.57526 66.2849 10.2495 66.2848C11.9231 66.2848 13.5973 65.6478 14.871 64.374C14.9917 64.2535 15.1086 64.1264 15.2287 63.9858L33.3346 43.5866L51.4408 63.9861C51.5607 64.1268 51.6776 64.2539 51.7975 64.3736C53.0719 65.6479 54.7458 66.285 56.4198 66.285C58.094 66.285 59.7681 65.6478 61.0426 64.3734C63.591 61.8246 63.591 57.6776 61.0433 55.1295C60.9229 55.0087 60.7957 54.8918 60.6552 54.7719L39.8205 36.2794L43.8968 31.6867C47.1995 32.8569 50.9366 32.0418 53.4528 29.526ZM58.996 56.6607C59.0029 56.6667 59.0098 56.6727 59.0168 56.6786C59.1088 56.757 59.1896 56.8309 59.2647 56.9058C60.8333 58.4746 60.8333 61.027 59.2648 62.5954C57.696 64.164 55.1436 64.164 53.5743 62.5947C53.5001 62.5205 53.4258 62.4395 53.3475 62.3475C53.3416 62.3406 53.3356 62.3336 53.3296 62.3267L35.0152 41.6929L38.1513 38.1594L58.996 56.6607Z" fill="white"/>
<path d="M58.4307 0.368013C57.9396 -0.122671 57.1439 -0.122671 56.6529 0.368013L40.4742 16.5472C37.9578 19.0633 37.1429 22.8 38.3131 26.1034L33.3345 30.5224L28.5496 26.2754C31.0241 21.4066 30.1208 15.495 26.195 11.5691C22.2961 7.67016 17.78 4.92635 13.4787 3.8434C8.98842 2.71315 5.1387 3.4677 2.63756 5.96869C0.136431 8.46969 -0.618256 12.32 0.512271 16.8099C1.59536 21.111 4.33903 25.6271 8.23825 29.5259C12.164 33.4519 18.0754 34.3552 22.9445 31.8806C22.9445 31.8806 27.6237 37.1522 27.6831 37.2192C27.9315 37.499 28.2767 37.6416 28.6237 37.6416C28.9205 37.6416 29.2183 37.5372 29.4577 37.3247L40.6503 27.3902C41.0693 27.0182 41.1914 26.4139 40.9501 25.9083C39.7355 23.3652 40.2586 20.3177 42.2518 18.3248L58.4307 2.14577C58.9217 1.65467 58.9217 0.858969 58.4307 0.368013ZM28.7288 34.6104L24.1531 29.4553C23.7479 28.9988 23.0728 28.899 22.5532 29.2199C18.523 31.705 13.3674 31.1003 10.0156 27.7484C6.43301 24.166 3.92381 20.0634 2.94997 16.1961C2.0442 12.598 2.56456 9.59707 4.41532 7.74645C6.2658 5.89555 9.26678 5.37547 12.8647 6.28137C16.732 7.25508 20.8348 9.76414 24.4171 13.3467C27.7689 16.6984 28.3738 21.854 25.8885 25.8842C25.568 26.4039 25.6674 27.0787 26.1239 27.4841L31.4406 32.2031L28.7288 34.6104Z" fill="white"/>
</svg>
