<svg width="100" height="100" viewBox="0 0 100 100" fill="none" xmlns="http://www.w3.org/2000/svg">
<path fill-rule="evenodd" clip-rule="evenodd" d="M68.5288 19.8807H89.7614C92.6044 19.9006 95.1491 21.0338 96.998 22.8827C98.8469 24.7515 100 27.2962 100 30.1193V89.7614C100 92.6044 98.8469 95.1491 96.998 96.998C95.1491 98.8668 92.6044 100 89.7614 100H10.2386C7.41551 100 4.85089 98.8668 3.00199 96.998C1.15308 95.1491 0.0198807 92.6044 0 89.7614V16.8787C0 14.0557 1.15308 11.4911 3.00199 9.64215C4.85089 7.77336 7.41551 6.64016 10.2386 6.64016C13.0815 6.64016 15.6262 7.77336 17.4751 9.64215C19.3439 11.4911 20.4771 14.0557 20.4771 16.8787V19.8807H48.0517C48.0914 18.5487 48.4095 17.2167 48.9463 16.0239C49.503 14.7515 50.338 13.6183 51.3718 12.664V6.93837C51.3718 5.02982 52.1471 3.28032 53.3996 2.02783C54.6521 0.775348 56.3817 0 58.2903 0C60.1988 0 61.9284 0.775348 63.1809 2.02783C64.4334 3.28032 65.2087 5.02982 65.2087 6.93837V12.664C66.2425 13.6183 67.0775 14.7515 67.6342 16.0239C68.171 17.2167 68.4891 18.5487 68.5288 19.8807ZM90.0398 85.0696C90.3976 84.7117 90.8747 84.493 91.4314 84.493C91.9682 84.493 92.4453 84.7117 92.8032 85.0696C93.161 85.4274 93.3797 85.9244 93.3797 86.4612V91.4314C93.3797 91.9682 93.161 92.4652 92.8032 92.8032C92.4453 93.161 91.9682 93.3797 91.4314 93.3797H86.4612C85.9046 93.3797 85.4274 93.161 85.0696 92.8032C84.7117 92.4652 84.493 91.9682 84.493 91.4314C84.493 90.8946 84.7117 90.3976 85.0696 90.0398C85.4274 89.6819 85.9244 89.4632 86.4612 89.4632H89.4632V86.4612C89.4632 85.9244 89.6819 85.4274 90.0398 85.0696ZM27.1173 89.4632H30.1193C30.6561 89.4632 31.1531 89.6819 31.5109 90.0398C31.8688 90.3976 32.0875 90.8946 32.0875 91.4314C32.0875 91.9682 31.8688 92.4453 31.5109 92.8032C31.1531 93.161 30.6561 93.3797 30.1193 93.3797H25.1491C24.6123 93.3797 24.1352 93.161 23.7773 92.8032C23.4195 92.4453 23.2008 91.9682 23.2008 91.4314V86.4612C23.2008 85.9244 23.4195 85.4274 23.7773 85.0696C24.1352 84.7117 24.6123 84.493 25.1491 84.493C25.6859 84.493 26.1829 84.7117 26.5408 85.0696C26.8986 85.4274 27.1173 85.9244 27.1173 86.4612V89.4632ZM86.4612 26.5209H91.4314C91.9682 26.5209 92.4453 26.7396 92.8032 27.0974C93.161 27.4354 93.3797 27.9324 93.3797 28.4692V33.4394C93.3797 33.9761 93.161 34.4732 92.8032 34.831C92.4453 35.169 91.9682 35.3877 91.4314 35.3877C90.8946 35.3877 90.3976 35.169 90.0398 34.831C89.6819 34.4732 89.4632 33.9761 89.4632 33.4394V30.4175H86.4612C85.9046 30.4175 85.4274 30.1988 85.0696 29.8608C84.7117 29.503 84.493 29.006 84.493 28.4692C84.493 27.9324 84.7117 27.4354 85.0696 27.0974C85.4274 26.7396 85.9244 26.5209 86.4612 26.5209ZM26.5408 34.831C26.1829 35.169 25.6859 35.3877 25.1491 35.3877C24.6123 35.3877 24.1352 35.169 23.7773 34.831C23.4195 34.4732 23.2008 33.9761 23.2008 33.4394V28.4692C23.2008 27.9324 23.4195 27.4354 23.7773 27.0974C24.1352 26.7396 24.6123 26.5209 25.1491 26.5209H30.1193C30.6561 26.5209 31.1531 26.7396 31.5109 27.0974C31.8688 27.4354 32.0875 27.9324 32.0875 28.4692C32.0875 29.006 31.8688 29.503 31.5109 29.8608C31.1531 30.1988 30.6561 30.4175 30.1193 30.4175H27.1173V33.4394C27.1173 33.9761 26.8986 34.4732 26.5408 34.831ZM77.8926 81.7694C77.9722 81.8489 78.0517 81.9284 78.1113 82.0278L78.1511 81.9881L78.3101 82.4056C78.4692 82.7634 78.5089 83.161 78.4294 83.5189C78.3499 83.8966 78.171 84.2545 77.8926 84.5328L72.9225 89.503C72.6839 89.7416 72.3857 89.9205 72.0477 90.0199C71.7296 90.0994 71.3718 90.1193 71.0338 90.0199C70.6958 89.9404 70.3777 89.7614 70.1392 89.5229C69.9006 89.2843 69.7217 88.9662 69.6421 88.6282C69.5427 88.2903 69.5427 87.9324 69.6421 87.6143C69.7415 87.2763 69.9006 86.9781 70.159 86.7396L71.7893 85.0895H44.7912L46.4215 86.7396C46.7992 87.1173 46.9781 87.6143 46.9781 88.1113C46.9781 88.6084 46.7793 89.1054 46.4016 89.4831C46.0239 89.8608 45.5268 90.0398 45.0298 90.0398C44.5527 90.0596 44.0557 89.8608 43.6581 89.503L38.6879 84.5328C38.668 84.493 38.6481 84.4732 38.6282 84.4533C38.5686 84.3738 38.4891 84.2942 38.4294 84.1948C38.3698 84.1153 38.33 84.0159 38.2704 83.9364C38.2505 83.8767 38.2306 83.837 38.2306 83.7972C38.2107 83.6978 38.171 83.6183 38.171 83.5388C38.1511 83.4394 38.1312 83.34 38.1312 83.2406C38.1113 83.1809 38.1312 83.1412 38.1312 83.0815V83.0219C38.1312 82.9423 38.1511 82.8628 38.1511 82.7833C38.171 82.7038 38.1909 82.6243 38.2107 82.5447C38.2306 82.505 38.2704 82.4056 38.2903 82.3459C38.33 82.2465 38.3897 82.1272 38.4493 82.0477C38.5288 81.9483 38.6083 81.8489 38.6879 81.7694C38.6879 81.7495 43.3996 76.9781 43.6581 76.7793C44.0358 76.4215 44.5328 76.2425 45.0298 76.2425C45.5268 76.2425 46.0239 76.4414 46.4016 76.8191C46.7793 77.1968 46.9582 77.674 46.9781 78.171C46.9781 78.668 46.7992 79.165 46.4215 79.5427L44.7912 81.1928H71.7893L70.159 79.5427C69.7813 79.165 69.6024 78.668 69.6024 78.171C69.6223 77.674 69.8012 77.1769 70.1789 76.8191C70.5567 76.4414 71.0537 76.2425 71.5507 76.2425C72.0477 76.2425 72.5447 76.4215 72.9225 76.7793L77.8926 81.7694ZM57.3757 21.9085C57.3161 21.8887 57.2565 21.8489 57.1968 21.8091L57.0378 21.6899L56.8986 21.5706C56.5209 21.1928 56.3419 20.6958 56.3419 20.1988C56.3419 19.7018 56.5209 19.1849 56.9185 18.8072C57.2962 18.4294 57.7932 18.2505 58.2903 18.2505C58.7873 18.2505 59.2843 18.4294 59.662 18.8072C60.0596 19.1849 60.2386 19.7018 60.2386 20.1988C60.2386 20.6958 60.0596 21.1928 59.6819 21.5706L59.662 21.5905C59.6223 21.6302 59.5626 21.67 59.5229 21.7097C59.4632 21.7495 59.4235 21.7893 59.3638 21.8091C59.3042 21.8489 59.2644 21.8887 59.2048 21.9085C59.1451 21.9483 59.0855 21.9682 59.0457 21.9881C58.9861 22.008 58.9264 22.0477 58.8469 22.0676C58.7873 22.0875 58.7276 22.0875 58.6481 22.1074C58.5885 22.1074 58.5288 22.1272 58.4692 22.1272C58.4294 22.1272 58.3698 22.1471 58.2903 22.1471L58.0914 22.1272C58.0318 22.1272 57.9722 22.1074 57.9125 22.1074C57.8529 22.0875 57.7734 22.0676 57.7137 22.0477C57.6541 22.0278 57.5944 22.008 57.5547 21.9881C57.495 21.9682 57.4354 21.9483 57.3757 21.9085ZM81.7296 67.3757C82.2664 66.7396 82.6243 65.9841 82.7634 65.1889C82.9225 64.2744 82.8231 63.2803 82.4056 62.3857L65.9046 27.0179C65.6064 27.3559 65.3082 27.6541 64.9702 27.9324C64.5924 28.2704 64.1749 28.5686 63.7575 28.827L81.7296 67.3757ZM33.8171 65.1889C33.9563 65.9841 34.3141 66.7396 34.8509 67.3757L52.8231 28.827C52.4056 28.5686 51.9881 28.2704 51.6103 27.9324C51.2724 27.6541 50.9742 27.3559 50.6759 27.0179L34.1948 62.3857C33.7773 63.2803 33.6581 64.2545 33.8171 65.1889ZM58.2903 30.4374C57.6938 30.4374 57.0775 30.3777 56.4811 30.2584L47.5348 49.4235C51.0139 50.7157 54.6521 51.3718 58.2903 51.3718C61.9483 51.3718 65.5865 50.7157 69.0656 49.4235L60.1193 30.2584C59.5229 30.3777 58.9066 30.4374 58.2903 30.4374ZM56.163 4.81113C55.6064 5.34791 55.2684 6.10338 55.2684 6.93837V10.4175C56.2624 10.0994 57.2763 9.94036 58.2903 9.94036C59.3042 9.94036 60.3181 10.0994 61.3121 10.4175V6.93837C61.3121 6.10338 60.9742 5.34791 60.4175 4.81113C59.8807 4.25447 59.1252 3.9165 58.2903 3.9165C57.4553 3.9165 56.6998 4.25447 56.163 4.81113ZM62.7634 15.7058C61.6103 14.5726 60.0398 13.8569 58.2903 13.8569C56.5408 13.8569 54.9503 14.5726 53.8171 15.7058C52.664 16.8588 51.9682 18.4493 51.9682 20.1789C51.9682 21.9284 52.664 23.5189 53.8171 24.672C54.9503 25.8052 56.5408 26.5209 58.2903 26.5209C60.0398 26.5209 61.6103 25.8052 62.7634 24.672C63.9165 23.5189 64.6123 21.9284 64.6123 20.1789C64.6123 18.4493 63.9165 16.8588 62.7634 15.7058ZM14.7117 12.4056C13.5785 11.2525 11.9881 10.5368 10.2386 10.5368C8.48907 10.5368 6.91849 11.2525 5.76541 12.4056C4.63221 13.5388 3.9165 15.1292 3.9165 16.8787V75.1093C5.76541 73.6382 8.01193 72.9026 10.2386 72.9026C12.4851 72.9026 14.7316 73.6382 16.5805 75.1093V16.8787C16.5805 15.1292 15.8648 13.5388 14.7117 12.4056ZM94.2346 94.2545C95.3877 93.1014 96.1034 91.5109 96.1034 89.7614V30.1193C96.1034 28.3897 95.3877 26.7992 94.2346 25.6461C93.1014 24.5129 91.5109 23.7972 89.7614 23.7972H68.7077L85.9443 60.7356C86.7992 62.5845 86.9583 64.5924 86.4811 66.4612C86.0239 68.2505 85.0099 69.9006 83.4791 71.0934L84.831 74.0159C84.9901 74.334 85.0696 74.6918 85.0497 75.0298C85.0298 75.3678 84.9105 75.7058 84.7117 76.004C84.5129 76.3022 84.2346 76.5209 83.9165 76.6799C83.5984 76.8191 83.2604 76.8787 82.9026 76.839C82.5447 76.8191 82.2068 76.6799 81.9284 76.4811C81.67 76.2823 81.4314 76.004 81.2922 75.6859L70.6958 52.9622C66.7197 54.5129 62.505 55.2684 58.2903 55.2684C54.0755 55.2684 49.8608 54.5129 45.8648 52.9622L35.2883 75.6859C35.1491 76.004 34.9105 76.2823 34.6521 76.4811C34.3738 76.6799 34.0358 76.8191 33.6779 76.839C33.3201 76.8787 32.9821 76.8191 32.664 76.6799C32.3459 76.5209 32.0676 76.3022 31.8688 76.004C31.67 75.7058 31.5507 75.3678 31.5308 75.0298C31.5109 74.6918 31.5905 74.334 31.7495 74.0159L33.1014 71.0934C31.5706 69.9006 30.5368 68.2505 30.0994 66.4612C29.6223 64.5924 29.7813 62.5646 30.6362 60.7356L47.8529 23.7972H20.4771V83.1412C20.4771 83.6779 20.2584 84.1749 19.9006 84.5328C19.5626 84.8708 19.0656 85.0895 18.5288 85.0895C17.992 85.0895 17.495 84.8708 17.1372 84.5328C16.7992 84.1749 16.5805 83.6779 16.5805 83.1412C16.5805 81.3916 15.8648 79.8211 14.7117 78.668C13.5785 77.5149 11.9881 76.8191 10.2386 76.8191C8.48907 76.8191 6.91849 77.5149 5.76541 78.668C4.63221 79.8211 3.9165 81.3916 3.9165 83.1412V89.7614C3.9165 91.5109 4.63221 93.1014 5.76541 94.2545C6.91849 95.3877 8.48907 96.1034 10.2386 96.1034H89.7614C91.5109 96.1034 93.1014 95.3877 94.2346 94.2545Z" fill="#7BC46A"/>
</svg>
