<svg width="83" height="100" viewBox="0 0 83 100" fill="none" xmlns="http://www.w3.org/2000/svg">
<path fill-rule="evenodd" clip-rule="evenodd" d="M60.54 83.78C59.46 83.78 58.58 84.66 58.58 85.74C58.58 86.82 59.46 87.68 60.54 87.68C61.62 87.68 62.5 86.82 62.5 85.74C62.5 84.66 61.62 83.78 60.54 83.78ZM78.44 73.66C76.24 70.26 73.22 67.56 69.68 65.82C69.38 65.54 69 65.34 68.58 65.3C66.02 64.22 63.32 63.66 60.54 63.66H54.68V58.52C58.08 55.6 60.52 51.74 61.7 47.46H62.5C66.8 47.46 70.3 43.94 70.3 39.64C70.3 37.6 69.52 35.74 68.24 34.34C68.36 34.24 68.48 34.14 68.6 34.02C69.7 32.9 70.3 31.44 70.3 29.88C70.3 27.3 68.64 25.12 66.34 24.32C65.64 15.34 59.34 7.68 50.66 5.26C50.14 2.58 47.94 0 44.92 0H37.1C34.1 0 31.88 2.58 31.36 5.26C22.68 7.68 16.38 15.34 15.68 24.32C14.84 24.62 14.08 25.08 13.44 25.74C12.32 26.84 11.72 28.3 11.72 29.88C11.72 31.66 12.52 33.26 13.8 34.34C12.5 35.74 11.72 37.6 11.72 39.64C11.72 43.94 15.22 47.46 19.52 47.46H20.32C21.3 51.04 23.18 54.32 25.8 57.04C26.28 57.56 26.8 58.04 27.34 58.5V63.66H21.48C18.7 63.66 16 64.22 13.44 65.3C13.02 65.34 12.64 65.54 12.34 65.82C8.8 67.56 5.78 70.26 3.58 73.66C1.24 77.3 0 81.46 0 85.74V98.04C0 99.12 0.86 100 1.94 100H80.08C81.16 100 82.02 99.12 82.02 98.04V85.74C82.02 81.46 80.78 77.3 78.44 73.66ZM11.72 96.08H3.9V85.74C3.9 79.8 6.94 74.1 11.72 70.72V96.08ZM62.5 43.54H62.4C62.46 42.9 62.5 42.24 62.5 41.6V35.74C64.64 35.74 66.4 37.48 66.4 39.64C66.4 41.8 64.64 43.54 62.5 43.54ZM31.24 9.4V18.16C31.24 19.24 32.12 20.1 33.2 20.1C34.28 20.1 35.16 19.24 35.16 18.16V6.44C35.16 5.22 36.18 3.9 37.1 3.9H44.92C45.84 3.9 46.88 5.22 46.88 6.44V18.16C46.88 19.24 47.74 20.1 48.82 20.1C49.9 20.1 50.78 19.24 50.78 18.16V9.4C57.08 11.62 61.64 17.34 62.38 24.02H19.64C20.38 17.34 24.94 11.62 31.24 9.4ZM19.52 43.54C17.38 43.54 15.62 41.8 15.62 39.64C15.62 37.48 17.38 35.74 19.52 35.74V41.6C19.52 42.24 19.56 42.9 19.62 43.54H19.52ZM17.58 31.82C16.5 31.82 15.62 30.96 15.62 29.88C15.62 29.36 15.82 28.86 16.2 28.5C16.56 28.12 17.06 27.92 17.58 27.92H64.44C65.52 27.92 66.4 28.8 66.4 29.88C66.4 30.4 66.2 30.88 65.82 31.26C65.46 31.62 64.96 31.82 64.44 31.82H17.58ZM23.78 45.14C23.78 45.12 23.78 45.1 23.78 45.08C23.54 43.94 23.44 42.76 23.44 41.6V35.74H58.58V41.6C58.58 42.76 58.48 43.94 58.24 45.08C58.24 45.1 58.24 45.12 58.24 45.14C57.36 49.5 54.94 53.4 51.42 56.12C48.38 58.5 44.78 59.76 41.02 59.76C37.26 59.76 33.64 58.5 30.6 56.12C29.9 55.58 29.22 54.98 28.6 54.34C26.14 51.78 24.48 48.6 23.78 45.14ZM39.06 96.08H23.44V91.6C23.44 90.52 22.56 89.64 21.48 89.64C20.4 89.64 19.52 90.52 19.52 91.6V96.08H15.62V68.64C16.88 68.16 18.2 67.84 19.52 67.68V79.88C19.52 80.96 20.4 81.82 21.48 81.82C22.56 81.82 23.44 80.96 23.44 79.88V67.56H28.46L39.06 78.7V96.08ZM31.24 64.84V61.2C34.26 62.82 37.58 63.66 41.02 63.66C44.44 63.66 47.76 62.82 50.78 61.2V64.84L41.02 75.08L31.24 64.84ZM66.4 96.08H62.5V91.6C62.5 90.52 61.62 89.64 60.54 89.64C59.46 89.64 58.58 90.52 58.58 91.6V96.08H42.96V78.7L53.56 67.56H58.58V79.88C58.58 80.96 59.46 81.82 60.54 81.82C61.62 81.82 62.5 80.96 62.5 79.88V67.68C63.82 67.84 65.14 68.16 66.4 68.64V96.08ZM78.12 96.08H70.3V70.72C75.08 74.1 78.12 79.8 78.12 85.74V96.08ZM21.48 83.78C20.4 83.78 19.52 84.66 19.52 85.74C19.52 86.82 20.4 87.68 21.48 87.68C22.56 87.68 23.44 86.82 23.44 85.74C23.44 84.66 22.56 83.78 21.48 83.78Z" fill="#7BC46A"/>
</svg>
