<svg width="100" height="100" viewBox="0 0 100 100" fill="none" xmlns="http://www.w3.org/2000/svg">
<path d="M11.58 0H66.5C69.68 0 72.58 1.3 74.68 3.4C76.78 5.5 78.08 8.4 78.08 11.58V88.4C78.08 91.6 76.78 94.5 74.68 96.6C72.58 98.7 69.68 100 66.5 100H11.58C8.4 100 5.5 98.7 3.4 96.6C1.3 94.5 0 91.6 0 88.4V11.58C0 8.4 1.3 5.5 3.4 3.4C5.5 1.3 8.4 0 11.58 0ZM94.6 5.1H97.78C98.28 5.1 98.74 5.3 99.08 5.64C99.42 5.96 99.62 6.44 99.62 6.94V20.02H95.92V8.78H94.64V50.6H94.62C94.64 52.44 94.28 54.24 93.58 55.92C92.88 57.58 91.86 59.12 90.56 60.42L90.34 60.64C89.98 61 89.52 61.18 89.04 61.18C88.58 61.18 88.1 61 87.74 60.64L87.52 60.42C86.22 59.12 85.2 57.58 84.5 55.92C83.82 54.24 83.46 52.44 83.46 50.6V5.7C83.46 4.16 84.08 2.76 85.1 1.74C86.1 0.74 87.5 0.1 89.04 0.1C90.58 0.1 91.98 0.74 93 1.74C93.88 2.62 94.46 3.8 94.6 5.1ZM87.96 54.62C88.26 55.28 88.62 55.92 89.04 56.52C89.48 55.92 89.84 55.28 90.12 54.62C90.42 53.92 90.64 53.2 90.78 52.44H87.32C87.44 53.2 87.66 53.92 87.96 54.62ZM87.14 48.74H90.94V8.78H87.14V48.74ZM87.7 4.36C87.5 4.56 87.34 4.82 87.24 5.1H90.84C90.74 4.82 90.58 4.56 90.38 4.36C90.04 4.02 89.56 3.8 89.04 3.8C88.52 3.8 88.04 4.02 87.7 4.36ZM31.98 22.68H46.1C46.62 22.68 47.1 22.88 47.44 23.24C47.8 23.58 48.02 24.06 48.02 24.58C48.02 25.12 47.8 25.58 47.46 25.94C47.1 26.28 46.62 26.5 46.1 26.5H31.98C31.46 26.5 30.98 26.28 30.62 25.94C30.28 25.58 30.06 25.12 30.06 24.58C30.06 24.06 30.28 23.58 30.62 23.24C30.98 22.88 31.46 22.68 31.98 22.68ZM13.62 67.86H44.68C45.22 67.86 45.7 68.06 46.04 68.42C46.38 68.76 46.6 69.24 46.6 69.76C46.6 70.3 46.38 70.78 46.04 71.12C45.7 71.46 45.22 71.68 44.68 71.68H13.62C13.1 71.68 12.62 71.46 12.26 71.12C11.92 70.78 11.7 70.3 11.7 69.76C11.7 69.24 11.92 68.76 12.26 68.42C12.62 68.06 13.1 67.86 13.62 67.86ZM47.52 31.14H64.46C64.98 31.14 65.46 31.36 65.8 31.7C66.16 32.06 66.36 32.52 66.36 33.06C66.36 33.58 66.16 34.06 65.8 34.4C65.46 34.76 64.98 34.96 64.46 34.96H47.52C46.98 34.96 46.5 34.76 46.16 34.4C45.82 34.06 45.6 33.58 45.6 33.06C45.6 32.52 45.82 32.06 46.16 31.7C46.5 31.36 46.98 31.14 47.52 31.14ZM26.34 17.02H51.74C52.28 17.02 52.76 17.24 53.1 17.58C53.44 17.94 53.66 18.4 53.66 18.94C53.66 19.46 53.44 19.94 53.1 20.28C52.76 20.64 52.28 20.84 51.74 20.84H26.34C25.8 20.84 25.32 20.64 24.98 20.28C24.64 19.94 24.42 19.46 24.42 18.94C24.42 18.4 24.64 17.94 24.98 17.58C25.32 17.24 25.8 17.02 26.34 17.02ZM43.28 79.16H63.04C63.56 79.16 64.04 79.36 64.4 79.72C64.74 80.06 64.96 80.54 64.96 81.06C64.96 81.58 64.74 82.06 64.4 82.42C64.04 82.76 63.56 82.98 63.04 82.98H43.28C42.74 82.98 42.28 82.76 41.92 82.42C41.58 82.06 41.36 81.58 41.36 81.06C41.36 80.54 41.58 80.06 41.92 79.72C42.28 79.36 42.74 79.16 43.28 79.16ZM26.34 62.2H53.16C53.68 62.2 54.16 62.42 54.52 62.76C54.86 63.12 55.08 63.6 55.08 64.12C55.08 64.64 54.86 65.12 54.52 65.48C54.16 65.82 53.68 66.04 53.16 66.04H26.34C25.8 66.04 25.32 65.82 24.98 65.48C24.64 65.12 24.42 64.64 24.42 64.12C24.42 63.6 24.64 63.12 24.98 62.76C25.32 62.42 25.8 62.2 26.34 62.2ZM13.62 62.2H20.68C21.22 62.2 21.68 62.42 22.04 62.76C22.38 63.12 22.6 63.6 22.6 64.12C22.6 64.64 22.38 65.12 22.04 65.48C21.68 65.82 21.22 66.04 20.68 66.04H13.62C13.1 66.04 12.62 65.82 12.26 65.48C11.92 65.12 11.7 64.64 11.7 64.12C11.7 63.6 11.92 63.12 12.28 62.76C12.62 62.42 13.1 62.2 13.62 62.2ZM58.8 62.2H64.46C64.98 62.2 65.46 62.42 65.8 62.76C66.16 63.12 66.36 63.6 66.36 64.12C66.36 64.64 66.16 65.12 65.8 65.48C65.46 65.82 64.98 66.04 64.46 66.04H58.8C58.28 66.04 57.8 65.82 57.46 65.48C57.1 65.12 56.9 64.64 56.9 64.12C56.9 63.6 57.1 63.12 57.46 62.76C57.8 62.42 58.28 62.2 58.8 62.2ZM13.62 56.56H33.4C33.92 56.56 34.4 56.78 34.74 57.12C35.08 57.46 35.3 57.94 35.3 58.48C35.3 59 35.08 59.48 34.74 59.82C34.4 60.16 33.92 60.38 33.4 60.38H13.62C13.1 60.38 12.62 60.16 12.26 59.82C11.92 59.48 11.7 59 11.7 58.48C11.7 57.94 11.92 57.46 12.28 57.12C12.62 56.78 13.1 56.56 13.62 56.56ZM39.04 56.56H64.46C64.98 56.56 65.46 56.78 65.8 57.12C66.16 57.46 66.36 57.94 66.36 58.48C66.36 59 66.16 59.48 65.8 59.82C65.46 60.16 64.98 60.38 64.46 60.38H39.04C38.52 60.38 38.04 60.16 37.68 59.82C37.34 59.48 37.12 59 37.12 58.48C37.12 57.94 37.34 57.46 37.68 57.12C38.04 56.78 38.52 56.56 39.04 56.56ZM55.98 50.92H64.46C64.98 50.92 65.46 51.12 65.8 51.48C66.16 51.82 66.36 52.3 66.36 52.82C66.36 53.36 66.16 53.82 65.8 54.18C65.46 54.52 64.98 54.74 64.46 54.74H55.98C55.46 54.74 54.98 54.52 54.64 54.18C54.28 53.82 54.08 53.34 54.08 52.82C54.08 52.3 54.28 51.82 54.64 51.48C54.98 51.12 55.46 50.92 55.98 50.92ZM13.62 50.92H50.34C50.86 50.92 51.34 51.12 51.68 51.48C52.04 51.82 52.24 52.3 52.24 52.82C52.24 53.34 52.04 53.82 51.68 54.18C51.34 54.52 50.86 54.74 50.34 54.74H13.62C13.1 54.74 12.62 54.52 12.28 54.18C11.92 53.82 11.7 53.36 11.7 52.82C11.7 52.3 11.92 51.82 12.26 51.48C12.62 51.12 13.1 50.92 13.62 50.92ZM13.62 45.26H64.46C64.98 45.26 65.46 45.48 65.8 45.82C66.16 46.16 66.36 46.64 66.36 47.18C66.36 47.7 66.16 48.18 65.8 48.52C65.46 48.88 64.98 49.08 64.46 49.08H13.62C13.1 49.08 12.62 48.88 12.26 48.52C11.92 48.18 11.7 47.7 11.7 47.18C11.7 46.64 11.92 46.16 12.26 45.82C12.62 45.48 13.1 45.26 13.62 45.26ZM33.4 39.62H64.46C64.98 39.62 65.46 39.82 65.8 40.18C66.16 40.52 66.36 41 66.36 41.52C66.36 42.06 66.16 42.54 65.8 42.88C65.46 43.22 64.98 43.44 64.46 43.44H33.4C32.86 43.44 32.38 43.22 32.04 42.88C31.7 42.54 31.48 42.06 31.48 41.52C31.48 41 31.7 40.52 32.04 40.18C32.38 39.82 32.86 39.62 33.4 39.62ZM19.28 39.62H27.74C28.28 39.62 28.74 39.82 29.1 40.18C29.44 40.52 29.66 41 29.66 41.52C29.66 42.06 29.44 42.54 29.1 42.88C28.74 43.22 28.28 43.44 27.74 43.44H19.28C18.74 43.44 18.26 43.22 17.92 42.88C17.58 42.54 17.36 42.06 17.36 41.52C17.36 41 17.58 40.52 17.92 40.18C18.26 39.82 18.74 39.62 19.28 39.62ZM66.5 3.86H11.58C9.46 3.86 7.52 4.74 6.12 6.14C4.72 7.54 3.86 9.46 3.86 11.58V88.4C3.86 90.54 4.72 92.46 6.12 93.86C7.52 95.26 9.46 96.14 11.58 96.14H66.5C68.62 96.14 70.54 95.26 71.96 93.86C73.36 92.46 74.22 90.54 74.22 88.4V11.58C74.22 9.46 73.36 7.54 71.96 6.14C70.54 4.74 68.62 3.86 66.5 3.86Z" fill="#7BC46A"/>
</svg>
