<svg width="100" height="100" viewBox="0 0 100 100" fill="none" xmlns="http://www.w3.org/2000/svg">
<path fill-rule="evenodd" clip-rule="evenodd" d="M26.56 87.7C25.48 87.7 24.62 88.56 24.62 89.64C24.62 90.72 25.48 91.6 26.56 91.6C27.64 91.6 28.52 90.72 28.52 89.64C28.52 88.56 27.64 87.7 26.56 87.7ZM100 25.38C100 24.56 99.48 23.84 98.76 23.56L44.06 1.42C43 0.5 41.66 0 40.24 0C38.2 0 36.32 1.06 35.26 2.78L0.94 23.72C0.36 24.08 0 24.72 0 25.38V33.2C0 34.28 0.88 35.16 1.96 35.16H3.92V44.92C3.92 46 4.78 46.88 5.86 46.88H22.66C23.74 46.88 24.62 46 24.62 44.92V35.16H28.52C28.52 37.14 28.52 78.58 28.52 79.88H22.66C19.44 79.88 16.8 82.5 16.8 85.74V98.04C16.8 99.12 17.68 100 18.76 100H61.72C62.8 100 63.68 99.12 63.68 98.04V85.74C63.68 82.5 61.04 79.88 57.82 79.88H51.96C51.96 77.84 51.96 37.16 51.96 35.16H80.48V43.1C80.48 43.62 80.68 44.12 81.04 44.48L84.38 47.82V59.5C82.1 60.32 80.48 62.48 80.48 65.04C80.48 68.26 83.1 70.9 86.34 70.9C88.6 70.9 90.68 69.58 91.64 67.54C92.1 66.56 91.68 65.4 90.7 64.94C89.72 64.48 88.56 64.9 88.1 65.86C87.78 66.54 87.08 66.98 86.34 66.98C85.26 66.98 84.38 66.12 84.38 65.04C84.38 63.96 85.26 63.08 86.34 63.08C87.42 63.08 88.28 62.2 88.28 61.12V47.82L91.62 44.48C91.98 44.12 92.2 43.62 92.2 43.1V35.16H98.06C99.14 35.16 100 34.28 100 33.2V25.38ZM38.28 5.86C38.28 4.74 39.2 3.9 40.24 3.9C41.32 3.9 42.2 4.78 42.2 5.86V19.52H38.28V5.86ZM36.34 23.44C37.44 23.44 46.44 23.44 48.06 23.44C48.06 24.84 48.06 35.32 48.06 36.78L35.1 23.44H36.34ZM35.1 63.66H48.06V77.02L35.1 63.66ZM45.38 79.88H32.42V66.52L45.38 79.88ZM32.42 59.76V46.42L45.38 59.76H32.42ZM35.1 43.54H48.06V56.9L35.1 43.54ZM32.42 39.64C32.42 38.4 32.42 27.74 32.42 26.3L45.38 39.64H32.42ZM34.38 7.88V19.52H30.48C30.46 19.52 30.46 19.52 30.44 19.52C30.42 19.52 30.4 19.52 30.38 19.54C30.34 19.54 30.32 19.54 30.3 19.54C30.28 19.54 30.26 19.54 30.24 19.54C30.22 19.54 30.22 19.54 30.2 19.54L10.96 22.18L34.38 7.88ZM20.7 42.96H7.82V35.16H20.7V42.96ZM3.92 31.24V27.08L28.52 23.72V31.24C19.92 31.24 22.86 31.24 3.92 31.24ZM57.82 83.78C58.9 83.78 59.78 84.66 59.78 85.74V96.08H20.7V85.74C20.7 84.66 21.58 83.78 22.66 83.78C23.6 83.78 56.88 83.78 57.82 83.78ZM50.16 19.54C50.14 19.54 50.12 19.54 50.08 19.54C50.06 19.52 50.04 19.52 50 19.52H46.1V6.46L85.48 22.4L50.16 19.54ZM88.28 42.3L86.34 44.24L84.38 42.3V35.16H88.28V42.3ZM96.1 31.24H51.96V23.6L96.1 27.18V31.24ZM53.92 87.7H34.38C33.3 87.7 32.42 88.56 32.42 89.64C32.42 90.72 33.3 91.6 34.38 91.6H53.92C55 91.6 55.86 90.72 55.86 89.64C55.86 88.56 55 87.7 53.92 87.7Z" fill="#7BC46A"/>
</svg>
