<svg width="100" height="100" viewBox="0 0 100 100" fill="none" xmlns="http://www.w3.org/2000/svg">
<path fill-rule="evenodd" clip-rule="evenodd" d="M16.62 88.84C16.26 88.48 15.74 88.28 15.24 88.28C14.72 88.28 14.22 88.48 13.86 88.84C13.5 89.2 13.28 89.72 13.28 90.22C13.28 90.74 13.5 91.24 13.86 91.6C14.22 91.96 14.72 92.18 15.24 92.18C15.74 92.18 16.26 91.96 16.62 91.6C16.98 91.24 17.18 90.74 17.18 90.22C17.18 89.72 16.98 89.2 16.62 88.84ZM99.42 0.56C99.06 0.2 98.56 0 98.04 0H50C48.92 0 48.04 0.86 48.04 1.94V7.54L29.54 12.5C28.5 12.78 27.88 13.84 28.16 14.88L37.74 50.7L29.44 59C28.4 57.46 26.62 56.44 24.62 56.44H5.86C2.64 56.44 0 59.06 0 62.3V94.14C0 97.36 2.64 100 5.86 100H24.62C27.36 100 29.66 98.1 30.3 95.54L32.62 97.56C34.42 99.14 36.7 100 39.08 100H98.04C99.12 100 100 99.12 100 98.04V1.94C100 1.42 99.8 0.92 99.42 0.56ZM26.56 94.14C26.56 95.2 25.68 96.08 24.62 96.08H5.86C4.78 96.08 3.9 95.2 3.9 94.14V62.3C3.9 61.22 4.78 60.34 5.86 60.34H13.28V82.84C13.28 83.92 14.16 84.8 15.24 84.8C16.32 84.8 17.18 83.92 17.18 82.84V60.34H24.62C25.68 60.34 26.56 61.22 26.56 62.3V94.14ZM32.44 15.76L48.04 11.58V18.82L46.74 19.16C46.24 19.3 45.82 19.62 45.56 20.08C45.3 20.52 45.22 21.06 45.36 21.56C46.1 24.36 44.44 27.24 41.64 28C41.14 28.14 40.72 28.46 40.46 28.9C40.2 29.36 40.12 29.9 40.26 30.4L47.88 58.58H43.96L41.94 50.68C41.86 50.42 41.76 50.2 41.6 50L32.44 15.76ZM48.04 27.78V44.26L44.48 31.06C45.98 30.3 47.2 29.14 48.04 27.78ZM76.1 96.08H39.08C37.66 96.08 36.26 95.56 35.18 94.62L30.48 90.5V63.5L39 54.96L40.54 61.02C40.76 61.88 41.54 62.48 42.44 62.48L80.84 62.5C82.34 62.5 83.56 63.72 83.56 65.22C83.56 66.74 82.34 67.96 80.84 67.96H61.16C60.08 67.96 59.2 68.84 59.2 69.92C59.2 71 60.08 71.86 61.16 71.86H86.94C88.46 71.86 89.68 73.1 89.68 74.6C89.68 76.1 88.46 77.34 86.94 77.34H61.16C60.08 77.34 59.2 78.22 59.2 79.28C59.2 80.36 60.08 81.24 61.16 81.24H82.76C84.28 81.24 85.5 82.46 85.5 83.98C85.5 85.48 84.28 86.72 82.76 86.72H61.16C60.08 86.72 59.2 87.58 59.2 88.66C59.2 89.74 60.08 90.62 61.16 90.62H76.1C77.62 90.62 78.84 91.84 78.84 93.36C78.84 94.86 77.62 96.08 76.1 96.08ZM96.1 96.08H82.16C82.54 95.26 82.74 94.32 82.74 93.36C82.74 92.38 82.54 91.46 82.16 90.62H82.76C86.44 90.62 89.4 87.64 89.4 83.98C89.4 82.9 89.16 81.9 88.7 81C91.52 80.24 93.58 77.66 93.58 74.6C93.58 73.12 93.1 71.76 92.28 70.64V45.9C92.28 44.82 91.4 43.94 90.32 43.94C89.24 43.94 88.38 44.82 88.38 45.9V68.12C87.92 68.02 87.44 67.96 86.94 67.96H86.88C87.26 67.12 87.48 66.2 87.48 65.22C87.48 61.56 84.5 58.58 80.84 58.58H77.7C81.02 57.16 83.38 53.84 83.38 50C83.38 44.84 79.18 40.64 74.02 40.64C68.86 40.64 64.68 44.84 64.68 50C64.68 53.84 67.02 57.16 70.36 58.58H59.68V21.44C63.16 20.68 65.92 17.94 66.68 14.44H81.36C82.12 17.94 84.88 20.68 88.38 21.44V27.52C88.38 28.6 89.24 29.48 90.32 29.48C91.4 29.48 92.28 28.6 92.28 27.52V19.7C92.28 18.62 91.4 17.76 90.32 17.76C87.42 17.76 85.06 15.4 85.06 12.5C85.06 11.42 84.2 10.54 83.12 10.54H64.94C63.86 10.54 62.98 11.42 62.98 12.5C62.98 15.4 60.62 17.76 57.72 17.76C56.64 17.76 55.76 18.62 55.76 19.7V58.58H51.96V3.9H96.1V96.08ZM74.02 55.44C71.02 55.44 68.58 53 68.58 50C68.58 47 71.02 44.56 74.02 44.56C77.02 44.56 79.46 47 79.46 50C79.46 53 77.02 55.44 74.02 55.44ZM91.7 35.72C91.34 35.36 90.84 35.14 90.32 35.14C89.82 35.14 89.3 35.36 88.94 35.72C88.58 36.08 88.38 36.58 88.38 37.1C88.38 37.62 88.58 38.12 88.94 38.48C89.3 38.84 89.82 39.06 90.32 39.06C90.84 39.06 91.34 38.84 91.7 38.48C92.08 38.12 92.28 37.62 92.28 37.1C92.28 36.58 92.08 36.08 91.7 35.72Z" fill="#7BC46A"/>
</svg>
