<svg width="70" height="70" viewBox="0 0 70 70" fill="none" xmlns="http://www.w3.org/2000/svg">
<path d="M44.9591 50.4126C44.2231 49.9703 43.4677 49.5257 42.7124 49.0898C42.89 47.5763 42.8904 46.0454 42.7132 44.5349C43.4714 44.0974 44.2264 43.6531 44.9588 43.2127C46.192 42.4717 46.7061 40.9082 46.1543 39.5756L46.1541 39.5754L44.5448 35.6902C43.9929 34.358 42.5245 33.6155 41.1278 33.9634C40.2978 34.17 39.4497 34.3897 38.6047 34.6164C37.6612 33.4226 36.5785 32.3402 35.3832 31.3961C35.6099 30.5509 35.8297 29.7025 36.0364 28.8722C36.3844 27.4761 35.642 26.0072 34.3098 25.4553L30.4245 23.846C29.0924 23.2939 27.5284 23.8076 26.7871 25.0411C26.3457 25.7758 25.9009 26.5311 25.4645 27.2877C23.9515 27.1101 22.4208 27.1097 20.9096 27.2868C20.4718 26.5279 20.0274 25.7728 19.5876 25.0411C18.846 23.8079 17.2825 23.2941 15.9502 23.846L12.0649 25.4553C10.733 26.0071 9.99033 27.4761 10.3383 28.8722C10.5454 29.7041 10.765 30.5523 10.9912 31.3953C9.79756 32.3385 8.71502 33.4215 7.77112 34.6168C6.92401 34.3894 6.07554 34.1699 5.24689 33.9634C3.85044 33.6152 2.38182 34.3583 1.82988 35.6903L0.220844 39.5754C-0.330814 40.9078 0.18311 42.4714 1.41604 43.2124C2.1509 43.654 2.90627 44.0986 3.66273 44.5352C3.48527 46.0481 3.48486 47.5788 3.66191 49.0901C2.90476 49.5269 2.1498 49.9714 1.41576 50.4124C0.182837 51.1536 -0.331088 52.7171 0.220708 54.0495L1.83016 57.9348C2.38195 59.2668 3.85017 60.0096 5.24716 59.6615C6.07622 59.4551 6.92442 59.2355 7.77002 59.0086C8.71352 60.2023 9.79619 61.2845 10.9915 62.2287C10.7646 63.0749 10.5449 63.9233 10.3383 64.7527C9.99033 66.1487 10.7327 67.6177 12.0649 68.1695L15.9503 69.779C16.3112 69.9284 16.689 69.9998 17.0628 69.9998C18.0693 69.9998 19.0471 69.4831 19.5881 68.5841C20.0263 67.8549 20.4708 67.0998 20.9107 66.3375C22.4235 66.5148 23.9546 66.5151 25.4656 66.3383C25.9002 67.0919 26.3447 67.8469 26.7877 68.5842C27.529 69.8174 29.0925 70.331 30.4251 69.7792L34.3103 68.1699C35.6423 67.6181 36.3849 66.1491 36.037 64.7531C35.8315 63.9282 35.6119 63.08 35.384 62.2299C36.5774 61.2867 37.6601 60.2039 38.6043 59.0086C39.4489 59.2351 40.2974 59.4547 41.1281 59.6617C42.5241 60.0099 43.9932 59.2674 44.5451 57.9349L46.1544 54.0495C46.7059 52.7172 46.192 51.1536 44.9591 50.4126ZM41.715 56.5787C40.917 56.3788 40.1035 56.1674 39.2947 55.9495C38.1495 55.6415 36.9411 56.0441 36.2159 56.9758C35.3825 58.0464 34.4179 59.011 33.3492 59.8432C32.4186 60.5681 32.0165 61.7762 32.3248 62.9206C32.5439 63.7347 32.7552 64.5476 32.9538 65.34L29.3825 66.8192C28.9577 66.1104 28.5324 65.3862 28.1166 64.6638C27.525 63.6365 26.3864 63.0672 25.216 63.2121C23.8719 63.379 22.5076 63.3789 21.1617 63.2114C19.988 63.0657 18.8504 63.635 18.2589 64.6626C17.8381 65.3932 17.4126 66.1178 16.9925 66.819L13.4211 65.3397C13.6209 64.5431 13.8323 63.7297 14.0505 62.9197C14.3588 61.7747 13.9558 60.5661 13.0241 59.8408C11.9536 59.0075 10.9891 58.0431 10.1567 56.9745C9.43211 56.0436 8.22407 55.6416 7.07919 55.9498C6.2694 56.1678 5.45634 56.3792 4.65995 56.5788L3.18066 53.0076C3.88613 52.5846 4.6106 52.1593 5.33603 51.7416C6.36346 51.15 6.93331 50.0117 6.78784 48.8411C6.62063 47.4969 6.62104 46.1327 6.78825 44.7867C6.93426 43.6151 6.36483 42.4755 5.33685 41.8838C4.61169 41.4663 3.88708 41.0408 3.18052 40.6171L4.65982 37.0459C5.45552 37.2453 6.26872 37.4567 7.08001 37.675C8.22461 37.9835 9.4332 37.5804 10.1589 36.6487C10.9922 35.5782 11.9568 34.6135 13.0252 33.7815C13.956 33.0567 14.3581 31.8485 14.0498 30.7036C13.8324 29.8965 13.621 29.0835 13.4207 28.2846L16.9921 26.8054C17.4137 27.509 17.8392 28.2333 18.258 28.9608C18.8497 29.9882 19.9892 30.5589 21.1586 30.4124C22.5021 30.2452 23.8662 30.2452 25.2132 30.4131C26.3856 30.5591 27.5245 29.989 28.1159 28.9616C28.5333 28.2364 28.9589 27.5118 29.3822 26.8054L32.9536 28.2846C32.7537 29.082 32.5423 29.8954 32.3242 30.7049C32.0159 31.8498 32.4188 33.0583 33.3506 33.7836C34.421 34.6169 35.3856 35.5813 36.218 36.6499C36.9426 37.5806 38.1502 37.9827 39.2956 37.6745C40.1049 37.4566 40.9178 37.2452 41.7147 37.0455L43.1939 40.6167C42.4894 41.039 41.7651 41.4643 41.0385 41.8827C40.0111 42.4743 39.4411 43.6127 39.5867 44.7833C39.7539 46.1268 39.7537 47.4912 39.586 48.838C39.4403 50.0098 40.01 51.1491 41.0376 51.7406C41.7616 52.1575 42.4862 52.583 43.1939 53.0071L41.715 56.5787Z" fill="white"/>
<path d="M33.0534 42.726L33.0532 42.7258C30.8001 37.286 24.5417 34.6934 19.101 36.9466C13.6612 39.2 11.0685 45.459 13.3219 50.8989C14.4133 53.5342 16.466 55.5865 19.1011 56.6782C20.4187 57.2239 21.8031 57.4967 23.1875 57.4967C24.5719 57.4967 25.9563 57.2239 27.2741 56.6782C32.7139 54.4248 35.3065 48.166 33.0534 42.726ZM26.075 53.7833C24.2131 54.5546 22.1625 54.5544 20.3001 53.7833C18.4383 53.0121 16.9881 51.5618 16.2168 49.6998C14.6244 45.8561 16.4564 41.4336 20.3003 39.8415C21.2416 39.4516 22.2172 39.267 23.1778 39.267C26.1401 39.267 28.9562 41.0225 30.1586 43.925C31.7507 47.7687 29.9187 52.1911 26.075 53.7833Z" fill="white"/>
<path d="M67.888 13.7998C67.3471 13.7189 66.7916 13.6402 66.2322 13.5656C65.9503 12.6281 65.5737 11.7192 65.1092 10.856C65.4515 10.4082 65.7889 9.95965 66.115 9.51901C66.8389 8.53997 66.7342 7.15146 65.8717 6.28932L63.7104 4.12835C62.8479 3.26565 61.4593 3.16106 60.4806 3.88526C60.0384 4.21243 59.59 4.54971 59.1436 4.89082C58.2805 4.42626 57.3717 4.04973 56.434 3.76768C56.3592 3.20823 56.2809 2.65275 56.1999 2.11202C56.0199 0.908083 54.9641 0 53.7443 0H50.6878C49.468 0 48.4123 0.908083 48.2322 2.11189C48.1514 2.65233 48.073 3.20796 47.9982 3.76755C47.0604 4.0496 46.1515 4.42612 45.2886 4.89069C44.8424 4.54944 44.3937 4.21202 43.9517 3.88512C42.9727 3.16093 41.5842 3.26552 40.7219 4.12807L38.5609 6.28891C37.6982 7.15132 37.5934 8.53997 38.3176 9.51915C38.6434 9.95965 38.9808 10.4084 39.323 10.856C38.8587 11.7191 38.482 12.6278 38.2 13.5656C37.6407 13.6404 37.085 13.7189 36.5443 13.7998C35.3402 13.98 34.4322 15.0356 34.4322 16.2555V19.3119C34.4322 20.5317 35.34 21.5874 36.5441 21.7676C37.0849 21.8485 37.6404 21.9272 38.1998 22.0018C38.4819 22.9394 38.8584 23.8482 39.3229 24.7114C38.9809 25.1588 38.6435 25.6072 38.317 26.0484C37.5932 27.0272 37.6978 28.4159 38.5604 29.278L40.7216 31.4392C41.584 32.3019 42.9725 32.4063 43.9515 31.6823C44.3936 31.3554 44.842 31.0178 45.2883 30.6769C46.1517 31.1414 47.0606 31.5179 47.998 31.7999C48.0726 32.3592 48.1512 32.9148 48.2321 33.4557C48.4123 34.6596 49.468 35.5677 50.6878 35.5677H53.7443C54.9641 35.5677 56.0199 34.6599 56.1999 33.4555C56.2807 32.9147 56.3592 32.3592 56.434 31.7997C57.3716 31.5179 58.2804 31.1411 59.1436 30.6766C59.5897 31.0178 60.0384 31.3552 60.4804 31.6823C61.4592 32.4065 62.848 32.3019 63.7103 31.4393L65.8715 29.2784C66.7341 28.4159 66.8388 27.0273 66.1146 26.0483C65.7884 25.6072 65.451 25.1585 65.1092 24.7116C65.5735 23.8485 65.9501 22.9398 66.2322 22.0019C66.7915 21.9272 67.3471 21.8487 67.8878 21.7677C69.0919 21.5875 70 20.5319 70 19.312V16.2557C69.9999 15.0357 69.0919 13.98 67.888 13.7998ZM67.0232 18.8865C66.5321 18.9578 66.0311 19.0269 65.5284 19.0924C64.534 19.2222 63.72 19.9279 63.455 20.8901C63.2011 21.8115 62.8327 22.7006 62.36 23.5326C61.8663 24.4012 61.9425 25.4761 62.554 26.2714C62.8623 26.6722 63.1682 27.0757 63.4658 27.4744L61.9067 29.0336C61.5068 28.7352 61.1033 28.4295 60.7033 28.1219C59.9084 27.51 58.8333 27.4344 57.9645 27.9276C57.1323 28.4004 56.2433 28.7688 55.3225 29.0227C54.3597 29.2879 53.6539 30.102 53.5246 31.096C53.4591 31.5987 53.3901 32.1 53.3187 32.591H51.1134C51.0422 32.1 50.9732 31.5989 50.9076 31.0966C50.7778 30.1021 50.0722 29.2881 49.1097 29.0228C48.1886 28.7691 47.2998 28.4006 46.4673 27.9279C45.5986 27.4343 44.5235 27.5102 43.7287 28.1219C43.3286 28.4296 42.9254 28.7352 42.5252 29.0336L40.9661 27.4744C41.2637 27.0753 41.5694 26.6721 41.8781 26.2708C42.4893 25.4758 42.5654 24.4009 42.0718 23.5324C41.5992 22.7003 41.2308 21.8111 40.9769 20.89C40.7118 19.9275 39.8979 19.2219 38.9035 19.0922C38.4008 19.0265 37.8996 18.9576 37.4085 18.8861V16.6811C37.8996 16.6099 38.4007 16.5407 38.9034 16.4752C39.8978 16.3455 40.7118 15.6398 40.9767 14.6775C41.2306 13.7563 41.5989 12.8672 42.0717 12.035C42.5654 11.1665 42.4893 10.0915 41.878 9.29643C41.5691 8.89503 41.2634 8.49171 40.9661 8.09331L42.5252 6.53404C42.9251 6.8325 43.3284 7.1382 43.7283 7.44568C44.5229 8.05749 45.598 8.13378 46.4673 7.64009C47.2993 7.16746 48.1885 6.799 49.1094 6.54498C50.0722 6.27975 50.7779 5.46572 50.9073 4.47165C50.9729 3.96893 51.0421 3.46786 51.1133 2.97677H53.3186C53.3898 3.46772 53.4589 3.9688 53.5243 4.47124C53.6541 5.46572 54.3598 6.27975 55.3222 6.54484C56.2434 6.79873 57.1326 7.16732 57.9647 7.63996C58.8335 8.13365 59.9085 8.05695 60.7031 7.44582C61.1033 7.1382 61.5065 6.8325 61.9067 6.53404L63.4658 8.09331C63.1685 8.49185 62.8628 8.8953 62.5539 9.29684C61.9426 10.0917 61.8666 11.1666 62.3599 12.0352C62.8325 12.8675 63.201 13.7567 63.4549 14.6777C63.72 15.6402 64.5339 16.3458 65.5282 16.4755C66.0309 16.5411 66.5321 16.6102 67.0232 16.6815V18.8865Z" fill="white"/>
<path d="M52.2161 11.4399C48.7181 11.4399 45.8722 14.2857 45.8722 17.7838C45.8722 21.282 48.718 24.1278 52.2161 24.1278C55.7142 24.1278 58.56 21.282 58.56 17.7838C58.56 14.2857 55.7142 11.4399 52.2161 11.4399ZM52.2161 21.3077C50.2732 21.3077 48.6922 19.7268 48.6922 17.7836C48.6922 15.8405 50.273 14.2597 52.2161 14.2597C54.1591 14.2597 55.7399 15.8406 55.74 17.7836C55.74 19.7268 54.1591 21.3077 52.2161 21.3077Z" fill="white"/>
</svg>
