<svg width="422" height="424" viewBox="0 0 422 424" fill="none" xmlns="http://www.w3.org/2000/svg">
<path fill-rule="evenodd" clip-rule="evenodd" d="M243.245 244.124C246.161 244.999 249.512 247.852 249.512 252.5V416.398C249.512 420.789 245.952 424.348 241.562 424.348C237.171 424.348 233.612 420.789 233.612 416.398V272.302L218.986 290.097C216.198 293.489 211.189 293.979 207.797 291.191C204.405 288.403 203.915 283.393 206.703 280.001L233.82 247.008C236.428 243.792 240.369 243.261 243.245 244.124Z" fill="white"/>
<path d="M388.104 409.867H304.441L382.224 318.276C382.401 318.065 382.566 317.846 382.719 317.618C397.352 295.961 392.478 266.639 371.624 250.881C346.268 232.662 310.943 238.449 292.726 263.805C285.817 273.42 282.102 284.961 282.104 296.8C282.104 300.703 285.268 303.867 289.17 303.867C293.073 303.867 296.237 300.703 296.237 296.8C296.234 273.383 315.216 254.398 338.632 254.396C347.508 254.395 356.16 257.179 363.37 262.357C377.978 273.55 381.38 294.163 371.143 309.456L283.785 412.361C281.26 415.337 281.626 419.796 284.602 422.322C285.878 423.405 287.496 423.999 289.17 424H388.104C392.006 424 395.17 420.836 395.17 416.933C395.17 413.031 392.006 409.867 388.104 409.867Z" fill="white"/>
<path d="M190.955 374.668C191.103 370.768 188.06 367.487 184.16 367.339H184.157C91.9638 363.917 17.9679 290.054 14.3807 197.867H42.4C46.3026 197.867 49.4667 194.703 49.4667 190.8C49.4667 186.897 46.3026 183.733 42.4 183.733H14.3807C17.9166 91.7086 91.7077 17.9202 183.733 14.3877V35.3333C183.733 39.2359 186.897 42.4 190.8 42.4C194.703 42.4 197.867 39.2359 197.867 35.3333V14.3877C288.633 17.8981 361.889 89.7714 367.127 180.454L339.567 152.894C336.76 150.183 332.287 150.26 329.575 153.068C326.931 155.806 326.931 160.147 329.575 162.887L369.021 202.333C369.764 203.232 370.722 203.929 371.806 204.361C372.082 204.444 372.363 204.513 372.647 204.566C373.132 204.741 373.633 204.862 374.145 204.926C374.215 204.926 374.279 204.926 374.35 204.926C374.42 204.926 374.484 204.926 374.547 204.926C375.085 204.886 375.617 204.781 376.13 204.615C376.421 204.58 376.709 204.526 376.993 204.453C377.949 204.113 378.82 203.568 379.544 202.856L419.527 162.887C422.238 160.079 422.161 155.606 419.354 152.894C416.615 150.25 412.274 150.25 409.535 152.894L381.289 181.119C376.241 79.8268 292.719 0.248217 191.302 0.0989333C191.125 0.0918667 190.977 0 190.8 0C190.623 0 190.475 0.0918667 190.298 0.0989333C85.3141 0.242917 0.242917 85.3141 0.0989333 190.298C0.0989333 190.475 0 190.623 0 190.8C0 190.977 0.0918667 191.125 0.0989333 191.302C0.274717 293.695 81.3117 377.659 183.634 381.466H183.896C187.693 381.465 190.811 378.462 190.955 374.668Z" fill="white"/>
</svg>
