<?xml version="1.0" encoding="utf-8"?><svg xmlns="http://www.w3.org/2000/svg" xmlns:xlink="http://www.w3.org/1999/xlink"><symbol fill="none" viewBox="0 0 16 12" id="arrow-right" xmlns="http://www.w3.org/2000/svg"><path d="M15.53 6.53a.75.75 0 0 0 0-1.06L10.757.697a.75.75 0 0 0-1.06 1.06L13.939 6l-4.242 4.243a.75.75 0 0 0 1.06 1.06L15.53 6.53zM0 6.75h15v-1.5H0v1.5z" fill="#6EB03B"/></symbol><symbol fill="none" viewBox="0 0 38 38" id="arrow-up" xmlns="http://www.w3.org/2000/svg"><g opacity=".5" filter="url(#abfilter0_d)"><path d="M22.788 30h-7.576V12.954l-6.629 6.63L4 15 19 0l15 15-4.583 4.583-6.63-6.628V30z" fill="#fff"/></g><defs><filter id="abfilter0_d" x="0" y="0" width="38" height="38" filterUnits="userSpaceOnUse" color-interpolation-filters="sRGB"><feFlood flood-opacity="0" result="BackgroundImageFix"/><feColorMatrix in="SourceAlpha" values="0 0 0 0 0 0 0 0 0 0 0 0 0 0 0 0 0 0 127 0"/><feOffset dy="4"/><feGaussianBlur stdDeviation="2"/><feColorMatrix values="0 0 0 0 0 0 0 0 0 0 0 0 0 0 0 0 0 0 0.25 0"/><feBlend in2="BackgroundImageFix" result="effect1_dropShadow"/><feBlend in="SourceGraphic" in2="effect1_dropShadow" result="shape"/></filter></defs></symbol><symbol viewBox="0 0 492.004 492.004" id="arrownext" xmlns="http://www.w3.org/2000/svg"><path d="M382.678 226.804L163.73 7.86C158.666 2.792 151.906 0 144.698 0s-13.968 2.792-19.032 7.86l-16.124 16.12c-10.492 10.504-10.492 27.576 0 38.064L293.398 245.9l-184.06 184.06c-5.064 5.068-7.86 11.824-7.86 19.028 0 7.212 2.796 13.968 7.86 19.04l16.124 16.116c5.068 5.068 11.824 7.86 19.032 7.86s13.968-2.792 19.032-7.86L382.678 265c5.076-5.084 7.864-11.872 7.848-19.088.016-7.244-2.772-14.028-7.848-19.108z" data-original="#000000" class="acactive-path" data-old_color="#ffffff" fill="#fff"/></symbol><symbol viewBox="0 0 492 492" id="arrowprev" xmlns="http://www.w3.org/2000/svg"><path d="M198.608 246.104L382.664 62.04c5.068-5.056 7.856-11.816 7.856-19.024 0-7.212-2.788-13.968-7.856-19.032l-16.128-16.12C361.476 2.792 354.712 0 347.504 0s-13.964 2.792-19.028 7.864L109.328 227.008c-5.084 5.08-7.868 11.868-7.848 19.084-.02 7.248 2.76 14.028 7.848 19.112l218.944 218.932c5.064 5.072 11.82 7.864 19.032 7.864 7.208 0 13.964-2.792 19.032-7.864l16.124-16.12c10.492-10.492 10.492-27.572 0-38.06L198.608 246.104z" data-original="#000000" class="adactive-path" data-old_color="#ffffff" fill="#fff"/></symbol><symbol viewBox="0 0 524.84 524.84" id="car-large" xmlns="http://www.w3.org/2000/svg"><path d="M40.908 319.876h307.608v42.55H124.724c-6.673-18.325-24.265-31.464-44.881-31.464-20.307 0-37.683 12.75-44.581 30.66-8.5-2.458-14.72-10.271-14.72-19.562v-1.807c0-11.261 9.116-20.377 20.366-20.377zm72.89 54.096c0 19.595-15.943 35.535-35.543 35.535-19.587 0-35.535-15.94-35.535-35.535s15.948-35.546 35.535-35.546c19.6 0 35.543 15.951 35.543 35.546zm-10.87 0c0-13.604-11.067-24.674-24.673-24.674-13.604 0-24.665 11.07-24.665 24.674 0 13.598 11.067 24.668 24.665 24.668 13.612 0 24.673-11.064 24.673-24.668zm370.082 0c0 19.595-15.946 35.535-35.539 35.535-19.595 0-35.54-15.94-35.54-35.535s15.945-35.546 35.54-35.546c19.593 0 35.539 15.951 35.539 35.546zm-10.867 0c0-13.604-11.07-24.674-24.666-24.674-13.605 0-24.668 11.07-24.668 24.674 0 13.598 11.062 24.668 24.668 24.668 13.596 0 24.666-11.064 24.666-24.668zm62.697-102.085v80.355a6.791 6.791 0 0 1-6.788 6.791h-35.505c-7.521-16.536-24.167-28.071-43.497-28.071-19.315 0-35.972 11.535-43.497 28.071h-23.948a6.796 6.796 0 0 1-6.798-6.791V190.86a6.793 6.793 0 0 1 6.798-6.791h89.399c3.754 0 9.455 1.251 13.587 6.791l50.249 81.027zm-31.679-17.653l-30.559-50.703c-2.363-4.367-5.264-6.788-15.628-6.788h-55.451a6.79 6.79 0 0 0-6.793 6.788v50.703a6.79 6.79 0 0 0 6.793 6.791h94.839c3.75 0 6.799-3.037 6.799-6.791zm26.47 77.177c0-3.489-2.835-6.336-6.337-6.336s-6.336 2.847-6.336 6.336v12.008c0 3.501 2.834 6.335 6.336 6.335s6.337-2.834 6.337-6.335v-12.008zM0 307.717h348.516V115.333H0v192.384z"/></symbol><symbol viewBox="0 0 612.001 612.001" id="car-small" xmlns="http://www.w3.org/2000/svg"><path d="M589.333 276.033c-11.234-3.756-89.378-20.834-89.378-20.834s-144.86-82.375-162.245-82.375-136.639.053-136.639.053c-29.137 0-53.487 22.203-81.68 47.909-13.287 12.112-27.953 25.442-44.13 37.299l-60.249 8.011C6.306 268.872 0 277.018 0 286.643v69.03c0 11.913 9.656 21.571 21.57 21.571h41.401c3.007 34.65 32.153 61.932 67.57 61.932 35.415 0 64.563-27.283 67.57-61.931h197.687c3.007 34.65 32.153 61.931 67.57 61.931s64.563-27.283 67.57-61.931h34.013c26.95 0 40.119-11.64 43.426-22.566 8.362-27.649 2.347-71.494-19.044-78.646zM130.541 406.48c-19.38 0-35.148-15.766-35.148-35.146s15.766-35.148 35.148-35.148c19.38 0 35.146 15.766 35.146 35.148.001 19.38-15.766 35.146-35.146 35.146zm130.467-151.279H143.134c8.526-6.736 16.409-13.886 23.671-20.505 19.086-17.402 35.57-32.432 55.294-32.432l38.91-.017v52.954zm28.703-52.965c14.588-.005 27.592-.009 34.116-.009 16.245 0 82.135 38.264 106.864 52.975h-140.98v-52.966zM463.367 406.48c-19.38 0-35.146-15.766-35.146-35.146s15.766-35.148 35.146-35.148c19.38 0 35.148 15.766 35.148 35.148 0 19.38-15.768 35.146-35.148 35.146z"/></symbol><symbol fill="none" viewBox="0 0 30 30" id="icon1" xmlns="http://www.w3.org/2000/svg"><g opacity=".2" fill="#fff"><path d="M10.781 15.031A4.225 4.225 0 0 0 15 19.25a4.225 4.225 0 0 0 4.219-4.219A4.225 4.225 0 0 0 15 10.812a4.225 4.225 0 0 0-4.219 4.22zm8.438-5.156a.94.94 0 0 0 .937.938.94.94 0 0 0 .938-.938.94.94 0 0 0-.938-.938.94.94 0 0 0-.937.938z"/><path fill-rule="evenodd" clip-rule="evenodd" d="M15 30c8.284 0 15-6.716 15-15 0-8.284-6.716-15-15-15C6.716 0 0 6.716 0 15c0 8.284 6.716 15 15 15zM7 9.344A2.345 2.345 0 0 1 9.344 7h11.312A2.345 2.345 0 0 1 23 9.344v11.312A2.345 2.345 0 0 1 20.656 23H9.344A2.345 2.345 0 0 1 7 20.656V9.344z"/></g></symbol><symbol fill="none" viewBox="0 0 30 30" id="icon2" xmlns="http://www.w3.org/2000/svg"><path opacity=".2" fill-rule="evenodd" clip-rule="evenodd" d="M15 30c8.284 0 15-6.716 15-15 0-8.284-6.716-15-15-15C6.716 0 0 6.716 0 15c0 8.284 6.716 15 15 15zm1.78-23l1.919.003c.166 0 .301.147.301.327v2.442c0 .18-.135.326-.302.326h-1.292c-.891 0-1.054.376-1.054 1.116v1.54h2.256a.29.29 0 0 1 .214.095.34.34 0 0 1 .088.23v2.631c0 .18-.136.326-.302.326h-2.256v6.638c0 .18-.135.326-.302.326h-2.517c-.167 0-.302-.146-.302-.326v-6.638h-1.93c-.166 0-.301-.146-.301-.326v-2.63c0-.18.135-.327.302-.327h1.929v-1.815C13.231 8.546 14.624 7 16.78 7z" fill="#fff"/></symbol><symbol fill="none" viewBox="0 0 30 30" id="icon3" xmlns="http://www.w3.org/2000/svg"><path opacity=".2" fill-rule="evenodd" clip-rule="evenodd" d="M15 30c8.284 0 15-6.716 15-15 0-8.284-6.716-15-15-15C6.716 0 0 6.716 0 15c0 8.284 6.716 15 15 15zm5.97-12.192c-.16-.15-.32-.298-.478-.45-.539-.515-.573-.814-.14-1.408.251-.346.513-.684.774-1.023.23-.297.46-.595.682-.897l.05-.069c.43-.582.86-1.166 1.084-1.861.149-.461.017-.664-.464-.745a1.528 1.528 0 0 0-.252-.014l-2.852-.003c-.351-.007-.546.144-.67.45-.167.413-.34.826-.54 1.224-.453.905-.96 1.779-1.67 2.518l-.03.032c-.149.156-.316.331-.561.253-.327-.118-.423-.648-.418-.826l-.003-3.232c-.063-.46-.167-.667-.634-.757h-2.963c-.395 0-.594.15-.804.393-.122.14-.16.232.091.279.492.091.769.404.842.887.119.774.11 1.55.042 2.327-.02.226-.06.453-.15.664-.144.332-.376.4-.68.196-.275-.185-.468-.447-.657-.71a15.53 15.53 0 0 1-1.74-3.165c-.134-.322-.364-.518-.712-.523a72.512 72.512 0 0 0-2.567.001c-.515.009-.669.255-.46.713.933 2.035 1.97 4.014 3.324 5.815.695.925 1.494 1.742 2.524 2.32 1.17.657 2.427.854 3.753.792.62-.027.807-.187.835-.793.02-.415.068-.828.276-1.201.204-.367.515-.436.873-.208.18.114.329.258.472.412.113.12.224.243.336.366.233.256.467.512.712.758.454.454.994.722 1.67.666l2.622.002c.422-.028.642-.536.4-.998a5.059 5.059 0 0 0-.633-.894c-.394-.463-.838-.877-1.284-1.291z" fill="#fff"/></symbol><symbol fill="none" viewBox="0 0 75 76" id="infro1" xmlns="http://www.w3.org/2000/svg"><path fill-rule="evenodd" clip-rule="evenodd" d="M17.273 37.8a20.2 20.2 0 0 1 4.73-13 20.158 20.158 0 0 1 11.982-6.926 20.243 20.243 0 0 1 22.526 13 20.222 20.222 0 0 1-8.65 24.291v2.274a4.16 4.16 0 0 1 1.555 1.202 4.143 4.143 0 0 1 .497 4.416 4.224 4.224 0 0 1-1.176 1.463c.196.432.313.889.34 1.36a4.128 4.128 0 0 1-.262 1.816 4.147 4.147 0 0 1-1.045 1.528 4.254 4.254 0 0 1-1.307.823 6.69 6.69 0 0 1-2.208 3.672A6.585 6.585 0 0 1 39.97 75.3h-4.938a6.585 6.585 0 0 1-4.286-1.581 6.69 6.69 0 0 1-2.208-3.672 4.022 4.022 0 0 1-1.307-.823 4.146 4.146 0 0 1-1.045-1.529 4.128 4.128 0 0 1-.262-1.816 3.81 3.81 0 0 1 .34-1.359 4.224 4.224 0 0 1-1.176-1.463 4.255 4.255 0 0 1-.392-2.287 4.143 4.143 0 0 1 .889-2.13 4.16 4.16 0 0 1 1.555-1.201v-2.274a20.143 20.143 0 0 1-7.16-7.252A20.127 20.127 0 0 1 17.272 37.8zM1.516 29.921l5.866-.732c.327-1.15.72-2.286 1.163-3.384.458-1.097.98-2.182 1.555-3.214l-3.62-4.665a1.73 1.73 0 0 1-.352-1.162c.013-.419.183-.81.497-1.124l8.728-8.715c.3-.314.692-.484 1.11-.51a1.84 1.84 0 0 1 1.163.366l4.652 3.62a33.292 33.292 0 0 1 3.227-1.556A30.458 30.458 0 0 1 28.89 7.67l.732-5.866c.052-.432.261-.81.575-1.072.3-.274.706-.431 1.137-.431h12.334c.431 0 .837.157 1.137.431.314.275.523.654.575 1.085l.732 5.866c1.15.327 2.286.72 3.384 1.163a30.75 30.75 0 0 1 3.227 1.568l4.652-3.632a1.75 1.75 0 0 1 1.163-.353 1.7 1.7 0 0 1 1.123.497l8.715 8.715c.314.313.484.705.51 1.123.026.405-.105.824-.366 1.163l-3.62 4.665a31.659 31.659 0 0 1 1.556 3.214 30.47 30.47 0 0 1 1.176 3.384l5.853.732c.431.052.81.262 1.085.575.274.3.431.706.431 1.137v12.334c0 .431-.157.837-.431 1.137a1.708 1.708 0 0 1-1.085.575l-5.866.732a33.313 33.313 0 0 1-1.163 3.384 31.659 31.659 0 0 1-1.555 3.214l3.62 4.665c.26.34.378.758.365 1.163a1.72 1.72 0 0 1-.51 1.123l-8.728 8.715a1.69 1.69 0 0 1-1.11.51 1.814 1.814 0 0 1-1.163-.366l-5.959-4.638 2.117-2.718 4.756 3.698 6.573-6.573-3.398-4.377a1.724 1.724 0 0 1-.365-.954c-.014-.34.065-.692.248-.993a26.436 26.436 0 0 0 1.92-3.789c.536-1.306.98-2.652 1.32-4.037.079-.353.275-.654.523-.876.261-.235.588-.379.94-.43l5.501-.68V33.15l-5.5-.68a1.692 1.692 0 0 1-.941-.431 1.668 1.668 0 0 1-.523-.876 29.137 29.137 0 0 0-1.32-4.037 26.436 26.436 0 0 0-1.92-3.79 1.787 1.787 0 0 1-.248-.992 1.76 1.76 0 0 1 .365-.954l3.398-4.377-6.573-6.573-4.377 3.398c-.274.222-.614.34-.954.366a1.786 1.786 0 0 1-.993-.249 26.457 26.457 0 0 0-3.789-1.92 28.59 28.59 0 0 0-4.037-1.32 1.668 1.668 0 0 1-.876-.523 1.785 1.785 0 0 1-.431-.94l-.68-5.501h-9.303l-.679 5.5c-.04.353-.196.68-.431.941a1.668 1.668 0 0 1-.876.523 29.16 29.16 0 0 0-4.037 1.32 26.457 26.457 0 0 0-3.79 1.92c-.3.183-.653.262-.992.248a1.761 1.761 0 0 1-.954-.365l-4.377-3.398-6.573 6.573 3.41 4.377c.21.274.34.614.353.954.027.34-.065.692-.248.993a29.448 29.448 0 0 0-1.92 3.789 28.588 28.588 0 0 0-1.32 4.037 1.668 1.668 0 0 1-.523.876 1.74 1.74 0 0 1-.94.431l-5.502.68v9.29l5.501.692c.366.04.68.196.941.418.248.235.444.536.523.889a29.74 29.74 0 0 0 1.32 4.037 28.47 28.47 0 0 0 1.92 3.776c.183.314.275.654.248.993-.013.353-.143.68-.352.967l-3.41 4.377 6.572 6.573 4.756-3.711 2.116 2.73-5.958 4.64a1.738 1.738 0 0 1-2.274-.144l-8.727-8.729c-.314-.3-.47-.705-.497-1.11a1.73 1.73 0 0 1 .353-1.163l3.632-4.665a29.413 29.413 0 0 1-1.568-3.227 33.092 33.092 0 0 1-1.163-3.371l-5.866-.732a1.708 1.708 0 0 1-1.085-.575A1.75 1.75 0 0 1 0 43.967V31.633c0-.431.157-.836.431-1.137a1.708 1.708 0 0 1 1.085-.575zM54.29 37.8c0-4.116-1.49-7.918-3.998-10.871a16.747 16.747 0 0 0-10.087-5.697 16.712 16.712 0 0 0-11.368 2.195 16.691 16.691 0 0 0-7.252 9.029 16.762 16.762 0 0 0 .34 11.577 16.719 16.719 0 0 0 7.748 8.61 1.71 1.71 0 0 1 .915 1.516v2.888h13.824v-2.888a1.71 1.71 0 0 1 .915-1.516 16.758 16.758 0 0 0 6.546-6.18A16.696 16.696 0 0 0 54.29 37.8zm-8.153 22.696H28.863a.69.69 0 0 0-.522.222.74.74 0 0 0-.223.523c0 .209.092.392.223.523a.74.74 0 0 0 .522.222h17.274a.74.74 0 0 0 .522-.222.69.69 0 0 0 .223-.523.74.74 0 0 0-.223-.523.69.69 0 0 0-.522-.222zM35.03 71.851h4.938c.68 0 1.32-.21 1.843-.588.34-.236.627-.55.85-.902H32.338c.222.353.51.666.85.902a3.127 3.127 0 0 0 1.842.588zm-4.926-4.926h14.79a.796.796 0 0 0 .536-.222.753.753 0 0 0 .21-.523.785.785 0 0 0-.21-.536.785.785 0 0 0-.535-.209H30.104a.785.785 0 0 0-.536.21.785.785 0 0 0-.21.535c0 .196.08.392.21.522a.793.793 0 0 0 .536.223z" fill="#87E06E"/></symbol><symbol fill="none" viewBox="0 0 77 76" id="infro2" xmlns="http://www.w3.org/2000/svg"><path fill-rule="evenodd" clip-rule="evenodd" d="M4.583 75.157V.3H1v74.857h3.583zM16.598 4.185V.443h-3.583v3.742h3.583zm0 14.972V11.67h-3.583v7.486h3.583zm0 14.971v-7.485h-3.583v7.485h3.583zm0 14.972v-7.486h-3.583V49.1h3.583zm0 14.971v-7.485h-3.583v7.485h3.583zm0 11.229v-3.743h-3.583V75.3h3.583zm12.399-24.266H24.67v-3.583h4.328v3.583zm17.314 0h-8.657v-3.583h8.657v3.583zm17.314 0h-8.657v-3.583h8.657v3.583zm12.986 0h-4.329v-3.583h4.329v3.583zM29.056 39.168V.3h-3.583v38.868h3.583zm0 35.989V60.763h-3.583v14.395h3.583z" fill="#87E06E"/><path fill-rule="evenodd" clip-rule="evenodd" d="M76.21 63.993H25.478V60.41h50.73v3.583zm0-24.473H25.478v-3.583H76.21v3.583z" fill="#87E06E"/><path fill-rule="evenodd" clip-rule="evenodd" d="M4.883 0v75.457H.7V0h4.183zm12.015.143v4.342h-4.184V.143h4.184zm0 11.228v8.086h-4.184V11.37h4.184zm0 14.972v8.085h-4.184v-8.085h4.184zm0 14.971V49.4h-4.184v-8.086h4.184zm0 14.972v8.085h-4.184v-8.085h4.184zm0 14.971V75.6h-4.184v-4.343h4.184zm7.47-19.923v-4.183h4.93v4.183h-4.93zm12.986 0v-4.183h9.257v4.183h-9.257zm17.314 0v-4.183h9.257v4.183h-9.257zm17.315 0v-4.183h4.928v4.183h-4.928zM29.355 0v35.637H76.51v4.183H25.178v-.352h-.005V0h4.183zm-3.883 39.168h.005v.352H76.21v-3.583H29.056V.3h-3.583v38.868zm3.583 24.825v11.164h-3.583V60.763h.006v-.352h50.73v3.583H29.056zm-3.877-3.531h-.006v14.995h4.183V64.293h47.153V60.11H25.18v.352zM1 .3h3.583v74.857H1V.3zm15.598.143v3.742h-3.583V.443h3.583zm-3.583 56.143h3.583v7.485h-3.583v-7.485zm3.583 14.971V75.3h-3.583v-3.743h3.583zm12.4-20.523h-4.33v-3.583h4.33v3.583zm17.313 0h-8.657v-3.583h8.657v3.583zm17.314 0h-8.657v-3.583h8.657v3.583zm12.986 0h-4.329v-3.583h4.329v3.583zM16.598 11.671h-3.583v7.486h3.583V11.67zm0 14.972h-3.583v7.485h3.583v-7.485zm0 14.971h-3.583V49.1h3.583v-7.486z" fill="#87E06E"/></symbol><symbol fill="none" viewBox="0 0 68 76" id="infro3" xmlns="http://www.w3.org/2000/svg"><path fill-rule="evenodd" clip-rule="evenodd" d="M6.305 74.398l.033-68.247-3.375-.002-.033 68.248 3.375.001zm18.937.437l.033-68.675 3.375.002-.033 68.675-3.375-.002z" fill="#87E06E"/><path fill-rule="evenodd" clip-rule="evenodd" d="M45.68 1.69L47.116.3l2.348 2.424L48.24 3.91C33.486 18.2 22.563 28.78 15.505 39.22 8.335 49.827 5.188 60.25 6.3 74.264l-3.364.267c-1.175-14.812 2.195-25.99 9.773-37.2 7.259-10.738 18.41-21.538 32.971-35.64zm9.06 22.357c2.97-2.881 6.014-5.834 9.055-8.872l2.385 2.387c-3.146 3.143-6.253 6.157-9.258 9.072-7.739 7.506-14.797 14.353-20.088 21.046-7.317 9.257-10.844 17.732-8.282 26.692l-3.245.928c-3.016-10.551 1.344-20.179 8.88-29.712 5.438-6.88 12.744-13.967 20.552-21.54z" fill="#87E06E"/><path fill-rule="evenodd" clip-rule="evenodd" d="M31.578 16.183L.025 16.168l.002-3.374 31.553.015-.002 3.374zm-.006 12.993L.02 29.161l.001-3.375 31.554.015-.002 3.375zm24.346 2.785l-22.3-22.322 2.387-2.386 22.3 22.323-2.387 2.385z" fill="#87E06E"/><path fill-rule="evenodd" clip-rule="evenodd" d="M47.078 41.682l-19.48-19.498 2.388-2.385 19.48 19.498-2.388 2.385zm-9.285 9.276l-12.059-12.07 2.388-2.386 12.058 12.07-2.387 2.386zm26.927-26.9L48.95 8.273l2.387-2.385 15.77 15.785-2.388 2.385z" fill="#87E06E"/><path fill-rule="evenodd" clip-rule="evenodd" d="M27.854 42.167L.013 42.153l.001-3.374 27.841.013-.001 3.375zm3.706 12.994L.006 55.146l.002-3.374 31.553.015-.001 3.374zm-.007 12.993L0 68.139l.002-3.375 31.553.015-.002 3.375z" fill="#87E06E"/></symbol><symbol fill="none" viewBox="0 0 93 76" id="infro4" xmlns="http://www.w3.org/2000/svg"><path fill-rule="evenodd" clip-rule="evenodd" d="M0 75.3V44.943h4.107V75.3H0z" fill="#87E06E"/><path d="M65.588 44.794a1.935 1.935 0 1 1-3.87 0 1.935 1.935 0 0 1 3.87 0z" fill="#87E06E"/><path fill-rule="evenodd" clip-rule="evenodd" d="M39.232 1.467l52.464 30.006a1.938 1.938 0 0 1-.095 3.413l-6.97 3.488c.18.864.302 1.71.302 2.53 0 7.474-6.076 13.555-13.542 13.555-.145 0-.285-.019-.425-.038a4.81 4.81 0 0 0-.275-.03l-1.433 2.87a1.943 1.943 0 0 1-1.73 1.07c-.337 0-.67-.087-.968-.259l-16.463-9.508-2.126 3.546a8.857 8.857 0 0 1-7.56 4.285c-.63 0-1.246-.12-1.856-.253l-3.171 4.76a11.58 11.58 0 0 1-9.658 5.172H1.6V62.21h24.126c2.594 0 5-1.288 6.438-3.446l2.782-4.172-3.322-1.993-2.679 4.02a3.853 3.853 0 0 1-3.219 1.722H1.6v-3.875h24.126l2.945-4.43c-1.094-1.443-1.774-3.188-1.774-5.044a8.44 8.44 0 0 1 1.678-5.035l1.999-2.667-11.065-6.39a8.465 8.465 0 0 1-4.218-7.312c0-1.742.527-3.415 1.524-4.843L26.98 4.215C29.646.399 35.185-.851 39.232 1.468zM37.866 51.83c2.252 1.355 5.435.554 6.788-1.696l2.09-3.486-12.796-7.383-2.279 3.038a4.556 4.556 0 0 0-.902 2.711c0 1.578.84 3.062 2.193 3.873l4.906 2.943zM21.442 27.583l45.273 26.122 6-12.014-47.873-27.619-4.857 6.937a4.548 4.548 0 0 0-.825 2.62c0 1.627.874 3.142 2.282 3.954zm55.26 14.783l-4.05 8.11c4.733-.626 8.412-4.644 8.412-9.545 0-.154-.02-.314-.039-.474-.01-.08-.02-.16-.026-.24l-4.298 2.15zM27.07 10.89l48.256 27.84 11.313-5.656L37.312 4.887a5.448 5.448 0 0 0-7.164 1.606l-3.08 4.397z" fill="#87E06E"/></symbol><symbol fill="none" viewBox="0 0 67 76" id="infro5" xmlns="http://www.w3.org/2000/svg"><path fill-rule="evenodd" clip-rule="evenodd" d="M60.535 1.003l.144.144v.065a33.298 33.298 0 0 1 6.104 19.227c0 6.782-2.06 13.578-6.208 19.37a1.776 1.776 0 0 1-1.174.743 1.826 1.826 0 0 1-1.357-.313l-.052-.04-.013-.012a1.821 1.821 0 0 1-.678-1.135 1.826 1.826 0 0 1 .313-1.357 29.662 29.662 0 0 0 5.543-17.256 29.672 29.672 0 0 0-5.543-17.27 1.786 1.786 0 0 1-.3-1.344c.065-.43.3-.835.665-1.122l.052-.052c.404-.287.9-.391 1.357-.326.43.078.848.3 1.148.678zM8.74.638l.052.04c.379.286.613.704.692 1.134.065.457-.026.952-.313 1.357a29.672 29.672 0 0 0-5.544 17.27c0 6.039 1.852 12.09 5.544 17.256.287.405.378.887.3 1.344a1.874 1.874 0 0 1-.718 1.174c-.404.287-.9.391-1.356.326a1.866 1.866 0 0 1-1.187-.73A33.317 33.317 0 0 1 0 20.438 33.356 33.356 0 0 1 6.209 1.056a1.807 1.807 0 0 1 1.174-.73h.013c.456-.08.939.025 1.343.312zm8.179 6.953c-.013 0-.026.026-.026.026a20.766 20.766 0 0 0-4.41 12.822c0 4.526 1.462 9.039 4.41 12.808.3.392.43.874.365 1.344-.052.443-.274.86-.64 1.174l-.012.013-.04.013a1.796 1.796 0 0 1-2.504-.261l-.04-.052a24.371 24.371 0 0 1-5.177-15.04 24.38 24.38 0 0 1 5.178-15.052 1.799 1.799 0 0 1 1.213-.678c.444-.065.913.052 1.304.339l.026.026c.392.3.627.744.692 1.2.052.457-.052.926-.34 1.318zm32.609-1.318c.065-.43.274-.86.639-1.16l.052-.04c.391-.313.874-.43 1.33-.378.47.065.9.287 1.213.691a24.371 24.371 0 0 1 5.179 15.04c0 5.308-1.722 10.63-5.178 15.052-.3.391-.744.626-1.2.678a1.748 1.748 0 0 1-1.344-.365 1.868 1.868 0 0 1-.691-1.213 1.79 1.79 0 0 1 .378-1.33 20.845 20.845 0 0 0 4.409-12.822c0-4.527-1.474-9.053-4.409-12.81a1.827 1.827 0 0 1-.378-1.343zM45.47 20.44c0-2.974-1.096-5.948-3.287-8.27l-.013-.013a1.87 1.87 0 0 1-.483-1.305c.014-.456.21-.913.561-1.252l.026-.013a1.82 1.82 0 0 1 1.292-.482c.456.013.913.208 1.252.573v-.013l.013.013a15.674 15.674 0 0 1 4.278 10.762c0 3.86-1.434 7.721-4.278 10.747l-.013.014a1.88 1.88 0 0 1-1.252.56 1.84 1.84 0 0 1-1.305-.495l-.013-.013a1.828 1.828 0 0 1-.56-1.266 1.83 1.83 0 0 1 .495-1.29 12.007 12.007 0 0 0 3.287-8.258zM24.561 31.226a1.823 1.823 0 0 1-1.291.534c-.235 0-.483-.052-.718-.156a1.721 1.721 0 0 1-.6-.418 15.667 15.667 0 0 1-4.278-10.747A15.62 15.62 0 0 1 21.952 9.69l.013-.027a1.826 1.826 0 0 1 2.57-.065 1.826 1.826 0 0 1 .065 2.57 12.016 12.016 0 0 0-3.287 8.27 12.01 12.01 0 0 0 3.287 8.256c.157.17.287.365.365.574.079.209.131.444.131.665 0 .509-.209.965-.535 1.292zm13.526-5.83l12.223 47.62v.013c.13.483.04.979-.195 1.383a1.863 1.863 0 0 1-1.109.835h-.013a7.469 7.469 0 0 1-.222.039c-.078.013-.156.013-.222.013-.417 0-.808-.143-1.108-.378a1.852 1.852 0 0 1-.652-.992L43.33 60.47 20.348 72.56l-.352 1.37a1.85 1.85 0 0 1-.652.992c-.3.235-.692.378-1.109.378-.091 0-.157 0-.222-.013l-.195-.04c-.013 0-.027 0-.04-.012a1.795 1.795 0 0 1-1.108-.822 1.874 1.874 0 0 1-.196-1.383l12.222-47.635-.157-.143c-.13-.13-.26-.261-.39-.418a6.865 6.865 0 0 1-1.605-5.009 6.883 6.883 0 0 1 2.4-4.67h.013a6.834 6.834 0 0 1 4.996-1.603 6.831 6.831 0 0 1 4.682 2.4 6.848 6.848 0 0 1 1.605 5.008 6.834 6.834 0 0 1-2.153 4.435zm-6.743 4.251l5.27 4.618-1.827-7.135c-.13.039-.26.065-.404.078a6.058 6.058 0 0 1-.978.091h-.013c-.34 0-.679-.039-.992-.09a2.018 2.018 0 0 1-.404-.08l-.652 2.518zm4.33-11.504a3.214 3.214 0 0 0-2.282-.94c-.887 0-1.709.353-2.283.94a3.225 3.225 0 0 0 0 4.578 3.225 3.225 0 0 0 2.283.952c.887 0 1.695-.365 2.282-.952a3.225 3.225 0 0 0 0-4.578zm1.057 21.04l-6.392-5.596-3.052 11.882 9.444-6.287zM25.618 51.99L21.56 67.813l17.857-9.391-13.8-6.43zm13.043-9.743L28.24 49.2l13.866 6.47-3.444-13.422z" fill="#87E06E"/></symbol><symbol fill="none" viewBox="0 0 75 75" id="infro6" xmlns="http://www.w3.org/2000/svg"><path fill-rule="evenodd" clip-rule="evenodd" d="M65 4H10a6 6 0 0 0-6 6v55a6 6 0 0 0 6 6h55a6 6 0 0 0 6-6V10a6 6 0 0 0-6-6zM10 0C4.477 0 0 4.477 0 10v55c0 5.523 4.477 10 10 10h55c5.523 0 10-4.477 10-10V10c0-5.523-4.477-10-10-10H10z" fill="#87E06E"/><path d="M53 27.64c0 4.254-1.418 7.514-4.255 9.781-2.836 2.267-6.854 3.401-12.054 3.401h-5.677a1 1 0 0 0-1 1V58a1 1 0 0 1-1 1H28a1 1 0 0 1-1-1V16a1 1 0 0 1 1-1h9.577C47.86 15 53 19.213 53 27.64zm-22.986 9.534a1 1 0 0 0 1 1h4.938c4.865 0 8.381-.813 10.548-2.438 2.167-1.645 3.25-4.304 3.25-7.975 0-3.391-1.024-5.9-3.073-7.524-2.048-1.646-5.22-2.468-9.513-2.468h-6.15a1 1 0 0 0-1 1v18.405z" fill="#87E06E"/><path fill-rule="evenodd" clip-rule="evenodd" d="M30.514 58.5a1 1 0 0 1-1 1H27.5a1 1 0 0 1-1-1v-43a1 1 0 0 1 1-1h10.077c5.197 0 9.187 1.063 11.884 3.273C52.178 20 53.5 23.321 53.5 27.64c0 4.377-1.466 7.793-4.442 10.172-2.957 2.363-7.101 3.51-12.367 3.51h-5.177a1 1 0 0 0-1 1V58.5zm-.5-16.678a1 1 0 0 1 1-1h5.677c5.2 0 9.218-1.134 12.054-3.4C51.583 35.153 53 31.893 53 27.64 53 19.213 47.86 15 37.577 15H28a1 1 0 0 0-1 1v42a1 1 0 0 0 1 1h1.014a1 1 0 0 0 1-1V41.822zm16.353-21.194l-.003-.002c-1.919-1.54-4.953-2.357-9.2-2.357h-5.65a1 1 0 0 0-1 1v17.405a1 1 0 0 0 1 1h4.438c4.832 0 8.212-.812 10.247-2.337 2-1.52 3.051-4.003 3.051-7.576 0-3.288-.988-5.63-2.883-7.133zm.133 15.108c-2.167 1.625-5.683 2.438-10.548 2.438h-4.938a1 1 0 0 1-1-1V18.769a1 1 0 0 1 1-1h6.15c4.294 0 7.465.822 9.513 2.468 2.049 1.625 3.073 4.133 3.073 7.524 0 3.671-1.083 6.33-3.25 7.975z" fill="#87E06E"/></symbol><symbol fill="none" viewBox="0 0 54 54" id="logo-color" xmlns="http://www.w3.org/2000/svg"><path d="M36.31 9.686a1 1 0 0 0-1.414 0l-6.089 6.088a1 1 0 0 0 0 1.415l9.679 9.679a1 1 0 0 1 0 1.414L28.282 38.486a1 1 0 0 1-1.414 0l-9.68-9.679a1 1 0 0 0-1.413 0l-6.089 6.088a1 1 0 0 0 0 1.415l16.231 16.23a1 1 0 0 0 1.414 0l25.21-25.21a1 1 0 0 0 0-1.413L36.31 9.686z" fill="#2C2C2C"/><path d="M27.331.707a1 1 0 0 0-1.414 0L.707 25.917a1 1 0 0 0 0 1.414l5.772 5.771a1 1 0 0 0 1.414 0l7.881-7.88a1 1 0 0 1 1.414 0l9.68 9.678a1 1 0 0 0 1.414 0l6.618-6.618a1 1 0 0 0 0-1.414l-9.68-9.68a1 1 0 0 1 0-1.413l7.883-7.882a1 1 0 0 0 0-1.414L27.33.707z" fill="#6EB03B"/></symbol><symbol fill="none" viewBox="0 0 565 565" id="logo-second" xmlns="http://www.w3.org/2000/svg"><path d="M380.241 96.534a2.914 2.914 0 0 0-4.121 0l-75.831 75.832a2.914 2.914 0 0 0 0 4.121l114.087 114.088a2.914 2.914 0 0 1 0 4.121L294.693 414.38a2.913 2.913 0 0 1-4.12 0L176.485 300.291a2.915 2.915 0 0 0-4.12 0l-75.827 75.828a2.913 2.913 0 0 0 0 4.12l183.907 183.908a2.915 2.915 0 0 0 4.12 0l279.582-279.585a2.915 2.915 0 0 0 0-4.12L380.241 96.534z" fill="#E6E6E6"/><path d="M284.555.853a2.913 2.913 0 0 0-4.12 0L.853 280.438a2.913 2.913 0 0 0 0 4.12l72.45 72.451a2.915 2.915 0 0 0 4.12 0l94.932-94.933a2.914 2.914 0 0 1 4.121 0l114.087 114.089a2.916 2.916 0 0 0 4.121 0l81.472-81.474a2.913 2.913 0 0 0 0-4.12L262.069 176.482a2.913 2.913 0 0 1 0-4.12l94.937-94.938a2.915 2.915 0 0 0 0-4.12L284.555.854z" fill="#E6E6E6"/></symbol><symbol fill="none" viewBox="0 0 321 186" id="lug" xmlns="http://www.w3.org/2000/svg"><path fill-rule="evenodd" clip-rule="evenodd" d="M74.023 107.098c.01.461.033.918.07 1.372.372 4.664 2.138 8.937 5.372 12.187 8.742 8.788 24.914 6.783 36.115-4.475 11.201-11.26 13.195-27.516 4.453-36.304-3.549-3.567-8.322-5.356-13.49-5.47h-.013c.612-.013 1.218-.05 1.817-.11 4.469-.45 8.554-2.212 11.686-5.36 8.742-8.787 6.748-25.044-4.453-36.303-11.201-11.26-27.373-13.263-36.115-4.476-3.082 3.098-4.83 7.123-5.31 11.53a23.363 23.363 0 0 0-.132 2.029v.013c-.11-5.2-1.89-10.002-5.441-13.572-8.742-8.787-24.915-6.783-36.116 4.476-11.2 11.26-13.195 27.516-4.452 36.303 3.052 3.069 7.01 4.82 11.346 5.323a23.2 23.2 0 0 0 2.155.147h-.013c-5.168.114-9.94 1.903-13.488 5.47-8.742 8.788-6.748 25.044 4.452 36.304 11.201 11.258 27.373 13.263 36.116 4.475 3.551-3.57 5.33-8.373 5.44-13.573l.001.014zm3.682 15.328a20.328 20.328 0 0 1-3.683-5.08 20.748 20.748 0 0 1-2.072 3.251l-.005-.003a20.38 20.38 0 0 1-1.571 1.79l-.033.032v.01c-7.063 7.1-18.297 7.993-28.593 3.283a36.576 36.576 0 0 1-5.732-3.29 39.046 39.046 0 0 1-5.293-4.463h-.01l-.006-.005c-8.684-8.729-12.207-20.342-9.967-29.778a21.894 21.894 0 0 1 2.049-5.385c.92-1.7 2.073-3.267 3.46-4.664v-.01l.005-.004a20.257 20.257 0 0 1 5.05-3.704 20.543 20.543 0 0 1-1.889-1.113l.002-.004a20.13 20.13 0 0 1-3.148-2.576h-.01l-.005-.006c-7.063-7.1-7.951-18.392-3.266-28.742a36.848 36.848 0 0 1 3.274-5.762 39.113 39.113 0 0 1 4.439-5.32v-.01l.005-.005c8.684-8.73 20.237-12.27 29.624-10.02a21.646 21.646 0 0 1 5.357 2.06c1.69.926 3.25 2.084 4.64 3.48h.01l.004.004a20.359 20.359 0 0 1 3.688 5.08 20.75 20.75 0 0 1 2.29-3.524c.434-.537.894-1.051 1.38-1.54v-.01l.007-.007c7.063-7.1 18.297-7.992 28.593-3.282a36.62 36.62 0 0 1 5.732 3.29 38.987 38.987 0 0 1 5.293 4.462h.011l.005.006c8.684 8.729 12.206 20.342 9.967 29.778a21.888 21.888 0 0 1-2.049 5.385 20.317 20.317 0 0 1-3.461 4.663v.01l-.004.005a20.208 20.208 0 0 1-5.053 3.703 20.65 20.65 0 0 1 3.236 2.084 20.21 20.21 0 0 1 1.775 1.584l.032.032h.01c7.063 7.1 7.951 18.392 3.265 28.742a36.894 36.894 0 0 1-3.273 5.762 39.226 39.226 0 0 1-4.439 5.321v.01l-.005.005c-8.684 8.729-20.237 12.27-29.624 10.019a21.656 21.656 0 0 1-5.358-2.059 20.269 20.269 0 0 1-4.638-3.479h-.01l-.006-.006z" fill="#019645"/><path fill-rule="evenodd" clip-rule="evenodd" d="M0 74.156h319.316v.504H0v-.504z" fill="#019645"/><path fill-rule="evenodd" clip-rule="evenodd" d="M74.275 0v185.248h-.5V0h.5zm81.182 96.948l18.321 64.491h22.982l-24.315-83.707h-34.623l-23.556 83.707h22.539l18.005-64.491h.647zm130.64 64.491V97.152h34.753v-19.42h-56.96v83.707h22.207zM180.732 77.732h25.671l16.022 31.196 14.601-31.196h25.672l-39.179 83.707h-25.67l12.336-26.359-29.453-57.348z" fill="#019645"/></symbol><symbol fill="none" viewBox="0 0 20 16" id="mail" xmlns="http://www.w3.org/2000/svg"><g opacity=".3" fill="#fff"><path d="M18.214 15.714c.45 0 .84-.148 1.17-.441l-5.666-5.667-.392.282a25.27 25.27 0 0 1-1.033.731 6.36 6.36 0 0 1-1.054.536c-.44.182-.849.273-1.228.273h-.022c-.38 0-.789-.09-1.228-.273a6.34 6.34 0 0 1-1.055-.536 26.341 26.341 0 0 1-1.032-.73c-.118-.087-.25-.182-.391-.284L.615 15.273a1.71 1.71 0 0 0 1.17.441h16.43zM1.127 6.038A5.918 5.918 0 0 1 0 5.067v8.621l4.994-4.994a370.3 370.3 0 0 0-3.867-2.656zm17.757 0a329.867 329.867 0 0 0-3.876 2.658L20 13.688V5.067a6.16 6.16 0 0 1-1.116.971z"/><path d="M18.214 0H1.786C1.213 0 .772.194.463.58.154.967 0 1.45 0 2.031c0 .469.205.977.614 1.524.41.547.844.976 1.306 1.289.253.178 1.015.708 2.288 1.59a737.635 737.635 0 0 1 2.924 2.037l.167.119.307.221c.242.175.443.317.603.425.16.108.353.228.58.362.227.134.441.235.642.302s.387.1.558.1h.022c.171 0 .357-.033.558-.1.201-.067.415-.168.642-.302a12.323 12.323 0 0 0 1.183-.787 68.634 68.634 0 0 1 .475-.34 9521.21 9521.21 0 0 1 5.223-3.627c.543-.38.997-.838 1.361-1.373.364-.536.547-1.097.547-1.685 0-.491-.177-.912-.53-1.262A1.726 1.726 0 0 0 18.214 0z"/></g></symbol><symbol fill="none" viewBox="0 0 103 99" id="map" xmlns="http://www.w3.org/2000/svg"><g opacity=".9" fill="#87E06E"><path d="M102.077.273a1.908 1.908 0 0 0-1.875-.052L68.667 16.886 37.133.22c-.024-.013-.053-.017-.078-.028a1.917 1.917 0 0 0-.28-.105c-.054-.015-.105-.032-.158-.044a1.987 1.987 0 0 0-.32-.032C36.247.01 36.2.004 36.15.006a1.85 1.85 0 0 0-.305.048c-.057.011-.114.019-.17.036-.013.004-.027.004-.038.007L1.305 11.521A1.902 1.902 0 0 0 0 13.326v81.865a1.904 1.904 0 0 0 2.51 1.805L36.168 85.8 67.94 98.857c.027.012.057.008.084.017.21.075.423.126.643.126.171 0 .341-.029.507-.074.053-.016.103-.04.156-.06.077-.028.157-.049.23-.087l32.425-17.134A1.905 1.905 0 0 0 103 79.962V1.904c0-.668-.351-1.287-.923-1.631zM3.815 14.7L34.333 4.547v51.388c-.82.149-1.629.316-2.41.522a1.903 1.903 0 0 0 .488 3.745c.16 0 .326-.021.49-.063.458-.122.957-.183 1.432-.282v22.541L3.815 92.55V14.7zm34.333 44.624c.612-.048 1.206-.126 1.833-.139a1.908 1.908 0 0 0 1.867-1.944 1.907 1.907 0 0 0-1.907-1.864H39.9c-.591.014-1.173.046-1.75.086V5.067l28.61 15.118v40.35a28.577 28.577 0 0 1-4.198-.499 1.902 1.902 0 1 0-.725 3.737c1.69.328 3.33.488 4.925.55v29.93l-28.613-11.76V59.325zm61.037 19.49l-28.61 15.118V64.118a1.89 1.89 0 0 0 1.119-1.866c-.056-.712-.513-1.283-1.12-1.563V20.185L99.185 5.067v73.747z"/><path d="M20.982 15.231c-5.26 0-9.538 4.27-9.538 9.52 0 4.597 3.283 8.44 7.63 9.326v4c0 1.053.855 1.904 1.907 1.904a1.905 1.905 0 0 0 1.908-1.904v-4c4.347-.885 7.63-4.729 7.63-9.327 0-5.249-4.279-9.519-9.537-9.519zm0 15.23c-3.155 0-5.723-2.562-5.723-5.71 0-3.15 2.568-5.712 5.723-5.712 3.154 0 5.722 2.562 5.722 5.711 0 3.15-2.568 5.712-5.723 5.712zm64.985 20.321a1.909 1.909 0 0 0 2.472-1.081c.896-2.284 1.615-4.861 2.142-7.662a1.906 1.906 0 0 0-1.524-2.222c-1.042-.171-2.032.49-2.226 1.523-.48 2.567-1.135 4.912-1.944 6.974-.383.977.1 2.083 1.08 2.468zM24.424 59.67a26.441 26.441 0 0 0-6.17 5.37 1.902 1.902 0 0 0 1.457 3.13c.544 0 1.082-.231 1.46-.677a22.56 22.56 0 0 1 5.279-4.595 1.904 1.904 0 0 0 .603-2.626 1.908 1.908 0 0 0-2.629-.602zm-7.969 11.298a1.91 1.91 0 0 0-2.53.93c-1.958 4.239-2.442 7.66-2.463 7.805a1.9 1.9 0 0 0 1.892 2.16 1.91 1.91 0 0 0 1.888-1.639c.004-.03.44-3.04 2.146-6.728a1.905 1.905 0 0 0-.933-2.528zm60.648-8.657c.292 0 .59-.066.866-.207 2.465-1.259 4.637-3.045 6.455-5.304a1.9 1.9 0 0 0-.294-2.677 1.916 1.916 0 0 0-2.682.293c-1.48 1.84-3.235 3.286-5.217 4.297a1.902 1.902 0 0 0 .872 3.598zM55.64 57.938a23.684 23.684 0 0 1-1.367-.613 1.894 1.894 0 0 0-.39-.149 62.26 62.26 0 0 0-6.053-1.245 1.905 1.905 0 1 0-.576 3.764c1.766.27 3.61.648 5.488 1.123.255.122.744.353 1.427.636a1.905 1.905 0 0 0 1.47-3.516zm33.861-21.896c.042.002.082.004.124.004.998 0 1.837-.773 1.902-1.784.118-1.83.177-3.766.177-5.75 0-.66-.005-1.33-.019-2.014-.019-1.053-.934-1.852-1.942-1.87a1.906 1.906 0 0 0-1.873 1.939c.012.66.02 1.31.02 1.945 0 1.904-.058 3.757-.17 5.508a1.907 1.907 0 0 0 1.781 2.022zM15.818 52.75a1.905 1.905 0 0 0 2.697 0l2.466-2.462 2.467 2.462a1.904 1.904 0 1 0 2.697-2.692l-2.466-2.462 2.466-2.461a1.9 1.9 0 0 0 0-2.692 1.908 1.908 0 0 0-2.697 0l-2.466 2.461-2.467-2.461a1.908 1.908 0 0 0-2.697 0 1.9 1.9 0 0 0 0 2.692l2.466 2.461-2.466 2.462a1.9 1.9 0 0 0 0 2.692z"/></g></symbol><symbol fill="none" viewBox="0 0 21 20" id="phone" xmlns="http://www.w3.org/2000/svg"><g opacity=".3" fill="#fff"><path d="M14.164 10.498c-.04.06-.04.12-.06.2a.488.488 0 0 0 .438.518c.259.02.498-.18.518-.439 0-.06 0-.12.02-.219v-.22c0-.577-.1-1.135-.279-1.672-.24-.698-.657-1.315-1.155-1.833a5.043 5.043 0 0 0-2.232-1.295c-.398-.1-.836-.16-1.255-.16-.139 0-.278 0-.438.02l-.418.06c-.26.04-.438.3-.379.538.04.26.3.438.538.379.12-.02.22-.04.339-.04h.06c.1 0 .199-.02.298-.02 1.096 0 2.112.438 2.83 1.175a4.014 4.014 0 0 1 1.175 2.79v.219z"/><path d="M16.793 10.937c-.02.258.18.498.438.518.26.02.498-.18.518-.439.02-.219.02-.438.02-.657 0-.438-.04-.857-.1-1.275a7.572 7.572 0 0 0-2.13-4.124 7.557 7.557 0 0 0-4.782-2.21c-.2-.02-.418-.02-.617-.02a7.395 7.395 0 0 0-1.315.1c-.26.039-.439.298-.379.537.04.259.299.438.538.378.14-.02.26-.04.399-.06.06 0 .119-.02.179-.02.199-.02.398-.02.578-.02.677 0 1.314.1 1.932.28a6.621 6.621 0 0 1 2.809 1.673 6.843 6.843 0 0 1 1.494 2.25 6.74 6.74 0 0 1 .478 2.471v.2c-.04.159-.06.278-.06.418z"/><path d="M17.47 3.048A10.342 10.342 0 0 0 10.12 0c-.3 0-.598.02-.897.04a6.91 6.91 0 0 0-.896.12c-.26.04-.439.298-.379.537.04.26.299.438.538.379.14-.02.259-.04.398-.06.14-.02.28-.04.419-.04.279-.02.538-.04.817-.04 2.59 0 4.94 1.056 6.653 2.75a9.378 9.378 0 0 1 2.75 6.653v.438c0 .12-.02.24-.02.379a.486.486 0 0 0 .438.518c.259.02.498-.18.518-.439.02-.298.04-.597.04-.876 0-2.849-1.156-5.439-3.029-7.311zm2.291 12.072l-3.526-1.893c-1.175-.637-1.215-.219-2.45 1.096-.299.319-.857 1.155-1.514.996-1.375-.339-3.944-2.35-4.781-3.267-.398-.438-2.112-2.53-2.132-3.207-.04-1.036 2.232-1.554 1.495-3.526L5.279 1.793C3.805-1.594-.32 3.825.019 6.355.897 12.59 11.834 22.67 17.93 19.343c1.354-.757 3.187-3.406 1.832-4.223z"/></g></symbol><symbol fill="none" viewBox="0 0 70 70" id="placement" xmlns="http://www.w3.org/2000/svg"><path d="M8.137 0h38.59c2.235 0 4.273.91 5.748 2.38a8.071 8.071 0 0 1 2.39 5.726V61.88a8.08 8.08 0 0 1-2.39 5.74A8.133 8.133 0 0 1 46.728 70H8.137a8.133 8.133 0 0 1-5.748-2.38A8.08 8.08 0 0 1 0 61.88V8.106C0 5.88.913 3.85 2.39 2.38A8.133 8.133 0 0 1 8.136 0zm58.336 3.57h2.234c.351 0 .675.14.914.378.239.224.379.56.379.91v9.156h-2.6V6.146h-.9V35.42h-.013a9.365 9.365 0 0 1-.731 3.724 9.896 9.896 0 0 1-2.122 3.15l-.155.154a1.278 1.278 0 0 1-.913.378c-.324 0-.66-.126-.914-.378l-.154-.154a9.896 9.896 0 0 1-2.122-3.15 9.88 9.88 0 0 1-.731-3.724V3.99a3.928 3.928 0 0 1 3.92-3.92c1.083 0 2.067.448 2.783 1.148a3.912 3.912 0 0 1 1.125 2.352zm-4.666 34.664c.21.462.464.91.759 1.33a6.64 6.64 0 0 0 .759-1.33c.21-.49.365-.994.463-1.526h-2.43c.084.532.238 1.036.449 1.526zm-.576-4.116h2.67V6.146h-2.67v27.972zm.393-31.066c-.14.14-.253.322-.323.518h2.53a1.342 1.342 0 0 0-1.265-.91c-.366 0-.703.154-.942.392zM22.471 15.876h9.922c.365 0 .703.14.942.392.253.238.407.574.407.938 0 .378-.154.7-.393.952-.253.238-.59.392-.956.392h-9.922c-.365 0-.702-.154-.955-.392a1.365 1.365 0 0 1-.394-.952 1.34 1.34 0 0 1 1.35-1.33zm-12.9 31.626h21.824c.38 0 .717.14.956.392a1.332 1.332 0 0 1 0 1.89 1.35 1.35 0 0 1-.956.392H9.57c-.365 0-.702-.154-.955-.392a1.332 1.332 0 0 1 0-1.89 1.34 1.34 0 0 1 .955-.392zm23.82-25.704h11.903a1.342 1.342 0 0 1 1.335 1.344c0 .364-.14.7-.393.938a1.285 1.285 0 0 1-.942.392H33.391c-.38 0-.717-.14-.956-.392a1.332 1.332 0 0 1-.393-.938c0-.378.154-.7.393-.952a1.35 1.35 0 0 1 .956-.392zm-14.883-9.884h17.848c.38 0 .717.154.956.392.239.252.393.574.393.952 0 .364-.154.7-.393.938a1.294 1.294 0 0 1-.956.392H18.508c-.38 0-.716-.14-.955-.392a1.332 1.332 0 0 1-.394-.938c0-.378.155-.7.394-.952a1.35 1.35 0 0 1 .955-.392zm11.904 43.498h13.884a1.341 1.341 0 0 1 1.35 1.33c0 .364-.155.7-.394.952-.253.238-.59.392-.956.392H30.412c-.38 0-.703-.154-.956-.392a1.391 1.391 0 0 1-.394-.952c0-.364.155-.7.394-.938.253-.252.576-.392.956-.392zM18.508 43.54h18.846c.365 0 .703.154.956.392.238.252.393.588.393.952s-.155.7-.393.952c-.253.238-.59.392-.956.392H18.508a1.35 1.35 0 0 1-.955-.392 1.391 1.391 0 0 1-.394-.952c0-.364.155-.7.394-.952a1.35 1.35 0 0 1 .955-.392zm-8.938 0h4.961c.38 0 .703.154.956.392.239.252.393.588.393.952s-.154.7-.393.952a1.376 1.376 0 0 1-.956.392h-4.96c-.366 0-.703-.154-.956-.392a1.391 1.391 0 0 1-.394-.952c0-.364.155-.7.408-.952.239-.238.576-.392.941-.392zm31.747 0h3.977a1.342 1.342 0 0 1 1.335 1.344 1.342 1.342 0 0 1-1.335 1.344h-3.977a1.342 1.342 0 0 1-1.335-1.344 1.342 1.342 0 0 1 1.335-1.344zM9.57 39.592h13.9a1.342 1.342 0 0 1 1.334 1.344 1.342 1.342 0 0 1-1.335 1.33H9.57c-.365 0-.702-.154-.955-.392a1.332 1.332 0 0 1-.394-.938c0-.378.155-.714.408-.952.239-.238.576-.392.941-.392zm17.862 0h17.862c.366 0 .703.154.942.392.253.238.393.574.393.952 0 .364-.14.7-.393.938a1.342 1.342 0 0 1-.942.392H27.432c-.365 0-.702-.154-.955-.392a1.332 1.332 0 0 1 0-1.89c.253-.238.59-.392.955-.392zm11.904-3.948h5.958c.366 0 .703.14.942.392.253.238.393.574.393.938a1.342 1.342 0 0 1-1.335 1.344h-5.958A1.342 1.342 0 0 1 38 36.974c0-.364.14-.7.394-.938.239-.252.576-.392.942-.392zm-29.766 0h25.802c.366 0 .703.14.942.392.253.238.394.574.394.938s-.141.7-.394.952a1.342 1.342 0 0 1-.942.392H9.57c-.365 0-.702-.154-.941-.392a1.32 1.32 0 0 1-.408-.952 1.341 1.341 0 0 1 1.35-1.33zm0-3.962h35.724c.366 0 .703.154.942.392.253.238.393.574.393.952 0 .364-.14.7-.393.938a1.285 1.285 0 0 1-.942.392H9.57a1.341 1.341 0 0 1-1.349-1.33c0-.378.155-.714.394-.952.253-.238.59-.392.955-.392zm13.9-3.948h21.824c.366 0 .703.14.942.392.253.238.393.574.393.938 0 .378-.14.714-.393.952a1.342 1.342 0 0 1-.942.392H23.47a1.34 1.34 0 0 1-1.35-1.344c.001-.364.156-.7.395-.938.239-.252.576-.392.955-.392zm-9.922 0h5.944c.38 0 .703.14.956.392a1.332 1.332 0 0 1 0 1.89 1.376 1.376 0 0 1-.956.392h-5.945a1.34 1.34 0 0 1-1.35-1.344c.001-.364.156-.7.395-.938.239-.252.576-.392.955-.392zm33.18-25.032H8.137c-1.49 0-2.853.616-3.837 1.596a5.355 5.355 0 0 0-1.588 3.808V61.88c0 1.498.605 2.842 1.588 3.822a5.441 5.441 0 0 0 3.837 1.596h38.59c1.49 0 2.84-.616 3.837-1.596a5.363 5.363 0 0 0 1.588-3.822V8.106a5.355 5.355 0 0 0-1.588-3.808c-.998-.98-2.347-1.596-3.836-1.596z" fill="#7BC46A"/></symbol><symbol fill="none" viewBox="0 0 17 20" id="presentation" xmlns="http://www.w3.org/2000/svg"><path d="M15.615 4.948L11.595.885C11.166.451 10.6.17 9.896.04v6.628h6.558c-.13-.712-.408-1.285-.838-1.719z" fill="#6EB03B"/><path d="M9.482 8.333c-.343 0-.635-.121-.876-.364a1.211 1.211 0 0 1-.36-.886V0h-7.01a1.18 1.18 0 0 0-.874.365A1.205 1.205 0 0 0 0 1.25v17.5c0 .347.12.643.36.886.241.242.533.364.877.364h14.018c.343 0 .635-.122.876-.364.24-.244.36-.539.36-.886V8.333H9.482z" fill="#6EB03B"/></symbol><symbol fill="none" viewBox="0 0 75 75" id="privileges1" xmlns="http://www.w3.org/2000/svg"><path fill-rule="evenodd" clip-rule="evenodd" d="M34.51 50.673a1.444 1.444 0 1 0-2.042-2.042 1.444 1.444 0 0 0 2.042 2.042zm-2.57-22.639a16.375 16.375 0 0 1-4.816-11.609c0-4.528 1.842-8.635 4.816-11.609A16.374 16.374 0 0 1 43.549 0c4.529 0 8.635 1.842 11.609 4.816a16.374 16.374 0 0 1 4.816 11.61c0 4.528-1.842 8.634-4.816 11.609a16.374 16.374 0 0 1-11.61 4.816 16.374 16.374 0 0 1-11.608-4.817zm20.396-2.823a12.393 12.393 0 0 0 3.645-8.786 12.39 12.39 0 0 0-3.646-8.786 12.394 12.394 0 0 0-8.786-3.645 12.394 12.394 0 0 0-8.787 3.645 12.393 12.393 0 0 0-3.645 8.786c0 3.427 1.394 6.535 3.645 8.786a12.394 12.394 0 0 0 8.787 3.646c3.427 0 6.535-1.395 8.787-3.646zM18.184 75a1.99 1.99 0 0 1-1.406-.59L.58 58.088A1.99 1.99 0 0 1 0 56.68c0-.51.195-1.018.581-1.406l6.864-6.884a4.853 4.853 0 0 1 3.952-1.408c1.645-2.896 3.935-5.137 6.658-6.681 2.904-1.647 6.294-2.497 9.911-2.497a19.084 19.084 0 0 1 7.334 1.443h15.98c.956 0 1.88.22 2.714.62a6.41 6.41 0 0 1 1.788 1.273l8.093-8.319a6.31 6.31 0 0 1 4.278-2.157 6.308 6.308 0 0 1 4.579 1.467h.002a6.313 6.313 0 0 1 2.22 4.304 6.3 6.3 0 0 1-1.468 4.608L62.799 53.821l-1.756 2.1c-.496.593-.623.74-.68.794.003-.003.003-.002 0 0a13.526 13.526 0 0 1-4.345 2.847c-1.6.65-3.326.991-5.098.991H31.74c-.494 0-.973.094-1.415.273a3.768 3.768 0 0 0-1.206.785l-1.261 1.217c.201.771.211 1.582.034 2.354-.2.87-.634 1.69-1.296 2.352l-.005.002-6.995 6.891a1.988 1.988 0 0 1-1.41.573zm12.92-32.885a15.387 15.387 0 0 0-3.139-.319c-2.985 0-5.67.678-7.924 1.95-2.138 1.208-3.895 2.955-5.156 5.172l10.626 10.627.836-.806a7.747 7.747 0 0 1 5.39-2.18H50.92a9.54 9.54 0 0 0 3.566-.684 9.525 9.525 0 0 0 3.02-1.949l12.927-15.453a2.335 2.335 0 0 0 .544-1.705 2.325 2.325 0 0 0-.817-1.588 2.33 2.33 0 0 0-1.702-.538 2.33 2.33 0 0 0-1.585.814c-.043.051-.614.638-3.714 3.825l-5.58 5.733.012.141a6.305 6.305 0 0 1-1.84 4.886 6.305 6.305 0 0 1-4.47 1.855H39.51a1.99 1.99 0 0 1-1.412-.585v-.002a1.99 1.99 0 0 1 0-2.822 1.99 1.99 0 0 1 1.412-.584h11.77c.643 0 1.226-.262 1.648-.684a2.324 2.324 0 0 0 .001-3.291 2.333 2.333 0 0 0-1.649-.688H34.896a1.99 1.99 0 0 1-.799-.17 15.16 15.16 0 0 0-2.991-.955zm-20.31 8.838a.882.882 0 0 0-.524.256l-5.462 5.475L18.211 70.19l5.57-5.487a.886.886 0 0 0 .252-.627.885.885 0 0 0-.262-.625 7534.685 7534.685 0 0 1-11.735-11.74c-.589-.585-.595-.59-.614-.6h-.002l-.043-.024-.002-.002a.908.908 0 0 0-.58-.131z" fill="#87E06E"/><path fill-rule="evenodd" clip-rule="evenodd" d="M41.632 7.829c.877 0 1.588.71 1.588 1.587v14.29a1.588 1.588 0 0 1-3.176 0V9.416c0-.876.71-1.587 1.588-1.587z" fill="#87E06E"/><path fill-rule="evenodd" clip-rule="evenodd" d="M46.184 20.973c0 .877-.71 1.587-1.587 1.587h-5.93a1.588 1.588 0 1 1 0-3.175h5.93c.876 0 1.587.71 1.587 1.588zm-4.36-9.981h.007l.044-.005c.042-.005.107-.01.193-.018.172-.014.422-.03.724-.039.613-.017 1.4.001 2.16.123.785.127 1.395.343 1.774.619.303.22.463.467.463.92 0 .899-.268 1.363-.54 1.64-.308.316-.78.55-1.4.69-.612.14-1.256.162-1.771.143a8.062 8.062 0 0 1-.755-.064l-.032-.005a1.588 1.588 0 0 0-.532 3.13l.265-1.555-.265 1.555h.003l.003.001.008.002.024.003.074.012c.061.008.145.02.248.031.207.024.495.05.84.063.675.025 1.619.003 2.594-.22.969-.22 2.084-.662 2.967-1.565.919-.94 1.444-2.234 1.444-3.861 0-1.572-.733-2.733-1.77-3.488-.96-.7-2.137-1.024-3.137-1.186a15.056 15.056 0 0 0-2.753-.162 16.801 16.801 0 0 0-1.155.072l-.075.008-.022.003h-.008l-.003.001s-.002 0 .19 1.576L41.44 7.84a1.588 1.588 0 0 0 .385 3.152z" fill="#87E06E"/></symbol><symbol fill="none" viewBox="0 0 75 75" id="privileges2" xmlns="http://www.w3.org/2000/svg"><path fill-rule="evenodd" clip-rule="evenodd" d="M34.203 50.89a1.432 1.432 0 0 0-2.023-2.024 1.434 1.434 0 0 0 0 2.023c.56.558 1.465.558 2.023 0zM18.023 75a1.973 1.973 0 0 1-1.393-.584L.574 58.238A1.973 1.973 0 0 1 0 56.842c0-.505.193-1.01.576-1.394l6.803-6.822a4.81 4.81 0 0 1 3.917-1.396c1.63-2.87 3.9-5.091 6.599-6.622 2.878-1.632 6.237-2.474 9.822-2.474 1.278 0 2.538.123 3.77.37a18.91 18.91 0 0 1 3.499 1.06h15.84a6.23 6.23 0 0 1 2.69.615 6.343 6.343 0 0 1 1.77 1.261l8.022-8.245a6.255 6.255 0 0 1 4.24-2.137 6.251 6.251 0 0 1 4.538 1.454h.002a6.257 6.257 0 0 1 2.2 4.266 6.244 6.244 0 0 1-1.455 4.566c-5.62 6.718-8.795 10.516-10.592 12.665L60.5 56.091c-.492.587-.618.733-.674.787.003-.003.003-.002 0 0A13.406 13.406 0 0 1 55.52 59.7a13.402 13.402 0 0 1-5.053.982h-19.01c-.49 0-.965.093-1.403.27-.439.177-.844.44-1.195.778l-1.25 1.206c.2.765.21 1.568.034 2.333a4.81 4.81 0 0 1-1.285 2.331l-.004.002-6.933 6.83a1.97 1.97 0 0 1-1.398.568zM30.83 42.408a15.25 15.25 0 0 0-3.112-.316c-2.958 0-5.62.67-7.853 1.932-2.12 1.197-3.86 2.929-5.11 5.126l10.531 10.532.828-.799a7.677 7.677 0 0 1 5.344-2.16h19.01a9.456 9.456 0 0 0 3.534-.678 9.44 9.44 0 0 0 2.994-1.931l12.811-15.316a2.314 2.314 0 0 0 .54-1.69 2.304 2.304 0 0 0-.81-1.574v-.001A2.31 2.31 0 0 0 67.85 35a2.31 2.31 0 0 0-1.571.807c-.042.05-.608.632-3.681 3.79l-5.53 5.683.012.14a6.25 6.25 0 0 1-1.823 4.843 6.25 6.25 0 0 1-4.43 1.838H39.156a1.973 1.973 0 0 1-1.4-.58v-.002a1.973 1.973 0 0 1 0-2.796c.36-.359.854-.58 1.4-.58h11.668c.637 0 1.215-.26 1.633-.678a2.304 2.304 0 0 0 .001-3.262 2.313 2.313 0 0 0-1.634-.682h-16.24a1.968 1.968 0 0 1-.791-.167c-.959-.42-1.95-.736-2.965-.947zM10.7 51.166a.873.873 0 0 0-.52.255v-.002l-5.413 5.428L18.05 70.232l5.52-5.438a.878.878 0 0 0 .25-.622.878.878 0 0 0-.26-.62 7423.7 7423.7 0 0 1-11.63-11.634c-.584-.58-.59-.585-.608-.595h-.002l-.043-.024-.002-.002a.9.9 0 0 0-.575-.13z" fill="#87E06E"/><path fill-rule="evenodd" clip-rule="evenodd" d="M52.944 9.23l7.641 7.674c.334.338.493.78.493 1.215 0 .449-.171.899-.496 1.224l-.026.026-.03.025a1.874 1.874 0 0 1-1.167.421 1.89 1.89 0 0 1-.647-.11 1.55 1.55 0 0 1-.576-.362L43.089 4.156 28.01 19.199a1.736 1.736 0 0 1-1.212.514 1.59 1.59 0 0 1-1.15-.468l-.001.001-.047-.05-.046-.045a1.583 1.583 0 0 1-.465-1.143 1.742 1.742 0 0 1 .514-1.218L41.869.523h.003c.165-.163.35-.293.556-.383.21-.091.431-.14.665-.14.222 0 .443.05.655.148.19.088.37.215.532.378l5.227 5.259V4.152c0-.474.186-.899.485-1.208.31-.32.739-.516 1.207-.516.478 0 .913.19 1.231.5a1.7 1.7 0 0 1 .514 1.224V9.23zm.484 10.044a1.72 1.72 0 0 1 1.227-.505c.468 0 .896.196 1.206.518.299.31.485.735.485 1.21v11.737c0 .462-.191.886-.498 1.193-.307.308-.73.5-1.193.5h-9.011c-.475 0-.9-.186-1.21-.485a1.676 1.676 0 0 1-.518-1.208v-4.822h-1.684v4.822c0 .462-.19.886-.497 1.193-.308.308-.73.5-1.194.5h-9.047c-.463 0-.886-.192-1.193-.5a1.689 1.689 0 0 1-.498-1.193V20.95c0-.462.191-.885.498-1.192a1.68 1.68 0 0 1 1.193-.501c.475 0 .9.186 1.21.485.322.31.517.74.517 1.208v9.557h5.575v-4.822c0-.467.201-.901.527-1.215a1.755 1.755 0 0 1 1.218-.494h5.103c.464 0 .887.198 1.193.51.307.312.498.74.498 1.199v4.825h5.592V20.497c0-.481.19-.911.502-1.223z" fill="#87E06E"/></symbol><symbol fill="none" viewBox="0 0 74 75" id="privileges3" xmlns="http://www.w3.org/2000/svg"><path fill-rule="evenodd" clip-rule="evenodd" d="M34.038 51.006a1.425 1.425 0 0 0-2.014-2.014 1.427 1.427 0 0 0 0 2.014 1.426 1.426 0 0 0 2.014 0zM17.936 75a1.963 1.963 0 0 1-1.387-.581L.571 58.319A1.964 1.964 0 0 1 0 56.93c0-.502.192-1.004.573-1.387l6.77-6.79a4.787 4.787 0 0 1 3.898-1.389c1.623-2.855 3.881-5.066 6.567-6.589 2.864-1.624 6.207-2.463 9.775-2.463a18.875 18.875 0 0 1 7.233 1.423H50.58a6.21 6.21 0 0 1 2.677.612c.655.315 1.253.74 1.763 1.256L63 33.398a6.225 6.225 0 0 1 4.22-2.128 6.222 6.222 0 0 1 4.515 1.448h.002a6.227 6.227 0 0 1 2.19 4.245 6.214 6.214 0 0 1-1.448 4.544 48433.66 48433.66 0 0 0-10.541 12.604l-1.732 2.071c-.49.585-.615.73-.671.784.003-.004.003-.002 0 0a13.342 13.342 0 0 1-4.285 2.808c-1.579.641-3.28.977-5.028.977H31.304a3.703 3.703 0 0 0-2.585 1.044l-1.244 1.2c.199.76.208 1.56.034 2.322a4.787 4.787 0 0 1-1.279 2.32l-.004.001-6.9 6.797a1.96 1.96 0 0 1-1.39.565zM30.68 42.566a15.174 15.174 0 0 0-3.097-.315c-2.944 0-5.593.668-7.816 1.923-2.108 1.191-3.841 2.915-5.085 5.102l10.48 10.48.825-.795a7.64 7.64 0 0 1 5.317-2.149h18.919a9.411 9.411 0 0 0 3.516-.675 9.395 9.395 0 0 0 2.98-1.922l12.749-15.242c.41-.485.585-1.093.536-1.681a2.292 2.292 0 0 0-.805-1.567 2.299 2.299 0 0 0-1.679-.53 2.3 2.3 0 0 0-1.564.803c-.041.05-.604.629-3.663 3.772l-5.502 5.655.011.14a6.22 6.22 0 0 1-1.814 4.82 6.22 6.22 0 0 1-4.41 1.828h-11.61a1.96 1.96 0 0 1-1.393-.577v-.002a1.963 1.963 0 0 1 0-2.783 1.964 1.964 0 0 1 1.393-.577h11.61a2.29 2.29 0 0 0 1.626-.675 2.292 2.292 0 0 0 .001-3.246c-.42-.42-1-.678-1.626-.678h-16.16a1.964 1.964 0 0 1-.789-.167 14.955 14.955 0 0 0-2.95-.942zm-20.033 8.716a.87.87 0 0 0-.517.253v-.001l-5.387 5.401 13.219 13.32 5.493-5.412a.874.874 0 0 0 .248-.619.873.873 0 0 0-.257-.616A7351.793 7351.793 0 0 1 11.87 52.03c-.58-.578-.587-.582-.605-.592h-.002l-.042-.025-.003-.002a.896.896 0 0 0-.572-.129z" fill="#87E06E"/><path d="M28.294 14.953a7.835 7.835 0 0 1-1.137-.084 6.831 6.831 0 0 1-1.057-.25 5.926 5.926 0 0 1-.959-.414 6.341 6.341 0 0 1-1.107-.754 6.147 6.147 0 0 1-.246-.222h-.001a6.397 6.397 0 0 1-.454-.485 6.247 6.247 0 0 1-.577-.813 6.727 6.727 0 0 1-.458-.907 7.122 7.122 0 0 1-.235-.654 8.494 8.494 0 0 1-.252-1.036 8.738 8.738 0 0 1-.103-.719 10.293 10.293 0 0 1-.059-1.12 11.059 11.059 0 0 1 .104-1.487 8.905 8.905 0 0 1 .213-1.052 8.524 8.524 0 0 1 .208-.67 7.171 7.171 0 0 1 .415-.935 6.738 6.738 0 0 1 .54-.847 6.23 6.23 0 0 1 .655-.743 5.993 5.993 0 0 1 .768-.627 6.157 6.157 0 0 1 1.52-.764 6.051 6.051 0 0 1 1.065-.25A7.321 7.321 0 0 1 27.9.045a8.337 8.337 0 0 1 .775 0 7.743 7.743 0 0 1 .752.074 6.885 6.885 0 0 1 1.06.25 5.862 5.862 0 0 1 .96.415 6.414 6.414 0 0 1 .575.347 6.169 6.169 0 0 1 1.01.864 5.934 5.934 0 0 1 .62.78 6.842 6.842 0 0 1 .76 1.51 7.748 7.748 0 0 1 .208.67 8.796 8.796 0 0 1 .213 1.051 9.843 9.843 0 0 1 .097 1.11 11.135 11.135 0 0 1-.02 1.131 10.3 10.3 0 0 1-.134 1.087 9.12 9.12 0 0 1-.253 1.036 7.756 7.756 0 0 1-.373.963 7.062 7.062 0 0 1-.498.88 6.376 6.376 0 0 1-.853 1.016 6.232 6.232 0 0 1-1.058.809 7.427 7.427 0 0 1-.6.32 5.737 5.737 0 0 1-.996.363 6.57 6.57 0 0 1-1.087.194 7.749 7.749 0 0 1-.765.038zm17.362 17.396a8.314 8.314 0 0 1-1.157-.083 6.843 6.843 0 0 1-.72-.148 5.902 5.902 0 0 1-1.865-.868 6.187 6.187 0 0 1-1.218-1.11 6.26 6.26 0 0 1-.578-.812 6.686 6.686 0 0 1-.456-.906 7.309 7.309 0 0 1-.236-.655 8.393 8.393 0 0 1-.253-1.034 9.307 9.307 0 0 1-.135-1.088 10.624 10.624 0 0 1-.019-1.13 10.88 10.88 0 0 1 .096-1.11 9.12 9.12 0 0 1 .422-1.72 7.266 7.266 0 0 1 .415-.937 6.573 6.573 0 0 1 .744-1.107 6.123 6.123 0 0 1 1.783-1.456 6.707 6.707 0 0 1 .624-.297 5.699 5.699 0 0 1 .676-.224 6.42 6.42 0 0 1 .721-.148 7.279 7.279 0 0 1 .764-.074 8.324 8.324 0 0 1 .775 0 7.74 7.74 0 0 1 .752.074 6.806 6.806 0 0 1 1.059.25 5.848 5.848 0 0 1 .96.415 6.434 6.434 0 0 1 .576.348 6.3 6.3 0 0 1 .776.627 6.276 6.276 0 0 1 1.198 1.59 7.139 7.139 0 0 1 .624 1.607 8.524 8.524 0 0 1 .155.696 9.719 9.719 0 0 1 .155 1.464 10.92 10.92 0 0 1-.02 1.13 10.282 10.282 0 0 1-.135 1.088 9.638 9.638 0 0 1-.252 1.036 7.688 7.688 0 0 1-.373.964 7.156 7.156 0 0 1-.499.878 6.269 6.269 0 0 1-1.098 1.238 6.14 6.14 0 0 1-1.412.908 5.792 5.792 0 0 1-.998.363 6.555 6.555 0 0 1-.716.148 7.142 7.142 0 0 1-.751.074c-.135.006-.263.01-.384.01zm-14-1.474a2.699 2.699 0 0 1-.333.48 2.254 2.254 0 0 1-.433.373 1.852 1.852 0 0 1-.506.23 2.311 2.311 0 0 1-1.054.068 2.78 2.78 0 0 1-.18-.036l-.068-.019a2.212 2.212 0 0 1-.72-.425 1.914 1.914 0 0 1-.28-.31 2.296 2.296 0 0 1-.302-.556 2.352 2.352 0 0 1-.111-.396 2.184 2.184 0 0 1 .002-.814c.014-.07.03-.137.048-.202l.013-.044.017-.034c1.923-3.837 4.03-7.716 6.144-11.607l.003-.005c1.496-2.755 2.996-5.515 4.427-8.254 1.434-2.744 2.806-5.478 4.051-8.187l.015-.031a2.596 2.596 0 0 1 .337-.452 1.992 1.992 0 0 1 .428-.348 2.095 2.095 0 0 1 .681-.267 2.044 2.044 0 0 1 .547-.035 2.194 2.194 0 0 1 .547.103l.037.013a2.259 2.259 0 0 1 .816.539 2.252 2.252 0 0 1 .352.478 1.954 1.954 0 0 1 .247.8 1.888 1.888 0 0 1-.046.578 2.18 2.18 0 0 1-.044.163 1.01 1.01 0 0 1-.225.532l-14.41 27.665zM28.294 11.09c.232 0 .444-.02.638-.057.095-.019.186-.042.273-.07a1.905 1.905 0 0 0 .455-.21 1.732 1.732 0 0 0 .513-.51 2.737 2.737 0 0 0 .273-.515 3.777 3.777 0 0 0 .202-.637 6.652 6.652 0 0 0 .16-1.214 9.983 9.983 0 0 0 0-.908 7.07 7.07 0 0 0-.084-.786 4.975 4.975 0 0 0-.164-.665 3.742 3.742 0 0 0-.239-.555 2.777 2.777 0 0 0-.146-.238 1.879 1.879 0 0 0-.321-.358 1.712 1.712 0 0 0-.401-.254 2.476 2.476 0 0 0-.518-.161 3.075 3.075 0 0 0-.305-.041 3.87 3.87 0 0 0-.977.041 2.451 2.451 0 0 0-.519.161 1.791 1.791 0 0 0-.57.42 1.78 1.78 0 0 0-.152.192 2.778 2.778 0 0 0-.273.501 3.691 3.691 0 0 0-.202.606 6.016 6.016 0 0 0-.159 1.137 9.85 9.85 0 0 0 0 .909 7.832 7.832 0 0 0 .086.838 5.508 5.508 0 0 0 .166.708 3.778 3.778 0 0 0 .24.577c.045.087.094.168.144.243a1.896 1.896 0 0 0 .323.366 1.722 1.722 0 0 0 .402.26c.077.036.158.067.243.094a2.617 2.617 0 0 0 .577.112c.101.01.213.014.335.014zm17.362 17.397c.122 0 .234-.005.335-.014a2.953 2.953 0 0 0 .577-.112 2 2 0 0 0 .455-.212 1.734 1.734 0 0 0 .512-.508 3.19 3.19 0 0 0 .273-.516 3.793 3.793 0 0 0 .203-.637 5.568 5.568 0 0 0 .128-.78 7.923 7.923 0 0 0 .043-.904 7.072 7.072 0 0 0-.095-1.223 4.975 4.975 0 0 0-.165-.667 3.67 3.67 0 0 0-.238-.554 2.785 2.785 0 0 0-.146-.238 1.847 1.847 0 0 0-.321-.357 1.722 1.722 0 0 0-.401-.255 2.462 2.462 0 0 0-.519-.161 3.067 3.067 0 0 0-.305-.042 3.876 3.876 0 0 0-.976.042 2.462 2.462 0 0 0-.519.161 1.785 1.785 0 0 0-.571.42c-.054.06-.104.124-.151.192a2.785 2.785 0 0 0-.273.501 3.67 3.67 0 0 0-.202.606 5.97 5.97 0 0 0-.159 1.137 9.99 9.99 0 0 0 0 .908 7.923 7.923 0 0 0 .086.84 5.566 5.566 0 0 0 .166.707 3.793 3.793 0 0 0 .24.577c.045.086.094.168.144.243a1.897 1.897 0 0 0 .323.366 1.734 1.734 0 0 0 .402.26 2 2 0 0 0 .243.094 2.955 2.955 0 0 0 .577.112 3.8 3.8 0 0 0 .334.014z" fill="#87E06E"/></symbol><symbol fill="none" viewBox="0 0 74 75" id="privileges4" xmlns="http://www.w3.org/2000/svg"><path fill-rule="evenodd" clip-rule="evenodd" d="M34.038 51.006a1.425 1.425 0 0 0-2.014-2.014 1.427 1.427 0 0 0 0 2.014 1.426 1.426 0 0 0 2.014 0zM17.936 75a1.963 1.963 0 0 1-1.387-.581L.571 58.319A1.964 1.964 0 0 1 0 56.93c0-.502.192-1.004.573-1.387l6.77-6.79a4.787 4.787 0 0 1 3.898-1.389c1.623-2.855 3.881-5.066 6.567-6.589 2.864-1.624 6.207-2.463 9.775-2.463a18.875 18.875 0 0 1 7.233 1.423H50.58a6.21 6.21 0 0 1 2.677.612c.655.315 1.253.74 1.763 1.256L63 33.398a6.225 6.225 0 0 1 4.22-2.128 6.222 6.222 0 0 1 4.515 1.448h.002a6.227 6.227 0 0 1 2.19 4.245 6.214 6.214 0 0 1-1.448 4.544 48433.66 48433.66 0 0 0-10.541 12.604l-1.732 2.071c-.49.585-.615.73-.671.784.003-.004.003-.002 0 0a13.342 13.342 0 0 1-4.285 2.808c-1.579.641-3.28.977-5.028.977H31.304a3.703 3.703 0 0 0-2.585 1.044l-1.244 1.2c.199.76.208 1.56.034 2.322a4.787 4.787 0 0 1-1.279 2.32l-.004.001-6.9 6.797a1.96 1.96 0 0 1-1.39.565zM30.68 42.566a15.174 15.174 0 0 0-3.097-.315c-2.944 0-5.593.668-7.816 1.923-2.108 1.191-3.841 2.915-5.085 5.102l10.48 10.48.825-.795a7.64 7.64 0 0 1 5.317-2.149h18.919a9.411 9.411 0 0 0 3.516-.675 9.395 9.395 0 0 0 2.98-1.922l12.749-15.242c.41-.485.585-1.093.536-1.681a2.292 2.292 0 0 0-.805-1.567 2.299 2.299 0 0 0-1.679-.53 2.3 2.3 0 0 0-1.564.803c-.041.05-.604.629-3.663 3.772l-5.502 5.655.011.14a6.22 6.22 0 0 1-1.814 4.82 6.22 6.22 0 0 1-4.41 1.828h-11.61a1.96 1.96 0 0 1-1.393-.577v-.002a1.963 1.963 0 0 1 0-2.783 1.964 1.964 0 0 1 1.393-.577h11.61a2.29 2.29 0 0 0 1.626-.675 2.292 2.292 0 0 0 .001-3.246c-.42-.42-1-.678-1.626-.678h-16.16a1.964 1.964 0 0 1-.789-.167 14.955 14.955 0 0 0-2.95-.942zm-20.033 8.716a.87.87 0 0 0-.517.253v-.001l-5.387 5.401 13.219 13.32 5.493-5.412a.874.874 0 0 0 .248-.619.873.873 0 0 0-.257-.616A7351.793 7351.793 0 0 1 11.87 52.03c-.58-.578-.587-.582-.605-.592h-.002l-.042-.025-.003-.002a.896.896 0 0 0-.572-.129z" fill="#87E06E"/><path d="M28.294 14.953a7.835 7.835 0 0 1-1.137-.084 6.831 6.831 0 0 1-1.057-.25 5.926 5.926 0 0 1-.959-.414 6.341 6.341 0 0 1-1.107-.754 6.147 6.147 0 0 1-.246-.222h-.001a6.397 6.397 0 0 1-.454-.485 6.247 6.247 0 0 1-.577-.813 6.727 6.727 0 0 1-.458-.907 7.122 7.122 0 0 1-.235-.654 8.494 8.494 0 0 1-.252-1.036 8.738 8.738 0 0 1-.103-.719 10.293 10.293 0 0 1-.059-1.12 11.059 11.059 0 0 1 .104-1.487 8.905 8.905 0 0 1 .213-1.052 8.524 8.524 0 0 1 .208-.67 7.171 7.171 0 0 1 .415-.935 6.738 6.738 0 0 1 .54-.847 6.23 6.23 0 0 1 .655-.743 5.993 5.993 0 0 1 .768-.627 6.157 6.157 0 0 1 1.52-.764 6.051 6.051 0 0 1 1.065-.25A7.321 7.321 0 0 1 27.9.045a8.337 8.337 0 0 1 .775 0 7.743 7.743 0 0 1 .752.074 6.885 6.885 0 0 1 1.06.25 5.862 5.862 0 0 1 .96.415 6.414 6.414 0 0 1 .575.347 6.169 6.169 0 0 1 1.01.864 5.934 5.934 0 0 1 .62.78 6.842 6.842 0 0 1 .76 1.51 7.748 7.748 0 0 1 .208.67 8.796 8.796 0 0 1 .213 1.051 9.843 9.843 0 0 1 .097 1.11 11.135 11.135 0 0 1-.02 1.131 10.3 10.3 0 0 1-.134 1.087 9.12 9.12 0 0 1-.253 1.036 7.756 7.756 0 0 1-.373.963 7.062 7.062 0 0 1-.498.88 6.376 6.376 0 0 1-.853 1.016 6.232 6.232 0 0 1-1.058.809 7.427 7.427 0 0 1-.6.32 5.737 5.737 0 0 1-.996.363 6.57 6.57 0 0 1-1.087.194 7.749 7.749 0 0 1-.765.038zm17.362 17.396a8.314 8.314 0 0 1-1.157-.083 6.843 6.843 0 0 1-.72-.148 5.902 5.902 0 0 1-1.865-.868 6.187 6.187 0 0 1-1.218-1.11 6.26 6.26 0 0 1-.578-.812 6.686 6.686 0 0 1-.456-.906 7.309 7.309 0 0 1-.236-.655 8.393 8.393 0 0 1-.253-1.034 9.307 9.307 0 0 1-.135-1.088 10.624 10.624 0 0 1-.019-1.13 10.88 10.88 0 0 1 .096-1.11 9.12 9.12 0 0 1 .422-1.72 7.266 7.266 0 0 1 .415-.937 6.573 6.573 0 0 1 .744-1.107 6.123 6.123 0 0 1 1.783-1.456 6.707 6.707 0 0 1 .624-.297 5.699 5.699 0 0 1 .676-.224 6.42 6.42 0 0 1 .721-.148 7.279 7.279 0 0 1 .764-.074 8.324 8.324 0 0 1 .775 0 7.74 7.74 0 0 1 .752.074 6.806 6.806 0 0 1 1.059.25 5.848 5.848 0 0 1 .96.415 6.434 6.434 0 0 1 .576.348 6.3 6.3 0 0 1 .776.627 6.276 6.276 0 0 1 1.198 1.59 7.139 7.139 0 0 1 .624 1.607 8.524 8.524 0 0 1 .155.696 9.719 9.719 0 0 1 .155 1.464 10.92 10.92 0 0 1-.02 1.13 10.282 10.282 0 0 1-.135 1.088 9.638 9.638 0 0 1-.252 1.036 7.688 7.688 0 0 1-.373.964 7.156 7.156 0 0 1-.499.878 6.269 6.269 0 0 1-1.098 1.238 6.14 6.14 0 0 1-1.412.908 5.792 5.792 0 0 1-.998.363 6.555 6.555 0 0 1-.716.148 7.142 7.142 0 0 1-.751.074c-.135.006-.263.01-.384.01zm-14-1.474a2.699 2.699 0 0 1-.333.48 2.254 2.254 0 0 1-.433.373 1.852 1.852 0 0 1-.506.23 2.311 2.311 0 0 1-1.054.068 2.78 2.78 0 0 1-.18-.036l-.068-.019a2.212 2.212 0 0 1-.72-.425 1.914 1.914 0 0 1-.28-.31 2.296 2.296 0 0 1-.302-.556 2.352 2.352 0 0 1-.111-.396 2.184 2.184 0 0 1 .002-.814c.014-.07.03-.137.048-.202l.013-.044.017-.034c1.923-3.837 4.03-7.716 6.144-11.607l.003-.005c1.496-2.755 2.996-5.515 4.427-8.254 1.434-2.744 2.806-5.478 4.051-8.187l.015-.031a2.596 2.596 0 0 1 .337-.452 1.992 1.992 0 0 1 .428-.348 2.095 2.095 0 0 1 .681-.267 2.044 2.044 0 0 1 .547-.035 2.194 2.194 0 0 1 .547.103l.037.013a2.259 2.259 0 0 1 .816.539 2.252 2.252 0 0 1 .352.478 1.954 1.954 0 0 1 .247.8 1.888 1.888 0 0 1-.046.578 2.18 2.18 0 0 1-.044.163 1.01 1.01 0 0 1-.225.532l-14.41 27.665zM28.294 11.09c.232 0 .444-.02.638-.057.095-.019.186-.042.273-.07a1.905 1.905 0 0 0 .455-.21 1.732 1.732 0 0 0 .513-.51 2.737 2.737 0 0 0 .273-.515 3.777 3.777 0 0 0 .202-.637 6.652 6.652 0 0 0 .16-1.214 9.983 9.983 0 0 0 0-.908 7.07 7.07 0 0 0-.084-.786 4.975 4.975 0 0 0-.164-.665 3.742 3.742 0 0 0-.239-.555 2.777 2.777 0 0 0-.146-.238 1.879 1.879 0 0 0-.321-.358 1.712 1.712 0 0 0-.401-.254 2.476 2.476 0 0 0-.518-.161 3.075 3.075 0 0 0-.305-.041 3.87 3.87 0 0 0-.977.041 2.451 2.451 0 0 0-.519.161 1.791 1.791 0 0 0-.57.42 1.78 1.78 0 0 0-.152.192 2.778 2.778 0 0 0-.273.501 3.691 3.691 0 0 0-.202.606 6.016 6.016 0 0 0-.159 1.137 9.85 9.85 0 0 0 0 .909 7.832 7.832 0 0 0 .086.838 5.508 5.508 0 0 0 .166.708 3.778 3.778 0 0 0 .24.577c.045.087.094.168.144.243a1.896 1.896 0 0 0 .323.366 1.722 1.722 0 0 0 .402.26c.077.036.158.067.243.094a2.617 2.617 0 0 0 .577.112c.101.01.213.014.335.014zm17.362 17.397c.122 0 .234-.005.335-.014a2.953 2.953 0 0 0 .577-.112 2 2 0 0 0 .455-.212 1.734 1.734 0 0 0 .512-.508 3.19 3.19 0 0 0 .273-.516 3.793 3.793 0 0 0 .203-.637 5.568 5.568 0 0 0 .128-.78 7.923 7.923 0 0 0 .043-.904 7.072 7.072 0 0 0-.095-1.223 4.975 4.975 0 0 0-.165-.667 3.67 3.67 0 0 0-.238-.554 2.785 2.785 0 0 0-.146-.238 1.847 1.847 0 0 0-.321-.357 1.722 1.722 0 0 0-.401-.255 2.462 2.462 0 0 0-.519-.161 3.067 3.067 0 0 0-.305-.042 3.876 3.876 0 0 0-.976.042 2.462 2.462 0 0 0-.519.161 1.785 1.785 0 0 0-.571.42c-.054.06-.104.124-.151.192a2.785 2.785 0 0 0-.273.501 3.67 3.67 0 0 0-.202.606 5.97 5.97 0 0 0-.159 1.137 9.99 9.99 0 0 0 0 .908 7.923 7.923 0 0 0 .086.84 5.566 5.566 0 0 0 .166.707 3.793 3.793 0 0 0 .24.577c.045.086.094.168.144.243a1.897 1.897 0 0 0 .323.366 1.734 1.734 0 0 0 .402.26 2 2 0 0 0 .243.094 2.955 2.955 0 0 0 .577.112 3.8 3.8 0 0 0 .334.014z" fill="#87E06E"/></symbol><symbol fill="none" viewBox="0 0 151 150" id="residents" xmlns="http://www.w3.org/2000/svg"><path d="M100.95 25.629a.774.774 0 0 0-1.094 0L79.723 45.76a.774.774 0 0 0 0 1.094l30.289 30.289a.774.774 0 0 1 0 1.094l-31.774 31.774a.774.774 0 0 1-1.094 0l-30.29-30.289a.773.773 0 0 0-1.093 0L25.63 99.855a.773.773 0 0 0 0 1.093l48.825 48.825a.772.772 0 0 0 1.094 0l74.226-74.225a.774.774 0 0 0 0-1.094L100.95 25.629z" fill="#E6E6E6"/><path d="M75.546.227a.774.774 0 0 0-1.094 0L.228 74.452a.774.774 0 0 0 0 1.094L19.46 94.781a.774.774 0 0 0 1.094 0l25.203-25.203a.774.774 0 0 1 1.094 0l30.29 30.289a.773.773 0 0 0 1.093 0l21.63-21.63a.774.774 0 0 0 0-1.094l-30.289-30.29a.774.774 0 0 1 0-1.093L94.78 20.555a.774.774 0 0 0 0-1.094L75.546.227z" fill="#E6E6E6"/></symbol><symbol fill="none" viewBox="0 0 25 35" id="scroll" xmlns="http://www.w3.org/2000/svg"><g opacity=".6" fill="#37464D"><path d="M12.5 0C5.607 0 0 5.615 0 12.517v9.967C0 29.385 5.607 35 12.5 35 19.392 35 25 29.402 25 22.522V12.517C25 5.615 19.392 0 12.5 0zm10.149 22.522c0 5.602-4.553 10.16-10.149 10.16-5.596 0-10.149-4.575-10.149-10.199v-9.966c0-5.624 4.553-10.2 10.149-10.2 5.596 0 10.149 4.576 10.149 10.2v10.005z"/><path d="M12.5 9.58c-.65 0-1.176.52-1.176 1.16v4.056c0 .64.527 1.159 1.176 1.159.65 0 1.176-.519 1.176-1.16V10.74c0-.64-.527-1.158-1.176-1.158z"/></g></symbol><symbol fill="none" viewBox="0 0 70 70" id="service-feature1" xmlns="http://www.w3.org/2000/svg"><path d="M44.96 50.413c-.737-.443-1.492-.887-2.248-1.323a19.558 19.558 0 0 0 .001-4.555 157.17 157.17 0 0 0 2.246-1.322 2.95 2.95 0 0 0 1.195-3.637l-1.61-3.886a2.95 2.95 0 0 0-3.416-1.727c-.83.207-1.678.427-2.523.653a19.57 19.57 0 0 0-3.222-3.22c.227-.845.447-1.694.653-2.524a2.95 2.95 0 0 0-1.726-3.417l-3.886-1.609a2.95 2.95 0 0 0-3.637 1.195c-.441.735-.886 1.49-1.322 2.247a19.564 19.564 0 0 0-4.555-.001c-.438-.76-.883-1.514-1.322-2.246a2.951 2.951 0 0 0-3.638-1.195l-3.885 1.61a2.951 2.951 0 0 0-1.727 3.416c.207.832.427 1.68.653 2.523a19.555 19.555 0 0 0-3.22 3.222 145.2 145.2 0 0 0-2.524-.654A2.95 2.95 0 0 0 1.83 35.69L.22 39.575a2.951 2.951 0 0 0 1.196 3.637c.735.442 1.49.887 2.247 1.323a19.574 19.574 0 0 0-.001 4.555c-.757.437-1.512.881-2.246 1.322A2.951 2.951 0 0 0 .22 54.05l1.61 3.885a2.95 2.95 0 0 0 3.416 1.726c.83-.206 1.677-.425 2.523-.652a19.576 19.576 0 0 0 3.222 3.22 146.71 146.71 0 0 0-.654 2.524 2.95 2.95 0 0 0 1.727 3.416l3.885 1.61a2.95 2.95 0 0 0 3.638-1.195c.438-.73.883-1.484 1.323-2.246 1.512.177 3.044.177 4.555 0 .434.754.879 1.509 1.322 2.246a2.951 2.951 0 0 0 3.637 1.195l3.885-1.61a2.951 2.951 0 0 0 1.727-3.416c-.206-.825-.425-1.673-.653-2.523a19.576 19.576 0 0 0 3.22-3.221c.845.226 1.693.446 2.524.653a2.95 2.95 0 0 0 3.417-1.727l1.61-3.886a2.951 2.951 0 0 0-1.196-3.636zm-3.245 6.166c-.798-.2-1.612-.412-2.42-.63a2.928 2.928 0 0 0-3.08 1.027 16.423 16.423 0 0 1-2.866 2.867 2.926 2.926 0 0 0-1.024 3.078c.219.814.43 1.627.629 2.419l-3.572 1.48c-.424-.71-.85-1.434-1.265-2.156a2.928 2.928 0 0 0-2.901-1.452 16.448 16.448 0 0 1-4.054 0 2.926 2.926 0 0 0-2.903 1.45c-.42.731-.846 1.456-1.267 2.157l-3.57-1.48c.199-.796.41-1.61.628-2.42a2.928 2.928 0 0 0-1.026-3.078 16.431 16.431 0 0 1-2.867-2.867 2.926 2.926 0 0 0-3.078-1.024c-.81.218-1.623.43-2.419.629l-1.48-3.571c.706-.423 1.43-.849 2.156-1.266a2.926 2.926 0 0 0 1.452-2.9 16.447 16.447 0 0 1 0-4.055 2.927 2.927 0 0 0-1.451-2.903c-.725-.418-1.45-.843-2.156-1.267l1.479-3.571c.796.2 1.609.41 2.42.629a2.928 2.928 0 0 0 3.079-1.026 16.423 16.423 0 0 1 2.866-2.867 2.926 2.926 0 0 0 1.025-3.078 143.76 143.76 0 0 1-.63-2.42l3.572-1.479c.422.704.847 1.428 1.266 2.156a2.926 2.926 0 0 0 2.9 1.451 16.416 16.416 0 0 1 4.055.001 2.927 2.927 0 0 0 2.903-1.451c.417-.726.843-1.45 1.266-2.157l3.572 1.48c-.2.797-.412 1.61-.63 2.42a2.927 2.927 0 0 0 1.027 3.079 16.435 16.435 0 0 1 2.867 2.866 2.926 2.926 0 0 0 3.078 1.025c.809-.218 1.622-.43 2.419-.63l1.479 3.572c-.705.422-1.429.847-2.156 1.266a2.926 2.926 0 0 0-1.451 2.9 16.426 16.426 0 0 1-.001 4.055 2.928 2.928 0 0 0 1.452 2.903c.724.416 1.448.842 2.156 1.266l-1.479 3.572z" fill="#fff"/><path d="M33.053 42.726c-2.253-5.44-8.511-8.033-13.952-5.78-5.44 2.254-8.032 8.513-5.78 13.953a10.609 10.609 0 0 0 5.78 5.78c1.318.545 2.702.818 4.087.818a10.66 10.66 0 0 0 4.086-.819c5.44-2.253 8.032-8.512 5.78-13.952zm-6.978 11.057a7.496 7.496 0 0 1-5.775 0 7.496 7.496 0 0 1-4.083-4.083c-1.593-3.844.24-8.266 4.083-9.858a7.504 7.504 0 0 1 2.878-.575c2.962 0 5.778 1.755 6.98 4.658 1.593 3.844-.24 8.266-4.083 9.858zM67.888 13.8c-.54-.081-1.096-.16-1.656-.234a14.584 14.584 0 0 0-1.123-2.71c.343-.448.68-.896 1.006-1.337a2.496 2.496 0 0 0-.243-3.23L63.71 4.13a2.496 2.496 0 0 0-3.23-.244c-.442.327-.89.665-1.336 1.006a14.582 14.582 0 0 0-2.71-1.123c-.075-.56-.153-1.115-.234-1.656A2.496 2.496 0 0 0 53.744 0h-3.056c-1.22 0-2.276.908-2.456 2.112-.08.54-.159 1.096-.234 1.656-.938.282-1.846.658-2.71 1.123a97.351 97.351 0 0 0-1.336-1.006 2.496 2.496 0 0 0-3.23.243l-2.161 2.16a2.497 2.497 0 0 0-.243 3.231c.325.44.663.89 1.005 1.337a14.593 14.593 0 0 0-1.123 2.71c-.56.074-1.115.153-1.656.234a2.497 2.497 0 0 0-2.112 2.456v3.056c0 1.22.908 2.275 2.112 2.456.54.08 1.096.16 1.656.234.282.937.658 1.846 1.123 2.71-.342.447-.68.895-1.006 1.336a2.496 2.496 0 0 0 .243 3.23l2.162 2.161c.862.863 2.25.967 3.23.243.442-.327.89-.664 1.336-1.005a14.6 14.6 0 0 0 2.71 1.123c.075.56.153 1.115.234 1.656a2.497 2.497 0 0 0 2.456 2.112h3.056c1.22 0 2.276-.908 2.456-2.112.08-.541.16-1.097.234-1.656a14.575 14.575 0 0 0 2.71-1.123c.446.34.894.678 1.336 1.005.98.725 2.368.62 3.23-.243l2.161-2.16a2.497 2.497 0 0 0 .244-3.23c-.327-.442-.664-.89-1.006-1.337a14.54 14.54 0 0 0 1.123-2.71c.56-.075 1.115-.153 1.656-.234A2.497 2.497 0 0 0 70 19.312v-3.056c0-1.22-.908-2.276-2.112-2.456zm-.865 5.087c-.49.07-.992.14-1.495.205a2.476 2.476 0 0 0-2.073 1.798c-.254.921-.622 1.81-1.095 2.643a2.476 2.476 0 0 0 .194 2.738c.308.401.614.805.912 1.203l-1.56 1.56c-.4-.299-.803-.604-1.203-.912a2.477 2.477 0 0 0-2.739-.194 11.59 11.59 0 0 1-2.642 1.095 2.475 2.475 0 0 0-1.797 2.073c-.066.503-.135 1.004-.206 1.495h-2.206c-.07-.491-.14-.992-.205-1.494a2.476 2.476 0 0 0-1.798-2.074 11.588 11.588 0 0 1-2.643-1.095 2.476 2.476 0 0 0-2.738.194 106 106 0 0 1-1.204.912l-1.559-1.56c.298-.399.603-.802.912-1.203.611-.795.687-1.87.194-2.739a11.594 11.594 0 0 1-1.095-2.642 2.475 2.475 0 0 0-2.073-1.798 103.57 103.57 0 0 1-1.496-.206v-2.205c.492-.071.993-.14 1.495-.206a2.475 2.475 0 0 0 2.074-1.798c.254-.92.622-1.81 1.095-2.642a2.476 2.476 0 0 0-.194-2.739 102.21 102.21 0 0 1-.912-1.203l1.56-1.559c.4.298.802.604 1.202.912.795.611 1.87.688 2.74.194a11.598 11.598 0 0 1 2.641-1.095 2.475 2.475 0 0 0 1.798-2.073c.066-.503.135-1.004.206-1.495h2.206c.07.49.14.992.205 1.494.13.995.836 1.809 1.798 2.074.921.254 1.81.622 2.643 1.095a2.476 2.476 0 0 0 2.738-.194c.4-.308.803-.614 1.204-.912l1.559 1.56a106.3 106.3 0 0 1-.912 1.203 2.477 2.477 0 0 0-.194 2.738 11.6 11.6 0 0 1 1.095 2.643 2.475 2.475 0 0 0 2.073 1.797c.503.066 1.004.135 1.495.206v2.206z" fill="#fff"/><path d="M52.216 11.44a6.351 6.351 0 0 0-6.344 6.344 6.351 6.351 0 0 0 6.344 6.344 6.351 6.351 0 0 0 6.344-6.344 6.351 6.351 0 0 0-6.344-6.344zm0 9.868a3.528 3.528 0 0 1-3.524-3.524 3.528 3.528 0 0 1 3.524-3.524 3.528 3.528 0 0 1 3.524 3.524 3.528 3.528 0 0 1-3.524 3.524z" fill="#fff"/></symbol><symbol fill="none" viewBox="0 0 70 67" id="service-feature2" xmlns="http://www.w3.org/2000/svg"><path d="M62.204 4.03a1.257 1.257 0 0 0-1.778 0L47.393 17.061a1.257 1.257 0 1 0 1.777 1.778L62.204 5.807c.49-.491.49-1.287 0-1.778zm3.544 3.487a1.257 1.257 0 0 0-1.778 0L50.937 20.551a1.257 1.257 0 0 0 1.778 1.777L65.748 9.295a1.257 1.257 0 0 0 0-1.778z" fill="#fff"/><path d="M53.453 29.526l16.179-16.179a1.257 1.257 0 0 0-1.778-1.778L51.675 27.75a6.675 6.675 0 0 1-7.583 1.301 1.257 1.257 0 0 0-1.482.3l-5.498 6.194-.007.006-.006.008-23.76 26.769-.018.02a4.028 4.028 0 0 1-5.917.248 3.997 3.997 0 0 1-1.178-2.844 3.998 3.998 0 0 1 1.426-3.072l.021-.018 14.854-13.185a1.257 1.257 0 1 0-1.668-1.88L6.014 54.772a6.494 6.494 0 0 0-2.302 4.98 6.49 6.49 0 0 0 1.915 4.621 6.517 6.517 0 0 0 4.622 1.912 6.516 6.516 0 0 0 4.98-2.3l18.106-20.398 18.106 20.4a6.517 6.517 0 0 0 4.979 2.299 6.517 6.517 0 0 0 4.623-1.913 6.545 6.545 0 0 0-.388-9.601L39.821 36.279l4.076-4.592a9.196 9.196 0 0 0 9.556-2.161zm5.543 27.135l.02.018a4.028 4.028 0 0 1 .248 5.917 4.028 4.028 0 0 1-5.934-.27L35.015 41.694l3.136-3.534 20.845 18.502z" fill="#fff"/><path d="M58.43.368a1.258 1.258 0 0 0-1.777 0l-16.179 16.18a9.195 9.195 0 0 0-2.16 9.555l-4.98 4.42-4.784-4.248a12.643 12.643 0 0 0-2.355-14.706C22.296 7.67 17.78 4.926 13.479 3.843c-4.49-1.13-8.34-.375-10.841 2.126C.136 8.469-.618 12.32.512 16.809c1.083 4.302 3.827 8.818 7.726 12.717a12.642 12.642 0 0 0 14.707 2.355l4.738 5.338a1.254 1.254 0 0 0 1.775.106L40.65 27.39c.42-.372.541-.976.3-1.482a6.674 6.674 0 0 1 1.302-7.583L58.43 2.145a1.257 1.257 0 0 0 0-1.777zM28.73 34.61l-4.576-5.155a1.257 1.257 0 0 0-1.6-.235 10.141 10.141 0 0 1-12.537-1.472c-3.583-3.582-6.092-7.685-7.066-11.552-.906-3.598-.385-6.599 1.465-8.45 1.85-1.85 4.852-2.37 8.45-1.465 3.867.974 7.97 3.483 11.552 7.066a10.141 10.141 0 0 1 1.471 12.537c-.32.52-.22 1.195.236 1.6l5.317 4.72-2.712 2.406z" fill="#fff"/></symbol><symbol fill="none" viewBox="0 0 63 70" id="service-feature3" xmlns="http://www.w3.org/2000/svg"><path d="M32.53 11.978v-.767h.766a1.368 1.368 0 1 0 0-2.734h-.767V7.71c0-.755-.614-1.367-1.37-1.367-.758 0-1.371.612-1.371 1.367v.767h-.767a1.368 1.368 0 1 0 0 2.734h.767v.767a1.37 1.37 0 0 0 1.37 1.368 1.37 1.37 0 0 0 1.371-1.368z" fill="#fff"/><path d="M60.947 50.609c.756 0 1.37-.612 1.37-1.367v-6.446a1.37 1.37 0 0 0-1.37-1.367h-12.23l-14.299-8.588a5.776 5.776 0 0 0 2.532-4.775 1.37 1.37 0 0 0-1.371-1.367 1.37 1.37 0 0 0-1.37 1.367 3.05 3.05 0 0 1-6.1 0 3.05 3.05 0 0 1 3.05-3.045c.757 0 1.37-.612 1.37-1.367v-4.061c4.791-.668 8.492-4.785 8.492-9.749C41.021 4.416 36.597 0 31.158 0c-5.438 0-9.861 4.416-9.861 9.844 0 4.964 3.7 9.081 8.491 9.749v2.858c-2.534.616-4.42 2.9-4.42 5.616a5.775 5.775 0 0 0 2.53 4.774L13.6 41.43H1.371A1.37 1.37 0 0 0 0 42.796v6.446a1.37 1.37 0 0 0 1.37 1.367h2.54v10.212H1.37c-.756 0-1.37.612-1.37 1.367v6.445C0 69.388.614 70 1.37 70h59.577c.756 0 1.37-.612 1.37-1.367v-6.446a1.37 1.37 0 0 0-1.37-1.367h-2.54V50.61h2.54zM24.037 9.844c0-3.92 3.195-7.11 7.122-7.11 3.926 0 7.12 3.19 7.12 7.11 0 3.92-3.194 7.11-7.12 7.11-3.927 0-7.121-3.19-7.121-7.11zm7.122 24.231l12.244 7.354h-24.49l12.245-7.354zM2.74 44.163h56.835v3.712H2.741v-3.712zm56.835 23.103H2.741v-3.712h56.835v3.712zm-3.91-6.446H6.65v-3.738h37.708a1.368 1.368 0 1 0 0-2.735H6.65V50.61h49.017v10.21z" fill="#fff"/></symbol><symbol fill="none" viewBox="0 0 70 70" id="service-feature4" xmlns="http://www.w3.org/2000/svg"><path d="M68.478 24.348H57.826V1.522C57.826.68 57.144 0 56.304 0H1.522C.682 0 0 .68 0 1.522V62.39C0 66.587 3.414 70 7.609 70H62.39c4.197 0 7.61-3.413 7.61-7.609V25.87c0-.842-.682-1.522-1.522-1.522zM45.652 3.043v25.24l-3.49-3.49a1.519 1.519 0 0 0-2.151 0l-3.49 3.49V3.043h9.131zM7.61 66.956a4.572 4.572 0 0 1-4.566-4.566V3.043h30.435v28.913a1.522 1.522 0 0 0 2.598 1.076l5.011-5.01 5.011 5.01a1.523 1.523 0 0 0 2.598-1.075V3.042h6.087V62.39c0 1.712.569 3.293 1.524 4.566H7.61zm59.348-4.565a4.571 4.571 0 0 1-4.566 4.566 4.571 4.571 0 0 1-4.565-4.566v-35h9.13v35z" fill="#fff"/><path d="M10.652 15.217H25.87a1.521 1.521 0 1 0 0-3.043H10.652a1.521 1.521 0 1 0 0 3.043zm0 9.131H25.87a1.521 1.521 0 1 0 0-3.044H10.652a1.521 1.521 0 1 0 0 3.044zm0 9.13H25.87a1.521 1.521 0 1 0 0-3.043H10.652a1.521 1.521 0 1 0 0 3.043zm36.522 9.131H10.652c-.84 0-1.522.68-1.522 1.521v12.174c0 .842.683 1.522 1.522 1.522h36.522c.84 0 1.522-.68 1.522-1.522V44.13c0-.841-.682-1.521-1.522-1.521zm-1.522 12.174H12.174v-9.13h33.478v9.13z" fill="#fff"/></symbol><symbol fill="none" viewBox="0 0 96 100" id="service1" xmlns="http://www.w3.org/2000/svg"><path fill-rule="evenodd" clip-rule="evenodd" d="M8.656 35.524l11.221-5.34a2.254 2.254 0 0 0 1.078-3.038c-.54-1.14-1.908-1.608-3.053-1.072l-6.35 3.016.897-1.787C22.997 6.079 49.613-1.807 70.125 10.189a2.26 2.26 0 0 0 3.12-.804c.65-1.072.291-2.48-.809-3.128C49.322-7.28 19.34 1.967 7.938 26.12l-.628 1.318-2.94-6.167a2.306 2.306 0 0 0-3.052-1.072 2.282 2.282 0 0 0-1.1 3.038l5.386 11.216c.561 1.14 1.93 1.63 3.052 1.072zm86.671-18.722a2.279 2.279 0 0 0-2.11-2.435l-12.432-.983c-1.257-.09-2.379.849-2.469 2.1l-.965 12.355c-.09 1.25.853 2.368 2.11 2.457a2.282 2.282 0 0 0 2.446-2.1l.561-6.97 1.1 1.675c6.418 9.63 8.438 21.336 5.61 32.552-2.738 10.88-9.717 20.106-19.502 25.67-2.042 1.161-1.212 4.267 1.122 4.267.404 0 .786-.09 1.145-.29 11.49-6.547 19.502-17.561 22.128-30.474 2.49-12.154-.112-24.866-7.227-35.053l-.83-1.184 6.845.513a2.288 2.288 0 0 0 2.468-2.1zM60.924 85.591l-10.256-7.015a2.288 2.288 0 0 0-3.187.603c-.718 1.028-.449 2.457.584 3.172l5.857 4-1.997.133c-9.359.604-18.627-2.077-26.28-7.462-11.086-7.774-17.617-20.24-17.482-33.78.022-1.273-1.01-2.3-2.29-2.3-1.256 0-2.289 1.005-2.289 2.256-.157 14.99 7.047 28.82 19.323 37.466 8.752 6.189 19.412 9.204 30.14 8.31l1.458-.133-3.837 5.585a2.28 2.28 0 0 0 .583 3.173 2.304 2.304 0 0 0 3.187-.581l7.07-10.255a2.287 2.287 0 0 0-.584-3.172z" fill="#7BC46A"/><path fill-rule="evenodd" clip-rule="evenodd" d="M49.972 44.349h19.816c1.145 0 2.065.916 2.065 2.033 0 13.137-10.75 23.816-23.923 23.816-13.196 0-23.923-10.68-23.923-23.816 0-13.137 10.727-23.816 23.923-23.816 1.122 0 2.042.916 2.042 2.033v19.75zm27.492-3.642v.09c0 1.14-.92 2.033-2.065 2.033H53.518a2.03 2.03 0 0 1-2.042-2.033V19.014c0-1.14.92-2.033 2.042-2.033a24.032 24.032 0 0 1 17.954 8.043 23.826 23.826 0 0 1 5.992 15.683zm-9.83 7.73H47.93a2.055 2.055 0 0 1-2.065-2.055V26.766c-10.031 1.028-17.774 9.495-17.774 19.616 0 10.88 8.91 19.727 19.839 19.727 10.166 0 18.672-7.685 19.704-17.672zm-12.051-9.673h17.662a19.651 19.651 0 0 0-4.87-11.015 19.818 19.818 0 0 0-12.792-6.568v17.583z" fill="#7BC46A"/></symbol><symbol fill="none" viewBox="0 0 79 100" id="service2" xmlns="http://www.w3.org/2000/svg"><path fill-rule="evenodd" clip-rule="evenodd" d="M0 22.485v68.876C0 96.5 4.72 100 9.6 100h59.136c4.88 0 9.599-3.5 9.599-8.64V22.486a9.68 9.68 0 0 0-9.6-9.24h-9.619V8.647c0-1.08-1.4-1.42-2.28-1.42h-7.44l-.12-.34c-1.58-4.52-5.539-6.88-10.239-6.88-4.54-.16-8.679 2.62-10.219 6.9l-.12.32h-7.32c-.88 0-2.14.34-2.14 1.42v4.6H9.6c-5.14.04-9.359 4.1-9.599 9.24zm30.118-11.44c.92-.14 1.66-.84 1.84-1.76v-.02a7.487 7.487 0 0 1 7.08-5.799h.02c3.38.1 6.259 2.5 6.979 5.82.16.96.96 1.68 1.92 1.76h7.34v10.6H23.038v-10.6h7.079zm-10.88 12.6c.1 1.08 1.04 1.88 2.12 1.82h35.518c1.1.06 2.06-.74 2.24-1.82v-6.6h9.64c3.02.06 5.5 2.38 5.78 5.38v68.936c0 3.04-3.02 4.82-5.8 4.82H9.599c-2.78 0-5.78-1.78-5.78-4.82V22.425c.26-3 2.76-5.32 5.78-5.38h9.64v6.6zM12.6 57.343c-.74.78-.74 2 0 2.78l4.94 5.06c.34.36.8.58 1.3.56.52-.02 1-.22 1.36-.58l9.38-8.92c.719-.66.779-1.78.1-2.52-.02-.04-.06-.06-.1-.1l-.02-.02c-.72-.76-1.9-.8-2.66-.12l-8.06 7.68-3.58-3.72c-.72-.74-1.9-.8-2.66-.1zm51.817 1.58H36.758c-1.04 0-1.9.84-1.9 1.9s.86 1.92 1.9 1.92h27.658c1.06 0 1.9-.86 1.9-1.92s-.84-1.9-1.9-1.9zM12.599 38.104c-.74.78-.74 2 0 2.78l4.94 5.06c.32.38.8.58 1.3.56.52 0 1-.22 1.36-.58l9.38-8.9a1.8 1.8 0 0 0 0-2.64l-.02-.02c-.72-.76-1.9-.8-2.66-.1l-8.06 7.66-3.58-3.72c-.72-.74-1.9-.8-2.66-.1zm51.817 1.58H36.758c-1.04 0-1.9.86-1.9 1.9 0 1.06.86 1.92 1.9 1.92h27.658c1.06 0 1.9-.86 1.9-1.92a1.9 1.9 0 0 0-1.9-1.9zM12.599 76.561c-.74.8-.74 2.02 0 2.8l4.94 5.04v.02c.34.36.8.56 1.3.56.52-.02 1-.22 1.36-.6l9.38-8.9c.719-.66.779-1.8.1-2.52a.241.241 0 0 0-.1-.1l-.02-.02v-.02c-.72-.74-1.9-.78-2.66-.1l-8.06 7.68-3.58-3.72c-.72-.74-1.9-.8-2.66-.12zm51.817 1.6H36.758a1.9 1.9 0 1 0 0 3.8h27.658c1.06 0 1.9-.84 1.9-1.9s-.84-1.9-1.9-1.9z" fill="#7BC46A"/></symbol><symbol fill="none" viewBox="0 0 83 100" id="service3" xmlns="http://www.w3.org/2000/svg"><path fill-rule="evenodd" clip-rule="evenodd" d="M60.54 83.78c-1.08 0-1.96.88-1.96 1.96s.88 1.94 1.96 1.94 1.96-.86 1.96-1.94-.88-1.96-1.96-1.96zm17.9-10.12c-2.2-3.4-5.22-6.1-8.76-7.84-.3-.28-.68-.48-1.1-.52a20.57 20.57 0 0 0-8.04-1.64h-5.86v-5.14c3.4-2.92 5.84-6.78 7.02-11.06h.8c4.3 0 7.8-3.52 7.8-7.82 0-2.04-.78-3.9-2.06-5.3.12-.1.24-.2.36-.32a5.889 5.889 0 0 0-2.26-9.7c-.7-8.98-7-16.64-15.68-19.06C50.14 2.58 47.94 0 44.92 0H37.1c-3 0-5.22 2.58-5.74 5.26-8.68 2.42-14.98 10.08-15.68 19.06-.84.3-1.6.76-2.24 1.42-1.12 1.1-1.72 2.56-1.72 4.14 0 1.78.8 3.38 2.08 4.46a7.752 7.752 0 0 0-2.08 5.3c0 4.3 3.5 7.82 7.8 7.82h.8c.98 3.58 2.86 6.86 5.48 9.58.48.52 1 1 1.54 1.46v5.16h-5.86c-2.78 0-5.48.56-8.04 1.64-.42.04-.8.24-1.1.52-3.54 1.74-6.56 4.44-8.76 7.84C1.24 77.3 0 81.46 0 85.74v12.3C0 99.12.86 100 1.94 100h78.14c1.08 0 1.94-.88 1.94-1.96v-12.3c0-4.28-1.24-8.44-3.58-12.08zM11.72 96.08H3.9V85.74c0-5.94 3.04-11.64 7.82-15.02v25.36zM62.5 43.54h-.1c.06-.64.1-1.3.1-1.94v-5.86c2.14 0 3.9 1.74 3.9 3.9s-1.76 3.9-3.9 3.9zM31.24 9.4v8.76c0 1.08.88 1.94 1.96 1.94s1.96-.86 1.96-1.94V6.44c0-1.22 1.02-2.54 1.94-2.54h7.82c.92 0 1.96 1.32 1.96 2.54v11.72c0 1.08.86 1.94 1.94 1.94s1.96-.86 1.96-1.94V9.4c6.3 2.22 10.86 7.94 11.6 14.62H19.64c.74-6.68 5.3-12.4 11.6-14.62zM19.52 43.54c-2.14 0-3.9-1.74-3.9-3.9s1.76-3.9 3.9-3.9v5.86c0 .64.04 1.3.1 1.94h-.1zm-1.94-11.72c-1.08 0-1.96-.86-1.96-1.94 0-.52.2-1.02.58-1.38.36-.38.86-.58 1.38-.58h46.86c1.08 0 1.96.88 1.96 1.96 0 .52-.2 1-.58 1.38-.36.36-.86.56-1.38.56H17.58zm6.2 13.32v-.06c-.24-1.14-.34-2.32-.34-3.48v-5.86h35.14v5.86c0 1.16-.1 2.34-.34 3.48v.06c-.88 4.36-3.3 8.26-6.82 10.98-3.04 2.38-6.64 3.64-10.4 3.64-3.76 0-7.38-1.26-10.42-3.64-.7-.54-1.38-1.14-2-1.78a18.562 18.562 0 0 1-4.82-9.2zm15.28 50.94H23.44V91.6c0-1.08-.88-1.96-1.96-1.96s-1.96.88-1.96 1.96v4.48h-3.9V68.64c1.26-.48 2.58-.8 3.9-.96v12.2c0 1.08.88 1.94 1.96 1.94s1.96-.86 1.96-1.94V67.56h5.02l10.6 11.14v17.38zm-7.82-31.24V61.2a20.57 20.57 0 0 0 9.78 2.46c3.42 0 6.74-.84 9.76-2.46v3.64l-9.76 10.24-9.78-10.24zM66.4 96.08h-3.9V91.6c0-1.08-.88-1.96-1.96-1.96s-1.96.88-1.96 1.96v4.48H42.96V78.7l10.6-11.14h5.02v12.32c0 1.08.88 1.94 1.96 1.94s1.96-.86 1.96-1.94v-12.2c1.32.16 2.64.48 3.9.96v27.44zm11.72 0H70.3V70.72c4.78 3.38 7.82 9.08 7.82 15.02v10.34zm-56.64-12.3c-1.08 0-1.96.88-1.96 1.96s.88 1.94 1.96 1.94 1.96-.86 1.96-1.94-.88-1.96-1.96-1.96z" fill="#7BC46A"/></symbol><symbol fill="none" viewBox="0 0 100 100" id="service4" xmlns="http://www.w3.org/2000/svg"><path fill-rule="evenodd" clip-rule="evenodd" d="M60.56 43.36c-9.48 0-17.2 7.7-17.2 17.18s7.72 17.18 17.2 17.18 17.18-7.7 17.18-17.18-7.7-17.18-17.18-17.18zM12.54 18.12H50c1.08 0 1.96-.88 1.96-1.96S51.08 14.2 50 14.2H12.54c-1.08 0-1.96.88-1.96 1.96s.88 1.96 1.96 1.96zM50 27.76H20.82c-1.08 0-1.96.86-1.96 1.94s.88 1.96 1.96 1.96H50c1.08 0 1.96-.88 1.96-1.96s-.88-1.94-1.96-1.94zm-37.46 3.9c.52 0 1.02-.22 1.38-.58.36-.36.56-.86.56-1.38 0-.5-.2-1.02-.56-1.38-.36-.36-.88-.56-1.38-.56-.52 0-1.02.2-1.38.56-.36.36-.58.86-.58 1.38 0 .52.22 1.02.58 1.38.36.36.86.58 1.38.58zM29.1 81.92H12.54c-1.08 0-1.96.88-1.96 1.96 0 1.06.88 1.94 1.96 1.94H29.1c1.08 0 1.94-.88 1.94-1.94 0-1.08-.86-1.96-1.94-1.96zm8.02 0c-.52 0-1.02.2-1.38.56-.36.38-.58.88-.58 1.4 0 .5.22 1 .58 1.38.36.36.86.56 1.38.56.5 0 1.02-.2 1.38-.56.36-.38.56-.88.56-1.38 0-.52-.2-1.02-.56-1.4-.36-.36-.88-.56-1.38-.56zM31.28 41.3H12.54c-1.08 0-1.96.86-1.96 1.94s.88 1.96 1.96 1.96h18.74c1.08 0 1.94-.88 1.94-1.96s-.86-1.94-1.94-1.94zm-1.16 13.54H12.54c-1.08 0-1.96.86-1.96 1.94s.88 1.96 1.96 1.96h17.58c1.08 0 1.94-.88 1.94-1.96s-.86-1.94-1.94-1.94zm30.44-3.1c-1.08 0-1.96.88-1.96 1.96s.88 1.96 1.96 1.96c2.68 0 4.88 2.18 4.88 4.88 0 1.08.88 1.96 1.94 1.96 1.08 0 1.96-.88 1.96-1.96 0-4.84-3.94-8.8-8.78-8.8zm37.5 36.94l-15.5-15.5c2.16-3.72 3.38-8.04 3.38-12.64 0-6.8-2.68-12.96-7.04-17.52V21.08c0-.5-.2-1-.56-1.38L59.2.56C58.82.18 58.32 0 57.82 0H5.86C2.64 0 0 2.62 0 5.86v88.28C0 97.36 2.64 100 5.86 100h67.18c3.24 0 5.86-2.64 5.86-5.86v-5.88l9.8 9.8a6.633 6.633 0 0 0 4.68 1.92c1.7 0 3.4-.64 4.68-1.92 2.58-2.6 2.58-6.8 0-9.38zm-37.5-6.66c-11.86 0-21.48-9.64-21.48-21.48s9.62-21.48 21.48-21.48c11.84 0 21.48 9.64 21.48 21.48S72.4 82.02 60.56 82.02zm-.78-75.36l12.46 12.48H61.72c-1.08 0-1.94-.88-1.94-1.96V6.66zM75 94.14c0 1.06-.88 1.94-1.96 1.94H5.86c-1.08 0-1.94-.88-1.94-1.94V5.86c0-1.08.86-1.96 1.94-1.96h50v13.28c0 3.22 2.64 5.86 5.86 5.86H75v16.64c-4.1-2.86-9.08-4.54-14.44-4.54-14 0-25.4 11.4-25.4 25.4 0 2.74.44 5.36 1.24 7.84H12.54c-1.08 0-1.96.86-1.96 1.94s.88 1.96 1.96 1.96h24.94c.18 0 .36-.02.52-.08 4.24 8.16 12.76 13.72 22.56 13.72 4.6 0 8.92-1.22 12.64-3.38l1.8 1.82v9.78zm20.3 1.14a2.716 2.716 0 0 1-3.84 0L76.48 80.3c1.4-1.14 2.7-2.42 3.84-3.84L95.3 91.44c1.06 1.06 1.06 2.8 0 3.84zM60.56 73.82c-7.32 0-13.28-5.96-13.28-13.28 0-7.32 5.96-13.28 13.28-13.28 7.32 0 13.28 5.96 13.28 13.28 0 7.32-5.96 13.28-13.28 13.28z" fill="#7BC46A"/></symbol><symbol fill="none" viewBox="0 0 100 100" id="service5" xmlns="http://www.w3.org/2000/svg"><path fill-rule="evenodd" clip-rule="evenodd" d="M26.56 87.7c-1.08 0-1.94.86-1.94 1.94s.86 1.96 1.94 1.96 1.96-.88 1.96-1.96-.88-1.94-1.96-1.94zM100 25.38c0-.82-.52-1.54-1.24-1.82L44.06 1.42A5.79 5.79 0 0 0 40.24 0c-2.04 0-3.92 1.06-4.98 2.78L.94 23.72c-.58.36-.94 1-.94 1.66v7.82c0 1.08.88 1.96 1.96 1.96h1.96v9.76c0 1.08.86 1.96 1.94 1.96h16.8c1.08 0 1.96-.88 1.96-1.96v-9.76h3.9v44.72h-5.86c-3.22 0-5.86 2.62-5.86 5.86v12.3c0 1.08.88 1.96 1.96 1.96h42.96c1.08 0 1.96-.88 1.96-1.96v-12.3c0-3.24-2.64-5.86-5.86-5.86h-5.86V35.16h28.52v7.94c0 .52.2 1.02.56 1.38l3.34 3.34V59.5c-2.28.82-3.9 2.98-3.9 5.54 0 3.22 2.62 5.86 5.86 5.86a5.88 5.88 0 0 0 5.3-3.36 1.96 1.96 0 0 0-3.54-1.68c-.32.68-1.02 1.12-1.76 1.12-1.08 0-1.96-.86-1.96-1.94s.88-1.96 1.96-1.96 1.94-.88 1.94-1.96v-13.3l3.34-3.34c.36-.36.58-.86.58-1.38v-7.94h5.86c1.08 0 1.94-.88 1.94-1.96v-7.82zM38.28 5.86c0-1.12.92-1.96 1.96-1.96 1.08 0 1.96.88 1.96 1.96v13.66h-3.92V5.86zm-1.94 17.58h11.72v13.34L35.1 23.44h1.24zM35.1 63.66h12.96v13.36L35.1 63.66zm10.28 16.22H32.42V66.52l12.96 13.36zM32.42 59.76V46.42l12.96 13.34H32.42zm2.68-16.22h12.96V56.9L35.1 43.54zm-2.68-3.9V26.3l12.96 13.34H32.42zm1.96-31.76v11.64h-3.94c-.02 0-.04 0-.06.02h-.18l-19.24 2.64 23.42-14.3zM20.7 42.96H7.82v-7.8H20.7v7.8zM3.92 31.24v-4.16l24.6-3.36v7.52H3.92zm53.9 52.54c1.08 0 1.96.88 1.96 1.96v10.34H20.7V85.74c0-1.08.88-1.96 1.96-1.96h35.16zm-7.66-64.24h-.08c-.02-.02-.04-.02-.08-.02h-3.9V6.46L85.48 22.4l-35.32-2.86zM88.28 42.3l-1.94 1.94-1.96-1.94v-7.14h3.9v7.14zm7.82-11.06H51.96V23.6l44.14 3.58v4.06zM53.92 87.7H34.38c-1.08 0-1.96.86-1.96 1.94s.88 1.96 1.96 1.96h19.54c1.08 0 1.94-.88 1.94-1.96S55 87.7 53.92 87.7z" fill="#7BC46A"/></symbol><symbol fill="none" viewBox="0 0 100 100" id="service6" xmlns="http://www.w3.org/2000/svg"><path d="M11.58 0H66.5c3.18 0 6.08 1.3 8.18 3.4 2.1 2.1 3.4 5 3.4 8.18V88.4c0 3.2-1.3 6.1-3.4 8.2-2.1 2.1-5 3.4-8.18 3.4H11.58c-3.18 0-6.08-1.3-8.18-3.4-2.1-2.1-3.4-5-3.4-8.2V11.58C0 8.4 1.3 5.5 3.4 3.4 5.5 1.3 8.4 0 11.58 0zM94.6 5.1h3.18c.5 0 .96.2 1.3.54.34.32.54.8.54 1.3v13.08h-3.7V8.78h-1.28V50.6h-.02c.02 1.84-.34 3.64-1.04 5.32-.7 1.66-1.72 3.2-3.02 4.5l-.22.22c-.36.36-.82.54-1.3.54-.46 0-.94-.18-1.3-.54l-.22-.22a14.14 14.14 0 0 1-3.02-4.5c-.68-1.68-1.04-3.48-1.04-5.32V5.7c0-1.54.62-2.94 1.64-3.96 1-1 2.4-1.64 3.94-1.64S91.98.74 93 1.74c.88.88 1.46 2.06 1.6 3.36zm-6.64 49.52c.3.66.66 1.3 1.08 1.9.44-.6.8-1.24 1.08-1.9.3-.7.52-1.42.66-2.18h-3.46c.12.76.34 1.48.64 2.18zm-.82-5.88h3.8V8.78h-3.8v39.96zm.56-44.38c-.2.2-.36.46-.46.74h3.6a1.906 1.906 0 0 0-1.8-1.3c-.52 0-1 .22-1.34.56zM31.98 22.68H46.1c.52 0 1 .2 1.34.56.36.34.58.82.58 1.34 0 .54-.22 1-.56 1.36-.36.34-.84.56-1.36.56H31.98c-.52 0-1-.22-1.36-.56-.34-.36-.56-.82-.56-1.36 0-.52.22-1 .56-1.34.36-.36.84-.56 1.36-.56zM13.62 67.86h31.06c.54 0 1.02.2 1.36.56a1.906 1.906 0 0 1 0 2.7c-.34.34-.82.56-1.36.56H13.62c-.52 0-1-.22-1.36-.56a1.906 1.906 0 0 1 0-2.7c.36-.36.84-.56 1.36-.56zm33.9-36.72h16.94c.52 0 1 .22 1.34.56.36.36.56.82.56 1.36 0 .52-.2 1-.56 1.34-.34.36-.82.56-1.34.56H47.52c-.54 0-1.02-.2-1.36-.56-.34-.34-.56-.82-.56-1.34 0-.54.22-1 .56-1.36.34-.34.82-.56 1.36-.56zM26.34 17.02h25.4c.54 0 1.02.22 1.36.56.34.36.56.82.56 1.36 0 .52-.22 1-.56 1.34-.34.36-.82.56-1.36.56h-25.4c-.54 0-1.02-.2-1.36-.56-.34-.34-.56-.82-.56-1.34 0-.54.22-1 .56-1.36.34-.34.82-.56 1.36-.56zm16.94 62.14h19.76c.52 0 1 .2 1.36.56.34.34.56.82.56 1.34 0 .52-.22 1-.56 1.36-.36.34-.84.56-1.36.56H43.28c-.54 0-1-.22-1.36-.56-.34-.36-.56-.84-.56-1.36 0-.52.22-1 .56-1.34.36-.36.82-.56 1.36-.56zM26.34 62.2h26.82c.52 0 1 .22 1.36.56.34.36.56.84.56 1.36 0 .52-.22 1-.56 1.36-.36.34-.84.56-1.36.56H26.34c-.54 0-1.02-.22-1.36-.56-.34-.36-.56-.84-.56-1.36 0-.52.22-1 .56-1.36.34-.34.82-.56 1.36-.56zm-12.72 0h7.06c.54 0 1 .22 1.36.56.34.36.56.84.56 1.36 0 .52-.22 1-.56 1.36-.36.34-.82.56-1.36.56h-7.06c-.52 0-1-.22-1.36-.56-.34-.36-.56-.84-.56-1.36 0-.52.22-1 .58-1.36.34-.34.82-.56 1.34-.56zm45.18 0h5.66c.52 0 1 .22 1.34.56.36.36.56.84.56 1.36 0 .52-.2 1-.56 1.36-.34.34-.82.56-1.34.56H58.8c-.52 0-1-.22-1.34-.56-.36-.36-.56-.84-.56-1.36 0-.52.2-1 .56-1.36.34-.34.82-.56 1.34-.56zm-45.18-5.64H33.4c.52 0 1 .22 1.34.56a1.906 1.906 0 0 1 0 2.7c-.34.34-.82.56-1.34.56H13.62c-.52 0-1-.22-1.36-.56-.34-.34-.56-.82-.56-1.34 0-.54.22-1.02.58-1.36.34-.34.82-.56 1.34-.56zm25.42 0h25.42c.52 0 1 .22 1.34.56.36.34.56.82.56 1.36 0 .52-.2 1-.56 1.34-.34.34-.82.56-1.34.56H39.04c-.52 0-1-.22-1.36-.56a1.906 1.906 0 0 1 0-2.7c.36-.34.84-.56 1.36-.56zm16.94-5.64h8.48c.52 0 1 .2 1.34.56.36.34.56.82.56 1.34 0 .54-.2 1-.56 1.36-.34.34-.82.56-1.34.56h-8.48c-.52 0-1-.22-1.34-.56-.36-.36-.56-.84-.56-1.36 0-.52.2-1 .56-1.34.34-.36.82-.56 1.34-.56zm-42.36 0h36.72c.52 0 1 .2 1.34.56.36.34.56.82.56 1.34 0 .52-.2 1-.56 1.36-.34.34-.82.56-1.34.56H13.62c-.52 0-1-.22-1.34-.56-.36-.36-.58-.82-.58-1.36 0-.52.22-1 .56-1.34.36-.36.84-.56 1.36-.56zm0-5.66h50.84c.52 0 1 .22 1.34.56.36.34.56.82.56 1.36 0 .52-.2 1-.56 1.34-.34.36-.82.56-1.34.56H13.62c-.52 0-1-.2-1.36-.56a1.906 1.906 0 0 1 0-2.7c.36-.34.84-.56 1.36-.56zm19.78-5.64h31.06c.52 0 1 .2 1.34.56.36.34.56.82.56 1.34 0 .54-.2 1.02-.56 1.36-.34.34-.82.56-1.34.56H33.4c-.54 0-1.02-.22-1.36-.56a1.906 1.906 0 0 1 0-2.7c.34-.36.82-.56 1.36-.56zm-14.12 0h8.46c.54 0 1 .2 1.36.56a1.906 1.906 0 0 1 0 2.7c-.36.34-.82.56-1.36.56h-8.46c-.54 0-1.02-.22-1.36-.56a1.906 1.906 0 0 1 0-2.7c.34-.36.82-.56 1.36-.56zM66.5 3.86H11.58c-2.12 0-4.06.88-5.46 2.28a7.664 7.664 0 0 0-2.26 5.44V88.4c0 2.14.86 4.06 2.26 5.46 1.4 1.4 3.34 2.28 5.46 2.28H66.5c2.12 0 4.04-.88 5.46-2.28 1.4-1.4 2.26-3.32 2.26-5.46V11.58c0-2.12-.86-4.04-2.26-5.44-1.42-1.4-3.34-2.28-5.46-2.28z" fill="#7BC46A"/></symbol><symbol fill="none" viewBox="0 0 100 100" id="service7" xmlns="http://www.w3.org/2000/svg"><path fill-rule="evenodd" clip-rule="evenodd" d="M16.62 88.84c-.36-.36-.88-.56-1.38-.56-.52 0-1.02.2-1.38.56-.36.36-.58.88-.58 1.38 0 .52.22 1.02.58 1.38.36.36.86.58 1.38.58.5 0 1.02-.22 1.38-.58.36-.36.56-.86.56-1.38 0-.5-.2-1.02-.56-1.38zM99.42.56C99.06.2 98.56 0 98.04 0H50c-1.08 0-1.96.86-1.96 1.94v5.6l-18.5 4.96a1.942 1.942 0 0 0-1.38 2.38l9.58 35.82-8.3 8.3a5.822 5.822 0 0 0-4.82-2.56H5.86C2.64 56.44 0 59.06 0 62.3v31.84C0 97.36 2.64 100 5.86 100h18.76c2.74 0 5.04-1.9 5.68-4.46l2.32 2.02a9.76 9.76 0 0 0 6.46 2.44h58.96c1.08 0 1.96-.88 1.96-1.96V1.94c0-.52-.2-1.02-.58-1.38zM26.56 94.14c0 1.06-.88 1.94-1.94 1.94H5.86c-1.08 0-1.96-.88-1.96-1.94V62.3c0-1.08.88-1.96 1.96-1.96h7.42v22.5c0 1.08.88 1.96 1.96 1.96s1.94-.88 1.94-1.96v-22.5h7.44c1.06 0 1.94.88 1.94 1.96v31.84zm5.88-78.38l15.6-4.18v7.24l-1.3.34c-.5.14-.92.46-1.18.92-.26.44-.34.98-.2 1.48.74 2.8-.92 5.68-3.72 6.44-.5.14-.92.46-1.18.9-.26.46-.34 1-.2 1.5l7.62 28.18h-3.92l-2.02-7.9c-.08-.26-.18-.48-.34-.68l-9.16-34.24zm15.6 12.02v16.48l-3.56-13.2c1.5-.76 2.72-1.92 3.56-3.28zm28.06 68.3H39.08a5.97 5.97 0 0 1-3.9-1.46l-4.7-4.12v-27L39 54.96l1.54 6.06c.22.86 1 1.46 1.9 1.46l38.4.02c1.5 0 2.72 1.22 2.72 2.72 0 1.52-1.22 2.74-2.72 2.74H61.16c-1.08 0-1.96.88-1.96 1.96s.88 1.94 1.96 1.94h25.78c1.52 0 2.74 1.24 2.74 2.74 0 1.5-1.22 2.74-2.74 2.74H61.16c-1.08 0-1.96.88-1.96 1.94 0 1.08.88 1.96 1.96 1.96h21.6c1.52 0 2.74 1.22 2.74 2.74 0 1.5-1.22 2.74-2.74 2.74h-21.6c-1.08 0-1.96.86-1.96 1.94s.88 1.96 1.96 1.96H76.1c1.52 0 2.74 1.22 2.74 2.74 0 1.5-1.22 2.72-2.74 2.72zm20 0H82.16c.38-.82.58-1.76.58-2.72 0-.98-.2-1.9-.58-2.74h.6c3.68 0 6.64-2.98 6.64-6.64 0-1.08-.24-2.08-.7-2.98a6.618 6.618 0 0 0 4.88-6.4c0-1.48-.48-2.84-1.3-3.96V45.9c0-1.08-.88-1.96-1.96-1.96s-1.94.88-1.94 1.96v22.22c-.46-.1-.94-.16-1.44-.16h-.06c.38-.84.6-1.76.6-2.74a6.65 6.65 0 0 0-6.64-6.64H77.7c3.32-1.42 5.68-4.74 5.68-8.58 0-5.16-4.2-9.36-9.36-9.36-5.16 0-9.34 4.2-9.34 9.36 0 3.84 2.34 7.16 5.68 8.58H59.68V21.44c3.48-.76 6.24-3.5 7-7h14.68c.76 3.5 3.52 6.24 7.02 7v6.08c0 1.08.86 1.96 1.94 1.96s1.96-.88 1.96-1.96V19.7c0-1.08-.88-1.94-1.96-1.94-2.9 0-5.26-2.36-5.26-5.26 0-1.08-.86-1.96-1.94-1.96H64.94c-1.08 0-1.96.88-1.96 1.96 0 2.9-2.36 5.26-5.26 5.26-1.08 0-1.96.86-1.96 1.94v38.88h-3.8V3.9H96.1v92.18zM74.02 55.44c-3 0-5.44-2.44-5.44-5.44 0-3 2.44-5.44 5.44-5.44 3 0 5.44 2.44 5.44 5.44 0 3-2.44 5.44-5.44 5.44zM91.7 35.72a1.97 1.97 0 0 0-1.38-.58c-.5 0-1.02.22-1.38.58-.36.36-.56.86-.56 1.38 0 .52.2 1.02.56 1.38.36.36.88.58 1.38.58.52 0 1.02-.22 1.38-.58.38-.36.58-.86.58-1.38 0-.52-.2-1.02-.58-1.38z" fill="#7BC46A"/></symbol><symbol fill="none" viewBox="0 0 100 100" id="service8" xmlns="http://www.w3.org/2000/svg"><path fill-rule="evenodd" clip-rule="evenodd" d="M68.529 19.88H89.76c2.843.02 5.388 1.154 7.237 3.003 1.849 1.869 3.002 4.413 3.002 7.236v59.642c0 2.843-1.153 5.388-3.002 7.237A10.102 10.102 0 0 1 89.761 100H10.24a10.136 10.136 0 0 1-7.237-3.002C1.153 95.149.02 92.604 0 89.761V16.88a10.22 10.22 0 0 1 3.002-7.237 10.136 10.136 0 0 1 7.237-3.002c2.842 0 5.387 1.133 7.236 3.002a10.136 10.136 0 0 1 3.002 7.237v3.002h27.575a10.25 10.25 0 0 1 .894-3.857c.557-1.273 1.392-2.406 2.426-3.36V6.938a6.94 6.94 0 0 1 2.028-4.91A6.897 6.897 0 0 1 58.29 0c1.909 0 3.638.775 4.89 2.028a6.944 6.944 0 0 1 2.029 4.91v5.726a10.098 10.098 0 0 1 2.425 3.36c.537 1.193.855 2.525.895 3.857zm21.51 65.19a1.935 1.935 0 0 1 1.392-.577c.537 0 1.014.219 1.372.577.358.357.577.854.577 1.391v4.97a1.89 1.89 0 0 1-.577 1.372 1.924 1.924 0 0 1-1.372.577h-4.97a1.935 1.935 0 0 1-1.391-.577 1.89 1.89 0 0 1-.577-1.372 1.97 1.97 0 0 1 1.968-1.968h3.002v-3.002c0-.537.219-1.034.577-1.391zm-62.922 4.393h3.002a1.97 1.97 0 0 1 1.968 1.968c0 .537-.218 1.014-.576 1.372a1.97 1.97 0 0 1-1.392.577h-4.97a1.924 1.924 0 0 1-1.372-.577 1.924 1.924 0 0 1-.576-1.372v-4.97c0-.537.218-1.034.576-1.391a1.923 1.923 0 0 1 1.372-.577 1.97 1.97 0 0 1 1.968 1.968v3.002zm59.344-62.942h4.97c.537 0 1.014.219 1.372.576.358.338.577.835.577 1.372v4.97a1.97 1.97 0 0 1-.577 1.392 1.99 1.99 0 0 1-1.372.557 2.04 2.04 0 0 1-1.391-.557 1.97 1.97 0 0 1-.577-1.392v-3.021h-3.002a2.003 2.003 0 0 1-1.391-.557 1.97 1.97 0 0 1-.577-1.392c0-.537.219-1.034.577-1.372a1.97 1.97 0 0 1 1.391-.576zm-59.92 8.31a2.04 2.04 0 0 1-1.392.557 1.99 1.99 0 0 1-1.372-.557 1.97 1.97 0 0 1-.576-1.392v-4.97c0-.537.218-1.034.576-1.372a1.924 1.924 0 0 1 1.372-.576h4.97a1.97 1.97 0 0 1 1.392.576c.358.338.576.835.576 1.372a1.97 1.97 0 0 1-.576 1.392 2.04 2.04 0 0 1-1.392.556h-3.002v3.022a1.97 1.97 0 0 1-.576 1.392zm51.352 46.938c.08.08.159.16.218.259l.04-.04.16.418c.158.357.198.755.118 1.113-.08.378-.258.735-.536 1.014l-4.97 4.97a2.051 2.051 0 0 1-.875.517c-.318.08-.676.1-1.014 0a1.899 1.899 0 0 1-.895-.497 1.9 1.9 0 0 1-.497-.895 1.76 1.76 0 0 1 0-1.014c.1-.338.259-.636.517-.874l1.63-1.65H44.791l1.63 1.65a1.944 1.944 0 0 1-.02 2.743 1.924 1.924 0 0 1-1.371.557c-.477.02-.974-.18-1.372-.537l-4.97-4.97c-.02-.04-.04-.06-.06-.08-.06-.08-.139-.159-.199-.258-.06-.08-.099-.18-.159-.259-.02-.06-.04-.099-.04-.139-.02-.1-.059-.179-.059-.258-.02-.1-.04-.199-.04-.298-.02-.06 0-.1 0-.16v-.06c0-.079.02-.158.02-.238l.06-.238c.02-.04.06-.14.08-.2a1.4 1.4 0 0 1 .158-.297c.08-.1.16-.2.239-.279 0-.02 4.712-4.79 4.97-4.99a1.99 1.99 0 0 1 1.372-.536c.497 0 .994.198 1.372.576.377.378.556.855.576 1.352 0 .497-.179.994-.556 1.372l-1.63 1.65h26.997l-1.63-1.65a1.924 1.924 0 0 1-.557-1.372c.02-.497.2-.994.577-1.352a1.945 1.945 0 0 1 1.372-.576c.497 0 .994.178 1.371.536l4.97 4.99zM57.376 21.91c-.06-.02-.12-.06-.18-.1l-.158-.12-.14-.118a1.924 1.924 0 0 1-.556-1.372c0-.497.179-1.014.577-1.392a1.923 1.923 0 0 1 1.371-.556c.497 0 .994.178 1.372.556.398.378.577.895.577 1.392 0 .497-.18.994-.557 1.372l-.02.02c-.04.04-.1.079-.14.119-.059.04-.099.08-.158.1-.06.039-.1.079-.16.099-.059.04-.118.06-.158.08-.06.019-.12.059-.2.079-.059.02-.118.02-.198.04-.06 0-.12.02-.179.02-.04 0-.1.02-.179.02l-.199-.02c-.06 0-.119-.02-.178-.02-.06-.02-.14-.04-.2-.06-.059-.02-.119-.04-.158-.06a.706.706 0 0 1-.18-.08zM81.73 67.376a4.641 4.641 0 0 0 1.033-2.187 4.74 4.74 0 0 0-.357-2.803L65.905 27.018a8.095 8.095 0 0 1-.935.914 8.66 8.66 0 0 1-1.212.895L81.73 67.376zm-47.913-2.187c.14.795.497 1.55 1.034 2.187l17.972-38.549a8.656 8.656 0 0 1-1.213-.895 8.11 8.11 0 0 1-.934-.914L34.195 62.386a4.732 4.732 0 0 0-.378 2.803zM58.29 30.437c-.596 0-1.212-.06-1.809-.179l-8.946 19.165a30.881 30.881 0 0 0 10.755 1.949c3.658 0 7.297-.656 10.776-1.949l-8.947-19.165a9.352 9.352 0 0 1-1.829.18zM56.163 4.811a2.94 2.94 0 0 0-.895 2.127v3.48a9.89 9.89 0 0 1 3.022-.478 9.89 9.89 0 0 1 3.022.478v-3.48a2.94 2.94 0 0 0-.895-2.127 2.94 2.94 0 0 0-2.127-.894 2.94 2.94 0 0 0-2.127.894zm6.6 10.895a6.361 6.361 0 0 0-4.473-1.85 6.313 6.313 0 0 0-6.322 6.322c0 1.75.696 3.34 1.85 4.494a6.326 6.326 0 0 0 4.472 1.849c1.75 0 3.32-.716 4.473-1.849a6.325 6.325 0 0 0 1.85-4.493c0-1.73-.697-3.32-1.85-4.473zm-48.051-3.3a6.26 6.26 0 0 0-4.473-1.87c-1.75 0-3.32.716-4.474 1.87a6.326 6.326 0 0 0-1.848 4.473v58.23a10.158 10.158 0 0 1 6.322-2.206c2.246 0 4.493.735 6.341 2.206V16.88a6.26 6.26 0 0 0-1.868-4.473zm79.523 81.848a6.342 6.342 0 0 0 1.868-4.493V30.12a6.33 6.33 0 0 0-1.868-4.473 6.326 6.326 0 0 0-4.474-1.849H68.708l17.236 36.939a8.548 8.548 0 0 1 .537 5.725c-.457 1.79-1.471 3.44-3.002 4.632l1.352 2.923c.16.318.239.676.219 1.014a1.98 1.98 0 0 1-.338.974 2.015 2.015 0 0 1-.796.676 1.94 1.94 0 0 1-1.013.159 1.875 1.875 0 0 1-.975-.358 2.094 2.094 0 0 1-.636-.795L70.696 52.962c-3.976 1.55-8.191 2.306-12.406 2.306a34.32 34.32 0 0 1-12.425-2.306L35.288 75.686a2.087 2.087 0 0 1-.636.795 1.874 1.874 0 0 1-.974.358c-.358.04-.696-.02-1.014-.16a2.015 2.015 0 0 1-.795-.675 1.98 1.98 0 0 1-.338-.974c-.02-.338.06-.696.219-1.014l1.351-2.923a8.41 8.41 0 0 1-3.002-4.632 8.537 8.537 0 0 1 .537-5.725l17.217-36.939H20.477v59.344a1.97 1.97 0 0 1-.576 1.392 1.954 1.954 0 0 1-1.372.556 2.04 2.04 0 0 1-1.392-.556 2.04 2.04 0 0 1-.556-1.392c0-1.75-.716-3.32-1.87-4.473a6.244 6.244 0 0 0-4.472-1.849c-1.75 0-3.32.696-4.474 1.849a6.362 6.362 0 0 0-1.848 4.473v6.62c0 1.75.715 3.34 1.848 4.493a6.362 6.362 0 0 0 4.474 1.85H89.76c1.75 0 3.34-.716 4.474-1.85z" fill="#7BC46A"/></symbol><symbol fill="none" viewBox="0 0 422 424" id="timer" xmlns="http://www.w3.org/2000/svg"><path fill-rule="evenodd" clip-rule="evenodd" d="M243.245 244.124c2.916.875 6.267 3.728 6.267 8.376v163.898a7.95 7.95 0 0 1-15.9 0V272.302l-14.626 17.795a7.95 7.95 0 0 1-12.283-10.096l27.117-32.993c2.608-3.216 6.549-3.747 9.425-2.884z" fill="#fff"/><path d="M388.104 409.867h-83.663l77.783-91.591c.177-.211.342-.43.495-.658 14.633-21.657 9.759-50.979-11.095-66.737-25.356-18.219-60.681-12.432-78.898 12.924a56.526 56.526 0 0 0-10.622 32.995 7.067 7.067 0 1 0 14.133 0c-.003-23.417 18.979-42.402 42.395-42.404a42.399 42.399 0 0 1 24.738 7.961c14.608 11.193 18.01 31.806 7.773 47.099l-87.358 102.905A7.068 7.068 0 0 0 289.17 424h98.934a7.067 7.067 0 0 0 0-14.133z" fill="#fff"/><path d="M190.955 374.668a7.067 7.067 0 0 0-6.795-7.329h-.003c-92.193-3.422-166.19-77.285-169.776-169.472H42.4a7.067 7.067 0 0 0 0-14.134H14.38C17.918 91.709 91.709 17.92 183.734 14.388v20.945a7.067 7.067 0 0 0 14.134 0V14.388c90.766 3.51 164.022 75.383 169.26 166.066l-27.56-27.56a7.066 7.066 0 0 0-9.992 9.993l39.446 39.446a6.95 6.95 0 0 0 2.785 2.028c.276.083.557.152.841.205.485.175.986.296 1.498.36h.402a6.778 6.778 0 0 0 1.583-.311c.291-.035.579-.089.863-.162a6.97 6.97 0 0 0 2.551-1.597l39.983-39.969a7.068 7.068 0 0 0-9.992-9.993l-28.246 28.225C376.241 79.827 292.719.249 191.302.099 191.125.092 190.977 0 190.8 0s-.325.092-.502.099C85.314.243.243 85.314.098 190.298c0 .177-.098.325-.098.502s.092.325.099.502c.176 102.393 81.213 186.357 183.535 190.164h.262a7.067 7.067 0 0 0 7.059-6.798z" fill="#fff"/></symbol><symbol fill="none" viewBox="0 0 25 29" id="triangle" xmlns="http://www.w3.org/2000/svg"><path opacity=".9" d="M23.118 12.782c1.302.776 1.302 2.66 0 3.436L3.024 28.198C1.691 28.991 0 28.03 0 26.478V2.521C0 .969 1.691.008 3.024.803l20.094 11.98z" fill="#fff"/></symbol></svg>